<?xml version="1.0" encoding="UTF-8"?>
<svg xmlns="http://www.w3.org/2000/svg" xmlns:xlink="http://www.w3.org/1999/xlink" width="375pt" height="374.999991pt" viewBox="0 0 375 374.999991" version="1.2">
<defs>
<clipPath id="clip1">
  <path d="M 138 295 L 197 295 L 197 351.703125 L 138 351.703125 Z M 138 295 "/>
</clipPath>
<filter id="alpha" filterUnits="objectBoundingBox" x="0%" y="0%" width="100%" height="100%">
  <feColorMatrix type="matrix" in="SourceGraphic" values="0 0 0 0 1 0 0 0 0 1 0 0 0 0 1 0 0 0 1 0"/>
</filter>
<mask id="mask0">
  <g filter="url(#alpha)">
<rect x="0" y="0" width="375" height="374.999991" style="fill:rgb(0%,0%,0%);fill-opacity:0.8;stroke:none;"/>
  </g>
</mask>
<clipPath id="clip2">
  <rect x="0" y="0" width="215" height="124"/>
</clipPath>
<g id="surface5" clip-path="url(#clip2)">
<path style=" stroke:none;fill-rule:nonzero;fill:rgb(26.269531%,27.059937%,36.859131%);fill-opacity:1;" d="M 209.167969 91.128906 C 208.503906 91.128906 207.9375 91.035156 207.558594 90.75 L 57.804688 4.433594 C 57.425781 4.246094 57.238281 3.960938 57.238281 3.679688 C 57.238281 3.394531 57.425781 3.113281 57.804688 2.921875 L 60.265625 1.507812 C 60.738281 1.222656 61.304688 1.128906 61.875 1.128906 C 62.535156 1.128906 63.101562 1.222656 63.480469 1.507812 L 213.234375 87.824219 C 213.613281 88.011719 213.804688 88.296875 213.804688 88.578125 C 213.804688 88.863281 213.613281 89.144531 213.234375 89.335938 L 210.777344 90.75 C 210.398438 90.941406 209.828125 91.128906 209.167969 91.128906 Z M 209.167969 91.128906 "/>
<path style=" stroke:none;fill-rule:nonzero;fill:rgb(26.269531%,27.059937%,36.859131%);fill-opacity:1;" d="M 137.648438 113.984375 C 136.988281 113.984375 136.417969 113.890625 136.039062 113.605469 L 127.433594 108.695312 C 127.054688 108.507812 126.863281 108.222656 126.863281 107.941406 C 126.863281 107.65625 127.054688 107.375 127.433594 107.183594 L 128.851562 106.335938 C 129.324219 106.050781 129.890625 105.957031 130.460938 105.957031 C 131.121094 105.957031 131.6875 106.050781 132.066406 106.335938 L 140.675781 111.246094 C 141.054688 111.433594 141.242188 111.71875 141.242188 112 C 141.242188 112.285156 141.054688 112.566406 140.675781 112.757812 L 139.257812 113.605469 C 138.878906 113.890625 138.3125 113.984375 137.648438 113.984375 Z M 137.648438 113.984375 "/>
<path style=" stroke:none;fill-rule:nonzero;fill:rgb(26.269531%,27.059937%,36.859131%);fill-opacity:1;" d="M 152.3125 122.484375 C 151.648438 122.484375 151.082031 122.390625 150.703125 122.105469 L 142.09375 117.195312 C 141.71875 117.007812 141.527344 116.722656 141.527344 116.441406 C 141.527344 116.15625 141.71875 115.871094 142.09375 115.683594 L 150.609375 110.773438 C 151.082031 110.488281 151.648438 110.394531 152.21875 110.394531 C 152.878906 110.394531 153.449219 110.488281 153.824219 110.773438 L 162.433594 115.683594 C 162.8125 115.871094 163.003906 116.15625 163.003906 116.441406 C 163.003906 116.722656 162.8125 117.007812 162.433594 117.195312 L 153.921875 122.105469 C 153.542969 122.292969 152.972656 122.484375 152.3125 122.484375 Z M 152.3125 122.484375 "/>
<path style=" stroke:none;fill-rule:nonzero;fill:rgb(26.269531%,27.059937%,36.859131%);fill-opacity:1;" d="M 144.746094 109.828125 C 144.082031 109.828125 143.515625 109.734375 143.136719 109.449219 L 134.527344 104.539062 C 134.148438 104.351562 133.960938 104.066406 133.960938 103.785156 C 133.960938 103.5 134.148438 103.21875 134.527344 103.027344 L 135.945312 102.179688 C 136.417969 101.894531 136.988281 101.800781 137.554688 101.800781 C 138.214844 101.800781 138.785156 101.894531 139.164062 102.179688 L 147.769531 107.089844 C 148.148438 107.277344 148.339844 107.5625 148.339844 107.84375 C 148.339844 108.128906 148.148438 108.414062 147.769531 108.601562 L 146.351562 109.449219 C 145.972656 109.734375 145.40625 109.828125 144.746094 109.828125 Z M 144.746094 109.828125 "/>
<path style=" stroke:none;fill-rule:nonzero;fill:rgb(26.269531%,27.059937%,36.859131%);fill-opacity:1;" d="M 122.984375 105.578125 C 122.324219 105.578125 121.757812 105.484375 121.378906 105.199219 L 112.769531 100.289062 C 112.390625 100.101562 112.203125 99.816406 112.203125 99.535156 C 112.203125 99.25 112.390625 98.96875 112.769531 98.777344 L 121.28125 93.867188 C 121.757812 93.585938 122.324219 93.492188 122.890625 93.492188 C 123.554688 93.492188 124.121094 93.585938 124.5 93.867188 L 133.109375 98.777344 C 133.488281 98.96875 133.675781 99.25 133.675781 99.535156 C 133.675781 99.816406 133.488281 100.101562 133.109375 100.289062 L 124.59375 105.199219 C 124.214844 105.390625 123.554688 105.578125 122.984375 105.578125 Z M 122.984375 105.578125 "/>
<path style=" stroke:none;fill-rule:nonzero;fill:rgb(26.269531%,27.059937%,36.859131%);fill-opacity:1;" d="M 108.324219 97.078125 C 107.660156 97.078125 107.09375 96.984375 106.714844 96.703125 L 39.359375 57.886719 C 38.980469 57.699219 38.789062 57.414062 38.789062 57.132812 C 38.789062 56.847656 38.980469 56.566406 39.359375 56.375 L 47.871094 51.464844 C 48.34375 51.179688 48.914062 51.085938 49.480469 51.085938 C 50.144531 51.085938 50.710938 51.179688 51.089844 51.464844 L 118.351562 90.28125 C 118.730469 90.46875 118.917969 90.75 118.917969 91.035156 C 118.917969 91.320312 118.730469 91.601562 118.351562 91.789062 L 109.835938 96.703125 C 109.457031 96.984375 108.890625 97.078125 108.324219 97.078125 Z M 108.324219 97.078125 "/>
<path style=" stroke:none;fill-rule:nonzero;fill:rgb(26.269531%,27.059937%,36.859131%);fill-opacity:1;" d="M 34.910156 54.769531 C 34.25 54.769531 33.683594 54.675781 33.304688 54.390625 L 24.695312 49.480469 C 24.316406 49.292969 24.128906 49.007812 24.128906 48.726562 C 24.128906 48.441406 24.316406 48.160156 24.695312 47.96875 L 33.210938 43.058594 C 33.683594 42.777344 34.25 42.683594 34.816406 42.683594 C 35.480469 42.683594 36.046875 42.777344 36.425781 43.058594 L 45.035156 47.96875 C 45.414062 48.160156 45.601562 48.441406 45.601562 48.726562 C 45.601562 49.007812 45.414062 49.292969 45.035156 49.480469 L 36.519531 54.390625 C 36.140625 54.675781 35.574219 54.769531 34.910156 54.769531 Z M 34.910156 54.769531 "/>
<path style=" stroke:none;fill-rule:nonzero;fill:rgb(26.269531%,27.059937%,36.859131%);fill-opacity:1;" d="M 20.628906 46.554688 C 19.964844 46.554688 19.398438 46.460938 19.019531 46.175781 L 1.800781 36.261719 C 1.421875 36.070312 1.234375 35.789062 1.234375 35.503906 C 1.234375 35.222656 1.421875 34.9375 1.800781 34.75 L 10.316406 29.839844 C 10.789062 29.554688 11.355469 29.460938 11.921875 29.460938 C 12.585938 29.460938 13.152344 29.554688 13.53125 29.839844 L 30.75 39.753906 C 31.128906 39.941406 31.316406 40.226562 31.316406 40.507812 C 31.316406 40.792969 31.128906 41.078125 30.75 41.265625 L 22.234375 46.175781 C 21.855469 46.363281 21.195312 46.554688 20.628906 46.554688 Z M 20.628906 46.554688 "/>
<path style=" stroke:none;fill-rule:nonzero;fill:rgb(26.269531%,27.059937%,36.859131%);fill-opacity:1;" d="M 55.628906 50.238281 C 54.96875 50.238281 54.398438 50.144531 54.019531 49.859375 L 45.414062 44.949219 C 45.035156 44.757812 44.84375 44.476562 44.84375 44.191406 C 44.84375 43.910156 45.035156 43.625 45.414062 43.4375 L 53.925781 38.527344 C 54.398438 38.242188 54.96875 38.148438 55.535156 38.148438 C 56.195312 38.148438 56.765625 38.242188 57.144531 38.527344 L 65.753906 43.4375 C 66.128906 43.625 66.320312 43.910156 66.320312 44.191406 C 66.320312 44.476562 66.128906 44.757812 65.753906 44.949219 L 57.238281 49.859375 C 56.765625 50.144531 56.199219 50.238281 55.628906 50.238281 Z M 55.628906 50.238281 "/>
<path style=" stroke:none;fill-rule:nonzero;fill:rgb(26.269531%,27.059937%,36.859131%);fill-opacity:1;" d="M 70.292969 58.738281 C 69.628906 58.738281 69.0625 58.640625 68.683594 58.359375 L 60.074219 53.449219 C 59.699219 53.257812 59.507812 52.976562 59.507812 52.691406 C 59.507812 52.410156 59.699219 52.125 60.074219 51.9375 L 68.589844 47.027344 C 69.0625 46.742188 69.628906 46.648438 70.199219 46.648438 C 70.859375 46.648438 71.429688 46.742188 71.804688 47.027344 L 80.414062 51.9375 C 80.792969 52.125 80.984375 52.410156 80.984375 52.691406 C 80.984375 52.976562 80.792969 53.257812 80.414062 53.449219 L 71.902344 58.359375 C 71.429688 58.546875 70.859375 58.738281 70.292969 58.738281 Z M 70.292969 58.738281 "/>
<path style=" stroke:none;fill-rule:nonzero;fill:rgb(26.269531%,27.059937%,36.859131%);fill-opacity:1;" d="M 84.957031 67.140625 C 84.292969 67.140625 83.726562 67.046875 83.347656 66.765625 L 74.738281 61.851562 C 74.359375 61.664062 74.171875 61.382812 74.171875 61.097656 C 74.171875 60.8125 74.359375 60.53125 74.738281 60.34375 L 83.253906 55.429688 C 83.726562 55.148438 84.292969 55.054688 84.863281 55.054688 C 85.523438 55.054688 86.089844 55.148438 86.46875 55.429688 L 95.078125 60.34375 C 95.457031 60.53125 95.644531 60.8125 95.644531 61.097656 C 95.644531 61.382812 95.457031 61.664062 95.078125 61.851562 L 86.5625 66.765625 C 86.1875 67.046875 85.523438 67.140625 84.957031 67.140625 Z M 84.957031 67.140625 "/>
<path style=" stroke:none;fill-rule:nonzero;fill:rgb(26.269531%,27.059937%,36.859131%);fill-opacity:1;" d="M 99.621094 75.640625 C 98.957031 75.640625 98.390625 75.546875 98.011719 75.261719 L 89.402344 70.351562 C 89.023438 70.164062 88.835938 69.878906 88.835938 69.597656 C 88.835938 69.3125 89.023438 69.03125 89.402344 68.839844 L 97.917969 63.929688 C 98.390625 63.648438 98.957031 63.554688 99.523438 63.554688 C 100.1875 63.554688 100.753906 63.648438 101.132812 63.929688 L 109.742188 68.839844 C 110.121094 69.03125 110.308594 69.3125 110.308594 69.597656 C 110.308594 69.878906 110.121094 70.164062 109.742188 70.351562 L 101.226562 75.261719 C 100.847656 75.453125 100.28125 75.640625 99.621094 75.640625 Z M 99.621094 75.640625 "/>
<path style=" stroke:none;fill-rule:nonzero;fill:rgb(26.269531%,27.059937%,36.859131%);fill-opacity:1;" d="M 114.28125 84.046875 C 113.621094 84.046875 113.050781 83.953125 112.675781 83.667969 L 104.066406 78.757812 C 103.6875 78.570312 103.496094 78.285156 103.496094 78.003906 C 103.496094 77.71875 103.6875 77.4375 104.066406 77.246094 L 112.578125 72.335938 C 113.050781 72.050781 113.621094 71.957031 114.1875 71.957031 C 114.851562 71.957031 115.417969 72.050781 115.796875 72.335938 L 124.40625 77.246094 C 124.785156 77.4375 124.972656 77.71875 124.972656 78.003906 C 124.972656 78.285156 124.785156 78.570312 124.40625 78.757812 L 115.890625 83.667969 C 115.511719 83.953125 114.945312 84.046875 114.28125 84.046875 Z M 114.28125 84.046875 "/>
<path style=" stroke:none;fill-rule:nonzero;fill:rgb(26.269531%,27.059937%,36.859131%);fill-opacity:1;" d="M 128.945312 92.546875 C 128.285156 92.546875 127.714844 92.453125 127.335938 92.167969 L 118.730469 87.257812 C 118.351562 87.070312 118.160156 86.785156 118.160156 86.503906 C 118.160156 86.21875 118.351562 85.933594 118.730469 85.746094 L 127.242188 80.835938 C 127.714844 80.550781 128.285156 80.457031 128.851562 80.457031 C 129.511719 80.457031 130.082031 80.550781 130.460938 80.835938 L 139.066406 85.746094 C 139.445312 85.933594 139.636719 86.21875 139.636719 86.503906 C 139.636719 86.785156 139.445312 87.070312 139.066406 87.257812 L 130.554688 92.167969 C 130.175781 92.453125 129.609375 92.546875 128.945312 92.546875 Z M 128.945312 92.546875 "/>
<path style=" stroke:none;fill-rule:nonzero;fill:rgb(26.269531%,27.059937%,36.859131%);fill-opacity:1;" d="M 143.609375 101.046875 C 142.945312 101.046875 142.378906 100.953125 142 100.667969 L 133.390625 95.757812 C 133.011719 95.566406 132.824219 95.285156 132.824219 95 C 132.824219 94.71875 133.011719 94.433594 133.390625 94.246094 L 141.90625 89.335938 C 142.378906 89.050781 142.945312 88.957031 143.515625 88.957031 C 144.175781 88.957031 144.746094 89.050781 145.121094 89.335938 L 153.730469 94.246094 C 154.109375 94.433594 154.300781 94.71875 154.300781 95 C 154.300781 95.285156 154.109375 95.566406 153.730469 95.757812 L 145.21875 100.667969 C 144.839844 100.855469 144.269531 101.046875 143.609375 101.046875 Z M 143.609375 101.046875 "/>
<path style=" stroke:none;fill-rule:nonzero;fill:rgb(26.269531%,27.059937%,36.859131%);fill-opacity:1;" d="M 63.386719 38.335938 C 62.726562 38.335938 62.15625 38.242188 61.777344 37.960938 L 53.171875 33.050781 C 52.792969 32.859375 52.601562 32.578125 52.601562 32.292969 C 52.601562 32.011719 52.792969 31.726562 53.171875 31.539062 L 61.683594 26.628906 C 62.15625 26.34375 62.726562 26.25 63.292969 26.25 C 63.953125 26.25 64.523438 26.34375 64.902344 26.628906 L 73.507812 31.539062 C 73.886719 31.726562 74.078125 32.011719 74.078125 32.292969 C 74.078125 32.578125 73.886719 32.859375 73.507812 33.050781 L 64.996094 37.960938 C 64.617188 38.148438 63.953125 38.335938 63.386719 38.335938 Z M 63.386719 38.335938 "/>
<path style=" stroke:none;fill-rule:nonzero;fill:rgb(26.269531%,27.059937%,36.859131%);fill-opacity:1;" d="M 78.050781 46.742188 C 77.386719 46.742188 76.820312 46.648438 76.441406 46.363281 L 67.832031 41.453125 C 67.453125 41.265625 67.265625 40.980469 67.265625 40.699219 C 67.265625 40.414062 67.453125 40.132812 67.832031 39.941406 L 76.347656 35.03125 C 76.820312 34.75 77.386719 34.65625 77.957031 34.65625 C 78.617188 34.65625 79.183594 34.75 79.5625 35.03125 L 88.171875 39.941406 C 88.550781 40.132812 88.738281 40.414062 88.738281 40.699219 C 88.738281 40.980469 88.550781 41.265625 88.171875 41.453125 L 79.660156 46.363281 C 79.28125 46.648438 78.710938 46.742188 78.050781 46.742188 Z M 78.050781 46.742188 "/>
<path style=" stroke:none;fill-rule:nonzero;fill:rgb(26.269531%,27.059937%,36.859131%);fill-opacity:1;" d="M 92.714844 55.242188 C 92.050781 55.242188 91.484375 55.148438 91.105469 54.863281 L 82.496094 49.953125 C 82.117188 49.765625 81.929688 49.480469 81.929688 49.199219 C 81.929688 48.914062 82.117188 48.632812 82.496094 48.441406 L 91.011719 43.53125 C 91.484375 43.25 92.050781 43.152344 92.617188 43.152344 C 93.28125 43.152344 93.847656 43.25 94.226562 43.53125 L 102.835938 48.441406 C 103.214844 48.632812 103.402344 48.914062 103.402344 49.199219 C 103.402344 49.480469 103.214844 49.765625 102.835938 49.953125 L 94.320312 54.863281 C 93.941406 55.054688 93.375 55.242188 92.714844 55.242188 Z M 92.714844 55.242188 "/>
<path style=" stroke:none;fill-rule:nonzero;fill:rgb(26.269531%,27.059937%,36.859131%);fill-opacity:1;" d="M 107.375 63.648438 C 106.714844 63.648438 106.148438 63.554688 105.769531 63.269531 L 97.160156 58.359375 C 96.78125 58.171875 96.59375 57.886719 96.59375 57.601562 C 96.59375 57.320312 96.78125 57.035156 97.160156 56.847656 L 105.671875 51.9375 C 106.148438 51.652344 106.714844 51.558594 107.28125 51.558594 C 107.945312 51.558594 108.511719 51.652344 108.890625 51.9375 L 117.5 56.847656 C 117.878906 57.035156 118.066406 57.320312 118.066406 57.601562 C 118.066406 57.886719 117.878906 58.171875 117.5 58.359375 L 108.984375 63.269531 C 108.605469 63.554688 108.039062 63.648438 107.375 63.648438 Z M 107.375 63.648438 "/>
<path style=" stroke:none;fill-rule:nonzero;fill:rgb(26.269531%,27.059937%,36.859131%);fill-opacity:1;" d="M 122.039062 72.148438 C 121.378906 72.148438 120.808594 72.050781 120.429688 71.769531 L 111.824219 66.859375 C 111.445312 66.667969 111.253906 66.386719 111.253906 66.101562 C 111.253906 65.820312 111.445312 65.535156 111.824219 65.347656 L 120.335938 60.4375 C 120.808594 60.152344 121.378906 60.058594 121.945312 60.058594 C 122.609375 60.058594 123.175781 60.152344 123.554688 60.4375 L 132.164062 65.347656 C 132.539062 65.535156 132.730469 65.820312 132.730469 66.101562 C 132.730469 66.386719 132.539062 66.667969 132.164062 66.859375 L 123.648438 71.769531 C 123.269531 71.957031 122.703125 72.148438 122.039062 72.148438 Z M 122.039062 72.148438 "/>
<path style=" stroke:none;fill-rule:nonzero;fill:rgb(26.269531%,27.059937%,36.859131%);fill-opacity:1;" d="M 136.703125 80.550781 C 136.039062 80.550781 135.472656 80.457031 135.09375 80.175781 L 126.484375 75.261719 C 126.109375 75.074219 125.917969 74.792969 125.917969 74.507812 C 125.917969 74.226562 126.109375 73.941406 126.484375 73.753906 L 135 68.839844 C 135.472656 68.558594 136.039062 68.464844 136.609375 68.464844 C 137.269531 68.464844 137.839844 68.558594 138.214844 68.839844 L 146.824219 73.753906 C 147.203125 73.941406 147.394531 74.226562 147.394531 74.507812 C 147.394531 74.792969 147.203125 75.074219 146.824219 75.261719 L 138.3125 80.175781 C 137.933594 80.457031 137.367188 80.550781 136.703125 80.550781 Z M 136.703125 80.550781 "/>
<path style=" stroke:none;fill-rule:nonzero;fill:rgb(26.269531%,27.059937%,36.859131%);fill-opacity:1;" d="M 151.367188 89.050781 C 150.703125 89.050781 150.136719 88.957031 149.757812 88.675781 L 141.148438 83.761719 C 140.769531 83.574219 140.582031 83.292969 140.582031 83.007812 C 140.582031 82.722656 140.769531 82.441406 141.148438 82.253906 L 149.664062 77.339844 C 150.136719 77.058594 150.703125 76.964844 151.273438 76.964844 C 151.933594 76.964844 152.5 77.058594 152.878906 77.339844 L 161.488281 82.253906 C 161.867188 82.441406 162.054688 82.722656 162.054688 83.007812 C 162.054688 83.292969 161.867188 83.574219 161.488281 83.761719 L 152.972656 88.675781 C 152.597656 88.863281 152.027344 89.050781 151.367188 89.050781 Z M 151.367188 89.050781 "/>
<path style=" stroke:none;fill-rule:nonzero;fill:rgb(26.269531%,27.059937%,36.859131%);fill-opacity:1;" d="M 54.683594 16.804688 C 54.019531 16.804688 53.453125 16.710938 53.074219 16.425781 L 44.464844 11.515625 C 44.089844 11.328125 43.898438 11.042969 43.898438 10.761719 C 43.898438 10.476562 44.089844 10.195312 44.464844 10.003906 L 52.980469 5.09375 C 53.453125 4.8125 54.019531 4.71875 54.589844 4.71875 C 55.25 4.71875 55.820312 4.8125 56.195312 5.09375 L 64.804688 10.003906 C 65.183594 10.195312 65.375 10.476562 65.375 10.761719 C 65.375 11.042969 65.183594 11.328125 64.804688 11.515625 L 56.292969 16.425781 C 55.914062 16.710938 55.347656 16.804688 54.683594 16.804688 Z M 54.683594 16.804688 "/>
<path style=" stroke:none;fill-rule:nonzero;fill:rgb(26.269531%,27.059937%,36.859131%);fill-opacity:1;" d="M 69.347656 25.304688 C 68.683594 25.304688 68.117188 25.210938 67.738281 24.925781 L 59.128906 20.015625 C 58.75 19.828125 58.5625 19.542969 58.5625 19.261719 C 58.5625 18.976562 58.75 18.695312 59.128906 18.503906 L 67.644531 13.59375 C 68.117188 13.3125 68.683594 13.214844 69.253906 13.214844 C 69.914062 13.214844 70.480469 13.3125 70.859375 13.59375 L 79.46875 18.503906 C 79.847656 18.695312 80.035156 18.976562 80.035156 19.261719 C 80.035156 19.542969 79.847656 19.828125 79.46875 20.015625 L 70.957031 24.925781 C 70.578125 25.117188 70.007812 25.304688 69.347656 25.304688 Z M 69.347656 25.304688 "/>
<path style=" stroke:none;fill-rule:nonzero;fill:rgb(26.269531%,27.059937%,36.859131%);fill-opacity:1;" d="M 84.011719 33.710938 C 83.347656 33.710938 82.78125 33.617188 82.402344 33.332031 L 73.792969 28.421875 C 73.414062 28.234375 73.226562 27.949219 73.226562 27.664062 C 73.226562 27.382812 73.414062 27.097656 73.792969 26.910156 L 82.308594 22 C 82.78125 21.714844 83.347656 21.621094 83.914062 21.621094 C 84.578125 21.621094 85.144531 21.714844 85.523438 22 L 94.132812 26.910156 C 94.511719 27.097656 94.699219 27.382812 94.699219 27.664062 C 94.699219 27.949219 94.511719 28.234375 94.132812 28.421875 L 85.617188 33.332031 C 85.238281 33.617188 84.671875 33.710938 84.011719 33.710938 Z M 84.011719 33.710938 "/>
<path style=" stroke:none;fill-rule:nonzero;fill:rgb(26.269531%,27.059937%,36.859131%);fill-opacity:1;" d="M 98.671875 42.210938 C 98.011719 42.210938 97.445312 42.113281 97.066406 41.832031 L 88.457031 36.921875 C 88.078125 36.730469 87.890625 36.449219 87.890625 36.164062 C 87.890625 35.882812 88.078125 35.597656 88.457031 35.410156 L 96.96875 30.5 C 97.445312 30.214844 98.011719 30.121094 98.578125 30.121094 C 99.242188 30.121094 99.808594 30.214844 100.1875 30.5 L 108.796875 35.410156 C 109.175781 35.597656 109.363281 35.882812 109.363281 36.164062 C 109.363281 36.449219 109.175781 36.730469 108.796875 36.921875 L 100.28125 41.832031 C 99.902344 42.113281 99.335938 42.210938 98.671875 42.210938 Z M 98.671875 42.210938 "/>
<path style=" stroke:none;fill-rule:nonzero;fill:rgb(26.269531%,27.059937%,36.859131%);fill-opacity:1;" d="M 113.335938 50.710938 C 112.675781 50.710938 112.105469 50.613281 111.726562 50.332031 L 103.121094 45.421875 C 102.742188 45.230469 102.550781 44.949219 102.550781 44.664062 C 102.550781 44.382812 102.742188 44.097656 103.121094 43.910156 L 111.632812 39 C 112.105469 38.714844 112.675781 38.621094 113.242188 38.621094 C 113.902344 38.621094 114.472656 38.714844 114.851562 39 L 123.457031 43.910156 C 123.835938 44.097656 124.027344 44.382812 124.027344 44.664062 C 124.027344 44.949219 123.835938 45.230469 123.457031 45.421875 L 114.945312 50.332031 C 114.566406 50.519531 114 50.710938 113.335938 50.710938 Z M 113.335938 50.710938 "/>
<path style=" stroke:none;fill-rule:nonzero;fill:rgb(26.269531%,27.059937%,36.859131%);fill-opacity:1;" d="M 128.09375 59.113281 C 127.433594 59.113281 126.863281 59.019531 126.484375 58.738281 L 117.878906 53.824219 C 117.5 53.636719 117.308594 53.355469 117.308594 53.070312 C 117.308594 52.785156 117.5 52.503906 117.878906 52.316406 L 126.390625 47.402344 C 126.863281 47.121094 127.433594 47.027344 128 47.027344 C 128.660156 47.027344 129.230469 47.121094 129.609375 47.402344 L 138.214844 52.316406 C 138.59375 52.503906 138.785156 52.785156 138.785156 53.070312 C 138.785156 53.355469 138.59375 53.636719 138.214844 53.824219 L 129.703125 58.738281 C 129.230469 59.019531 128.660156 59.113281 128.09375 59.113281 Z M 128.09375 59.113281 "/>
<path style=" stroke:none;fill-rule:nonzero;fill:rgb(26.269531%,27.059937%,36.859131%);fill-opacity:1;" d="M 142.757812 67.613281 C 142.09375 67.613281 141.527344 67.519531 141.148438 67.234375 L 132.539062 62.324219 C 132.164062 62.136719 131.972656 61.851562 131.972656 61.570312 C 131.972656 61.285156 132.164062 61.003906 132.539062 60.8125 L 141.054688 55.902344 C 141.527344 55.621094 142.09375 55.527344 142.664062 55.527344 C 143.324219 55.527344 143.894531 55.621094 144.269531 55.902344 L 152.878906 60.8125 C 153.257812 61.003906 153.449219 61.285156 153.449219 61.570312 C 153.449219 61.851562 153.257812 62.136719 152.878906 62.324219 L 144.367188 67.234375 C 143.988281 67.425781 143.324219 67.613281 142.757812 67.613281 Z M 142.757812 67.613281 "/>
<path style=" stroke:none;fill-rule:nonzero;fill:rgb(26.269531%,27.059937%,36.859131%);fill-opacity:1;" d="M 157.421875 76.019531 C 156.757812 76.019531 156.191406 75.925781 155.8125 75.640625 L 147.203125 70.730469 C 146.824219 70.542969 146.636719 70.257812 146.636719 69.976562 C 146.636719 69.691406 146.824219 69.410156 147.203125 69.21875 L 155.71875 64.308594 C 156.191406 64.023438 156.757812 63.929688 157.328125 63.929688 C 157.988281 63.929688 158.554688 64.023438 158.933594 64.308594 L 167.542969 69.21875 C 167.921875 69.410156 168.109375 69.691406 168.109375 69.976562 C 168.109375 70.257812 167.921875 70.542969 167.542969 70.730469 L 159.027344 75.640625 C 158.652344 75.925781 157.988281 76.019531 157.421875 76.019531 Z M 157.421875 76.019531 "/>
<path style=" stroke:none;fill-rule:nonzero;fill:rgb(26.269531%,27.059937%,36.859131%);fill-opacity:1;" d="M 172.085938 84.519531 C 171.421875 84.519531 170.855469 84.425781 170.476562 84.140625 L 161.867188 79.230469 C 161.488281 79.042969 161.300781 78.757812 161.300781 78.476562 C 161.300781 78.191406 161.488281 77.90625 161.867188 77.71875 L 170.382812 72.808594 C 170.855469 72.523438 171.421875 72.429688 171.988281 72.429688 C 172.652344 72.429688 173.21875 72.523438 173.597656 72.808594 L 182.207031 77.71875 C 182.585938 77.90625 182.773438 78.191406 182.773438 78.476562 C 182.773438 78.757812 182.585938 79.042969 182.207031 79.230469 L 173.691406 84.140625 C 173.3125 84.328125 172.746094 84.519531 172.085938 84.519531 Z M 172.085938 84.519531 "/>
<path style=" stroke:none;fill-rule:nonzero;fill:rgb(26.269531%,27.059937%,36.859131%);fill-opacity:1;" d="M 40.964844 41.832031 C 40.304688 41.832031 39.738281 41.738281 39.359375 41.453125 L 16.085938 28.042969 C 15.707031 27.855469 15.519531 27.570312 15.519531 27.289062 C 15.519531 27.003906 15.707031 26.722656 16.085938 26.53125 L 24.601562 21.621094 C 25.074219 21.339844 25.640625 21.242188 26.207031 21.242188 C 26.871094 21.242188 27.4375 21.339844 27.816406 21.621094 L 51.089844 35.03125 C 51.46875 35.222656 51.65625 35.503906 51.65625 35.789062 C 51.65625 36.070312 51.46875 36.355469 51.089844 36.542969 L 42.574219 41.453125 C 42.101562 41.644531 41.535156 41.832031 40.964844 41.832031 Z M 40.964844 41.832031 "/>
<path style=" stroke:none;fill-rule:nonzero;fill:rgb(26.269531%,27.059937%,36.859131%);fill-opacity:1;" d="M 49.007812 30.027344 C 48.34375 30.027344 47.777344 29.933594 47.398438 29.648438 L 30.183594 19.734375 C 29.804688 19.542969 29.613281 19.261719 29.613281 18.976562 C 29.613281 18.695312 29.804688 18.410156 30.183594 18.222656 L 38.695312 13.3125 C 39.167969 13.027344 39.738281 12.933594 40.304688 12.933594 C 40.964844 12.933594 41.535156 13.027344 41.914062 13.3125 L 59.128906 23.226562 C 59.507812 23.417969 59.699219 23.699219 59.699219 23.984375 C 59.699219 24.265625 59.507812 24.550781 59.128906 24.738281 L 50.617188 29.648438 C 50.238281 29.933594 49.667969 30.027344 49.007812 30.027344 Z M 49.007812 30.027344 "/>
<path style=" stroke:none;fill-rule:nonzero;fill:rgb(26.269531%,27.059937%,36.859131%);fill-opacity:1;" d="M 166.503906 114.457031 C 165.839844 114.457031 165.273438 114.363281 164.894531 114.078125 L 147.675781 104.164062 C 147.296875 103.972656 147.109375 103.691406 147.109375 103.40625 C 147.109375 103.125 147.296875 102.839844 147.675781 102.652344 L 156.191406 97.742188 C 156.664062 97.457031 157.230469 97.363281 157.800781 97.363281 C 158.460938 97.363281 159.027344 97.457031 159.40625 97.742188 L 176.625 107.65625 C 177.003906 107.84375 177.191406 108.128906 177.191406 108.410156 C 177.191406 108.695312 177.003906 108.980469 176.625 109.167969 L 168.109375 114.078125 C 167.730469 114.265625 167.164062 114.457031 166.503906 114.457031 Z M 166.503906 114.457031 "/>
<path style=" stroke:none;fill-rule:nonzero;fill:rgb(26.269531%,27.059937%,36.859131%);fill-opacity:1;" d="M 180.789062 105.957031 C 180.125 105.957031 179.558594 105.863281 179.179688 105.578125 L 155.90625 92.167969 C 155.527344 91.980469 155.339844 91.695312 155.339844 91.414062 C 155.339844 91.128906 155.527344 90.847656 155.90625 90.65625 L 164.421875 85.746094 C 164.894531 85.464844 165.460938 85.367188 166.03125 85.367188 C 166.691406 85.367188 167.257812 85.464844 167.636719 85.746094 L 190.910156 99.15625 C 191.289062 99.347656 191.476562 99.628906 191.476562 99.914062 C 191.476562 100.195312 191.289062 100.480469 190.910156 100.667969 L 182.394531 105.578125 C 181.921875 105.769531 181.355469 105.957031 180.789062 105.957031 Z M 180.789062 105.957031 "/>
<path style=" stroke:none;fill-rule:nonzero;fill:rgb(26.269531%,27.059937%,36.859131%);fill-opacity:1;" d="M 195.355469 97.929688 C 194.695312 97.929688 194.125 97.835938 193.746094 97.550781 L 176.53125 87.636719 C 176.152344 87.445312 175.960938 87.164062 175.960938 86.878906 C 175.960938 86.597656 176.152344 86.3125 176.53125 86.125 L 185.042969 81.214844 C 185.515625 80.929688 186.085938 80.835938 186.652344 80.835938 C 187.316406 80.835938 187.882812 80.929688 188.261719 81.214844 L 205.476562 91.128906 C 205.855469 91.320312 206.046875 91.601562 206.046875 91.886719 C 206.046875 92.167969 205.855469 92.453125 205.476562 92.640625 L 196.964844 97.550781 C 196.585938 97.742188 195.921875 97.929688 195.355469 97.929688 Z M 195.355469 97.929688 "/>
</g>
<mask id="mask1">
  <g filter="url(#alpha)">
<rect x="0" y="0" width="375" height="374.999991" style="fill:rgb(0%,0%,0%);fill-opacity:0.098;stroke:none;"/>
  </g>
</mask>
<clipPath id="clip4">
  <path d="M 36 0.078125 L 43 0.078125 L 43 9 L 36 9 Z M 36 0.078125 "/>
</clipPath>
<clipPath id="clip3">
  <rect x="0" y="0" width="104" height="136"/>
</clipPath>
<g id="surface8" clip-path="url(#clip3)">
<path style=" stroke:none;fill-rule:nonzero;fill:rgb(89.408875%,88.238525%,97.648621%);fill-opacity:1;" d="M 31.824219 33.832031 L 29.839844 39.402344 L 25.582031 36.851562 L 27.570312 31.375 Z M 31.824219 33.832031 "/>
<path style=" stroke:none;fill-rule:nonzero;fill:rgb(89.408875%,88.238525%,97.648621%);fill-opacity:1;" d="M 34.570312 26.183594 L 32.582031 31.660156 L 28.324219 29.203125 L 30.21875 23.726562 Z M 34.570312 26.183594 "/>
<path style=" stroke:none;fill-rule:nonzero;fill:rgb(89.408875%,88.238525%,97.648621%);fill-opacity:1;" d="M 37.21875 18.4375 L 35.324219 24.007812 L 30.972656 21.554688 L 32.960938 15.980469 Z M 37.21875 18.4375 "/>
<path style=" stroke:none;fill-rule:nonzero;fill:rgb(89.408875%,88.238525%,97.648621%);fill-opacity:1;" d="M 39.960938 10.789062 L 37.972656 16.359375 L 33.71875 13.808594 L 35.703125 8.332031 Z M 39.960938 10.789062 "/>
<g clip-path="url(#clip4)" clip-rule="nonzero">
<path style=" stroke:none;fill-rule:nonzero;fill:rgb(89.408875%,88.238525%,97.648621%);fill-opacity:1;" d="M 42.703125 3.136719 L 40.71875 8.617188 L 36.460938 6.160156 L 38.351562 0.589844 Z M 42.703125 3.136719 "/>
</g>
<path style=" stroke:none;fill-rule:nonzero;fill:rgb(89.408875%,88.238525%,97.648621%);fill-opacity:1;" d="M 29.082031 41.480469 L 27.191406 47.054688 L 22.839844 44.597656 L 24.824219 39.027344 Z M 29.082031 41.480469 "/>
<path style=" stroke:none;fill-rule:nonzero;fill:rgb(89.408875%,88.238525%,97.648621%);fill-opacity:1;" d="M 20.945312 64.523438 L 18.960938 70.097656 L 14.703125 67.640625 L 16.6875 62.070312 Z M 20.945312 64.523438 "/>
<path style=" stroke:none;fill-rule:nonzero;fill:rgb(89.408875%,88.238525%,97.648621%);fill-opacity:1;" d="M 23.691406 56.875 L 21.703125 62.445312 L 17.445312 59.898438 L 19.339844 54.417969 Z M 23.691406 56.875 "/>
<path style=" stroke:none;fill-rule:nonzero;fill:rgb(89.408875%,88.238525%,97.648621%);fill-opacity:1;" d="M 26.433594 49.226562 L 24.445312 54.703125 L 20.09375 52.246094 L 22.082031 46.769531 Z M 26.433594 49.226562 "/>
<path style=" stroke:none;fill-rule:nonzero;fill:rgb(89.408875%,88.238525%,97.648621%);fill-opacity:1;" d="M 12.808594 87.566406 L 10.824219 93.140625 L 6.566406 90.683594 L 8.554688 85.113281 Z M 12.808594 87.566406 "/>
<path style=" stroke:none;fill-rule:nonzero;fill:rgb(89.408875%,88.238525%,97.648621%);fill-opacity:1;" d="M 15.554688 79.917969 L 13.566406 85.488281 L 9.308594 82.941406 L 11.203125 77.460938 Z M 15.554688 79.917969 "/>
<path style=" stroke:none;fill-rule:nonzero;fill:rgb(89.408875%,88.238525%,97.648621%);fill-opacity:1;" d="M 18.203125 72.269531 L 16.3125 77.746094 L 11.960938 75.289062 L 13.945312 69.8125 Z M 18.203125 72.269531 "/>
<path style=" stroke:none;fill-rule:nonzero;fill:rgb(89.408875%,88.238525%,97.648621%);fill-opacity:1;" d="M 7.417969 102.960938 L 5.429688 108.535156 L 1.078125 105.984375 L 3.066406 100.507812 Z M 7.417969 102.960938 "/>
<path style=" stroke:none;fill-rule:nonzero;fill:rgb(89.408875%,88.238525%,97.648621%);fill-opacity:1;" d="M 10.066406 95.3125 L 8.175781 100.789062 L 3.824219 98.332031 L 5.808594 92.855469 Z M 10.066406 95.3125 "/>
<path style=" stroke:none;fill-rule:nonzero;fill:rgb(89.408875%,88.238525%,97.648621%);fill-opacity:1;" d="M 89.4375 39.96875 L 87.449219 45.449219 L 42.988281 19.855469 L 44.976562 14.28125 Z M 89.4375 39.96875 "/>
<path style=" stroke:none;fill-rule:nonzero;fill:rgb(89.408875%,88.238525%,97.648621%);fill-opacity:1;" d="M 50.839844 26.9375 L 48.855469 32.507812 L 40.246094 27.503906 L 42.230469 22.027344 Z M 50.839844 26.9375 "/>
<path style=" stroke:none;fill-rule:nonzero;fill:rgb(89.408875%,88.238525%,97.648621%);fill-opacity:1;" d="M 83.476562 27.316406 L 81.585938 32.792969 L 45.730469 12.203125 L 47.625 6.632812 Z M 83.476562 27.316406 "/>
<path style=" stroke:none;fill-rule:nonzero;fill:rgb(89.408875%,88.238525%,97.648621%);fill-opacity:1;" d="M 88.300781 57.820312 L 86.316406 63.296875 L 41.851562 37.703125 L 43.839844 32.132812 Z M 88.300781 57.820312 "/>
<path style=" stroke:none;fill-rule:nonzero;fill:rgb(89.408875%,88.238525%,97.648621%);fill-opacity:1;" d="M 39.960938 57.726562 L 37.972656 63.203125 L 29.367188 58.292969 L 31.351562 52.71875 Z M 39.960938 57.726562 "/>
<path style=" stroke:none;fill-rule:nonzero;fill:rgb(89.408875%,88.238525%,97.648621%);fill-opacity:1;" d="M 60.207031 78.597656 L 58.21875 84.167969 L 26.71875 65.941406 L 28.609375 60.367188 Z M 60.207031 78.597656 "/>
<path style=" stroke:none;fill-rule:nonzero;fill:rgb(89.408875%,88.238525%,97.648621%);fill-opacity:1;" d="M 95.777344 80.578125 L 93.789062 86.152344 L 36.460938 53.097656 L 38.351562 47.523438 Z M 95.777344 80.578125 "/>
<path style=" stroke:none;fill-rule:nonzero;fill:rgb(89.408875%,88.238525%,97.648621%);fill-opacity:1;" d="M 102.777344 75.386719 L 100.789062 80.957031 L 39.109375 45.351562 L 41.097656 39.875 Z M 102.777344 75.386719 "/>
<path style=" stroke:none;fill-rule:nonzero;fill:rgb(89.408875%,88.238525%,97.648621%);fill-opacity:1;" d="M 53.679688 111.839844 L 51.691406 117.316406 L 24.445312 101.640625 L 26.339844 96.066406 Z M 53.679688 111.839844 "/>
<path style=" stroke:none;fill-rule:nonzero;fill:rgb(89.408875%,88.238525%,97.648621%);fill-opacity:1;" d="M 63.800781 126.949219 L 61.910156 132.425781 L 21.703125 109.289062 L 23.691406 103.8125 Z M 63.800781 126.949219 "/>
<path style=" stroke:none;fill-rule:nonzero;fill:rgb(89.408875%,88.238525%,97.648621%);fill-opacity:1;" d="M 87.640625 103.621094 L 85.652344 109.195312 L 28.230469 76.140625 L 30.21875 70.570312 Z M 87.640625 103.621094 "/>
<path style=" stroke:none;fill-rule:nonzero;fill:rgb(89.408875%,88.238525%,97.648621%);fill-opacity:1;" d="M 89.152344 113.820312 L 87.261719 119.300781 L 25.582031 83.789062 L 27.472656 78.21875 Z M 89.152344 113.820312 "/>
<path style=" stroke:none;fill-rule:nonzero;fill:rgb(89.408875%,88.238525%,97.648621%);fill-opacity:1;" d="M 99.371094 128.933594 L 97.382812 134.410156 L 22.839844 91.441406 L 24.824219 85.960938 Z M 99.371094 128.933594 "/>
<path style=" stroke:none;fill-rule:nonzero;fill:rgb(89.408875%,88.238525%,97.648621%);fill-opacity:1;" d="M 25.296875 113.917969 L 23.3125 119.488281 L 14.703125 114.484375 L 16.6875 109.003906 Z M 25.296875 113.917969 "/>
</g>
</defs>
<g id="surface1">
<rect x="0" y="0" width="375" height="374.999991" style="fill:rgb(100%,100%,100%);fill-opacity:1;stroke:none;"/>
<rect x="0" y="0" width="375" height="374.999991" style="fill:rgb(100%,100%,100%);fill-opacity:1;stroke:none;"/>
<rect x="0" y="0" width="375" height="374.999991" style="fill:rgb(77.648926%,54.508972%,34.899902%);fill-opacity:1;stroke:none;"/>
<g clip-path="url(#clip1)" clip-rule="nonzero">
<path style=" stroke:none;fill-rule:nonzero;fill:rgb(26.269531%,27.059937%,36.859131%);fill-opacity:0.0471;" d="M 187.878906 297.289062 C 190.433594 299.082031 193.742188 302.953125 195.351562 307.582031 C 196.296875 310.320312 196.296875 312.019531 196.203125 312.589844 C 196.015625 315.703125 194.40625 316.835938 192.890625 319.859375 C 191.472656 322.691406 191.851562 323.730469 191.566406 327.132812 C 191.378906 328.925781 191.1875 330.25 190.621094 332.796875 C 189.863281 336.007812 189.296875 336.671875 187.878906 341.488281 C 187.5 342.714844 187.214844 343.753906 187.121094 344.320312 C 186.742188 346.679688 186.269531 349.136719 185.890625 351.496094 C 175.390625 349.796875 164.890625 348.003906 154.390625 346.304688 C 155.523438 341.296875 156.753906 336.292969 157.890625 331.285156 C 155.523438 333.742188 153.445312 335.726562 151.835938 337.140625 C 146.160156 342.242188 143.984375 342.996094 141.902344 342.996094 C 141.144531 342.996094 138.96875 342.996094 138.496094 341.957031 C 137.738281 340.164062 143.890625 337.238281 151.078125 329.304688 C 154.292969 325.714844 155.242188 323.921875 155.808594 322.789062 C 157.699219 318.632812 157.699219 314.761719 157.511719 312.210938 C 158.171875 309.847656 158.742188 307.488281 159.402344 305.128906 C 168.957031 295.210938 181.539062 292.945312 187.878906 297.289062 Z M 187.878906 297.289062 "/>
</g>
<path style=" stroke:none;fill-rule:nonzero;fill:rgb(26.269531%,27.059937%,36.859131%);fill-opacity:0.0471;" d="M 371.214844 219.28125 L 195.636719 119.550781 L 142.847656 175.839844 L 123.265625 164.507812 C 120.144531 162.710938 115.035156 162.710938 111.820312 164.507812 L 12.769531 222.019531 C 12.582031 222.113281 12.394531 222.304688 12.203125 222.398438 L 9.554688 223.34375 L 10.59375 225.988281 C 10.691406 226.175781 10.691406 226.457031 10.878906 226.648438 C 11.257812 227.402344 11.917969 228.0625 12.867188 228.628906 L 173.878906 321.371094 C 177 323.164062 182.109375 323.164062 185.324219 321.371094 L 284.371094 263.855469 C 285.789062 263.007812 286.546875 261.96875 286.738281 260.929688 L 370.554688 228.535156 C 374.527344 227.023438 375 221.453125 371.214844 219.28125 Z M 371.214844 219.28125 "/>
<path style=" stroke:none;fill-rule:nonzero;fill:rgb(26.269531%,27.059937%,36.859131%);fill-opacity:1;" d="M 285.507812 252.902344 C 285.601562 251.578125 9.269531 216.070312 9.269531 217.296875 L 9.269531 222.207031 C 9.269531 223.4375 10.027344 224.570312 11.636719 225.515625 L 172.648438 318.347656 C 175.769531 320.144531 180.878906 320.144531 184.09375 318.347656 L 283.140625 260.835938 C 284.75 259.890625 285.507812 258.757812 285.507812 257.53125 L 285.507812 252.617188 C 285.601562 252.714844 285.507812 252.808594 285.507812 252.902344 Z M 285.507812 252.902344 "/>
<path style=" stroke:none;fill-rule:nonzero;fill:rgb(89.408875%,88.238525%,97.648621%);fill-opacity:1;" d="M 283.140625 249.3125 C 286.265625 251.109375 286.359375 254.128906 283.140625 255.925781 L 184.09375 313.4375 C 180.972656 315.230469 175.863281 315.230469 172.648438 313.4375 L 11.636719 220.601562 C 8.515625 218.808594 8.417969 215.785156 11.636719 213.992188 L 110.683594 156.480469 C 113.804688 154.683594 118.914062 154.683594 122.128906 156.480469 Z M 283.140625 249.3125 "/>
<path style=" stroke:none;fill-rule:nonzero;fill:rgb(27.449036%,30.589294%,67.059326%);fill-opacity:1;" d="M 154.769531 259.605469 C 156.753906 260.742188 156.753906 262.628906 154.769531 263.761719 L 128.65625 278.871094 C 126.671875 280.007812 123.453125 280.007812 121.5625 278.871094 L 64.707031 246.101562 C 62.722656 244.96875 62.722656 243.082031 64.707031 241.945312 L 90.816406 226.835938 C 92.804688 225.703125 96.019531 225.703125 97.914062 226.835938 Z M 154.769531 259.605469 "/>
<use xlink:href="#surface5" transform="matrix(1,0,0,1,56,163)" mask="url(#mask0)"/>
<path style=" stroke:none;fill-rule:nonzero;fill:rgb(89.408875%,88.238525%,97.648621%);fill-opacity:1;" d="M 332.808594 117.570312 L 171.703125 24.734375 C 170.851562 24.261719 170 24.074219 169.148438 23.980469 L 166.59375 23.980469 C 164.132812 23.980469 162.429688 26.246094 161.296875 29.269531 L 283.332031 249.597656 C 284.277344 250.164062 285.316406 250.351562 286.359375 250.257812 C 286.167969 250.257812 286.074219 250.257812 285.886719 250.257812 L 288.441406 250.257812 C 290.898438 250.257812 293.167969 248.464844 294.210938 245.535156 L 335.742188 128.148438 C 337.347656 124.179688 335.929688 119.363281 332.808594 117.570312 Z M 332.808594 117.570312 "/>
<path style=" stroke:none;fill-rule:nonzero;fill:rgb(26.269531%,27.059937%,36.859131%);fill-opacity:1;" d="M 330.253906 117.570312 C 333.375 119.363281 334.792969 124.179688 333.375 128.242188 L 291.84375 245.628906 C 290.425781 249.691406 286.640625 251.484375 283.519531 249.691406 L 122.507812 156.855469 C 119.386719 155.0625 117.96875 150.246094 119.386719 146.183594 L 160.917969 28.796875 C 162.335938 24.734375 166.121094 22.941406 169.242188 24.734375 Z M 330.253906 117.570312 "/>
<path style=" stroke:none;fill-rule:nonzero;fill:rgb(27.449036%,30.589294%,67.059326%);fill-opacity:1;" d="M 325.808594 124.9375 L 285.601562 238.640625 L 127.429688 147.507812 L 167.632812 33.707031 Z M 325.808594 124.9375 "/>
<path style=" stroke:none;fill-rule:nonzero;fill:rgb(26.269531%,27.059937%,36.859131%);fill-opacity:0.2;" d="M 330.160156 124.464844 L 288.15625 243.175781 L 123.078125 147.980469 Z M 330.160156 124.464844 "/>
<use xlink:href="#surface8" transform="matrix(1,0,0,1,171,64)" mask="url(#mask1)"/>
<path style=" stroke:none;fill-rule:nonzero;fill:rgb(89.408875%,88.238525%,97.648621%);fill-opacity:1;" d="M 169.714844 65.0625 L 169.621094 69.972656 L 165.363281 67.515625 L 165.363281 62.605469 Z M 169.714844 65.0625 "/>
<path style=" stroke:none;fill-rule:nonzero;fill:rgb(89.408875%,88.238525%,97.648621%);fill-opacity:1;" d="M 169.621094 78.753906 L 169.621094 83.761719 L 165.363281 81.210938 L 165.363281 76.300781 Z M 169.621094 78.753906 "/>
<path style=" stroke:none;fill-rule:nonzero;fill:rgb(89.408875%,88.238525%,97.648621%);fill-opacity:1;" d="M 169.621094 71.953125 L 169.621094 76.867188 L 165.363281 74.410156 L 165.363281 69.40625 Z M 169.621094 71.953125 "/>
<path style=" stroke:none;fill-rule:nonzero;fill:rgb(89.408875%,88.238525%,97.648621%);fill-opacity:1;" d="M 169.527344 106.238281 L 169.527344 111.148438 L 165.269531 108.691406 L 165.269531 103.78125 Z M 169.527344 106.238281 "/>
<path style=" stroke:none;fill-rule:nonzero;fill:rgb(89.408875%,88.238525%,97.648621%);fill-opacity:1;" d="M 169.621094 99.34375 L 169.527344 104.347656 L 165.269531 101.796875 L 165.269531 96.886719 Z M 169.621094 99.34375 "/>
<path style=" stroke:none;fill-rule:nonzero;fill:rgb(89.408875%,88.238525%,97.648621%);fill-opacity:1;" d="M 169.621094 92.542969 L 169.621094 97.453125 L 165.269531 95 L 165.269531 90.085938 Z M 169.621094 92.542969 "/>
<path style=" stroke:none;fill-rule:nonzero;fill:rgb(89.408875%,88.238525%,97.648621%);fill-opacity:1;" d="M 169.621094 85.648438 L 169.621094 90.558594 L 165.269531 88.105469 L 165.363281 83.191406 Z M 169.621094 85.648438 "/>
<path style=" stroke:none;fill-rule:nonzero;fill:rgb(89.408875%,88.238525%,97.648621%);fill-opacity:1;" d="M 169.527344 113.128906 L 169.527344 118.042969 L 165.269531 115.585938 L 165.269531 110.675781 Z M 169.527344 113.128906 "/>
<path style=" stroke:none;fill-rule:nonzero;fill:rgb(89.408875%,88.238525%,97.648621%);fill-opacity:1;" d="M 169.429688 147.414062 L 169.429688 152.324219 L 165.175781 149.867188 L 165.175781 144.957031 Z M 169.429688 147.414062 "/>
<path style=" stroke:none;fill-rule:nonzero;fill:rgb(89.408875%,88.238525%,97.648621%);fill-opacity:1;" d="M 169.429688 140.613281 L 169.429688 145.523438 L 165.175781 143.066406 L 165.175781 138.0625 Z M 169.429688 140.613281 "/>
<path style=" stroke:none;fill-rule:nonzero;fill:rgb(89.408875%,88.238525%,97.648621%);fill-opacity:1;" d="M 169.527344 133.71875 L 169.429688 138.628906 L 165.175781 136.175781 L 165.175781 131.261719 Z M 169.527344 133.71875 "/>
<path style=" stroke:none;fill-rule:nonzero;fill:rgb(89.408875%,88.238525%,97.648621%);fill-opacity:1;" d="M 169.527344 126.824219 L 169.527344 131.734375 L 165.175781 129.28125 L 165.175781 124.367188 Z M 169.527344 126.824219 "/>
<path style=" stroke:none;fill-rule:nonzero;fill:rgb(89.408875%,88.238525%,97.648621%);fill-opacity:1;" d="M 169.527344 119.929688 L 169.527344 124.9375 L 165.175781 122.386719 L 165.269531 117.476562 Z M 169.527344 119.929688 "/>
<path style=" stroke:none;fill-rule:nonzero;fill:rgb(89.408875%,88.238525%,97.648621%);fill-opacity:1;" d="M 169.429688 154.304688 L 169.429688 159.21875 L 165.078125 156.761719 L 165.175781 151.851562 Z M 169.429688 154.304688 "/>
<path style=" stroke:none;fill-rule:nonzero;fill:rgb(99.609375%,78.819275%,71.759033%);fill-opacity:1;" d="M 183.433594 87.253906 L 183.433594 92.164062 L 174.824219 87.160156 L 174.824219 82.25 Z M 183.433594 87.253906 "/>
<path style=" stroke:none;fill-rule:nonzero;fill:rgb(99.609375%,78.819275%,71.759033%);fill-opacity:1;" d="M 187.5 165.167969 L 187.5 170.171875 L 178.890625 165.167969 L 178.890625 160.257812 Z M 187.5 165.167969 "/>
<path style=" stroke:none;fill-rule:nonzero;fill:rgb(99.609375%,78.819275%,71.759033%);fill-opacity:1;" d="M 210.488281 164.695312 L 210.488281 169.605469 L 183.242188 153.929688 L 183.242188 149.019531 Z M 210.488281 164.695312 "/>
<path style=" stroke:none;fill-rule:nonzero;fill:rgb(99.609375%,78.819275%,71.759033%);fill-opacity:1;" d="M 183.335938 114.640625 L 183.335938 119.648438 L 174.730469 114.640625 L 174.730469 109.730469 Z M 183.335938 114.640625 "/>
<path style=" stroke:none;fill-rule:nonzero;fill:rgb(89.408875%,88.238525%,97.648621%);fill-opacity:1;" d="M 223.355469 179.050781 L 223.355469 183.960938 L 183.242188 160.824219 L 183.242188 155.816406 Z M 223.355469 179.050781 "/>
<path style=" stroke:none;fill-rule:nonzero;fill:rgb(99.609375%,78.819275%,71.759033%);fill-opacity:1;" d="M 206.230469 134.757812 L 206.230469 139.667969 L 174.730469 121.535156 L 174.730469 116.625 Z M 206.230469 134.757812 "/>
<path style=" stroke:none;fill-rule:nonzero;fill:rgb(99.609375%,78.819275%,71.759033%);fill-opacity:1;" d="M 240.664062 168.378906 L 240.664062 173.289062 L 178.984375 137.683594 L 178.984375 132.773438 Z M 240.664062 168.378906 "/>
<path style=" stroke:none;fill-rule:nonzero;fill:rgb(89.408875%,88.238525%,97.648621%);fill-opacity:1;" d="M 236.410156 159.027344 L 236.3125 163.9375 L 178.984375 130.886719 L 178.984375 125.878906 Z M 236.410156 159.027344 "/>
<path style=" stroke:none;fill-rule:nonzero;fill:rgb(89.408875%,88.238525%,97.648621%);fill-opacity:1;" d="M 253.53125 182.636719 L 253.53125 187.550781 L 178.890625 144.578125 L 178.984375 139.667969 Z M 253.53125 182.636719 "/>
<path style=" stroke:none;fill-rule:nonzero;fill:rgb(99.609375%,78.819275%,71.759033%);fill-opacity:1;" d="M 223.542969 117.191406 L 223.542969 122.195312 L 179.082031 96.507812 L 179.082031 91.597656 Z M 223.542969 117.191406 "/>
<path style=" stroke:none;fill-rule:nonzero;fill:rgb(99.609375%,78.819275%,71.759033%);fill-opacity:1;" d="M 236.410156 138.441406 L 236.410156 143.351562 L 179.082031 110.296875 L 179.082031 105.292969 Z M 236.410156 138.441406 "/>
<path style=" stroke:none;fill-rule:nonzero;fill:rgb(89.408875%,88.238525%,97.648621%);fill-opacity:1;" d="M 240.761719 134 L 240.761719 138.914062 L 179.082031 103.402344 L 179.082031 98.492188 Z M 240.761719 134 "/>
<path style=" stroke:none;fill-rule:nonzero;fill:rgb(89.408875%,88.238525%,97.648621%);fill-opacity:1;" d="M 219.285156 101.042969 L 219.285156 105.953125 L 174.824219 80.359375 L 174.824219 75.355469 Z M 219.285156 101.042969 "/>
<path style=" stroke:none;fill-rule:nonzero;fill:rgb(99.609375%,78.819275%,71.759033%);fill-opacity:1;" d="M 210.675781 89.238281 L 210.675781 94.148438 L 174.824219 73.464844 L 174.824219 68.554688 Z M 210.675781 89.238281 "/>
<path style=" stroke:none;fill-rule:nonzero;fill:rgb(26.269531%,27.059937%,36.859131%);fill-opacity:0.0471;" d="M 351.351562 294.078125 L 346.808594 291.433594 C 347.1875 291.339844 347.566406 291.246094 347.945312 291.054688 C 349.171875 290.300781 349.171875 289.167969 347.945312 288.503906 L 308.402344 265.367188 C 307.550781 264.894531 306.320312 264.707031 305.183594 264.894531 L 305.089844 264.894531 C 304.996094 264.894531 304.898438 264.894531 304.804688 264.988281 L 302.722656 265.460938 L 302.535156 265.460938 C 302.25 265.558594 301.875 265.652344 301.683594 265.839844 C 300.453125 266.59375 300.453125 267.730469 301.683594 268.390625 L 341.226562 291.433594 C 342.078125 291.90625 343.402344 292.09375 344.445312 291.90625 L 350.5 295.398438 C 352.011719 296.25 352.863281 297.855469 352.957031 299.554688 C 352.957031 301.253906 352.105469 302.859375 350.6875 303.804688 L 346.996094 306.070312 C 341.890625 309.28125 335.457031 309.378906 330.160156 306.355469 L 279.261719 276.984375 L 280.683594 276.132812 C 281.816406 275.472656 281.816406 274.433594 280.683594 273.773438 L 271.882812 268.671875 L 263.371094 273.585938 L 272.167969 278.683594 C 273.304688 279.34375 275.101562 279.34375 276.234375 278.683594 L 277.464844 277.929688 L 329.214844 307.867188 C 332.050781 309.472656 335.171875 310.320312 338.292969 310.320312 C 341.605469 310.320312 344.917969 309.378906 347.847656 307.582031 L 351.539062 305.316406 C 353.527344 304.089844 354.660156 301.917969 354.660156 299.648438 C 354.566406 297.289062 353.335938 295.210938 351.351562 294.078125 Z M 351.351562 294.078125 "/>
<path style=" stroke:none;fill-rule:nonzero;fill:rgb(89.408875%,88.238525%,97.648621%);fill-opacity:1;" d="M 340.753906 191.136719 L 312.753906 174.988281 C 311.710938 174.421875 310.859375 174.234375 310.101562 174.234375 C 309.253906 174.234375 308.683594 174.515625 308.304688 174.707031 L 308.023438 174.894531 C 307.925781 174.988281 307.832031 174.988281 307.832031 175.082031 C 306.226562 176.214844 306.226562 178.105469 306.128906 178.859375 L 305.941406 254.886719 C 305.941406 256.207031 306.320312 257.8125 307.171875 259.417969 C 308.023438 260.929688 309.253906 262.441406 310.953125 263.480469 L 338.957031 279.628906 C 341.320312 280.949219 342.835938 280.195312 343.308594 280.007812 L 343.402344 279.910156 L 343.59375 279.816406 C 343.6875 279.722656 343.78125 279.628906 343.875 279.628906 C 345.296875 278.496094 345.390625 276.699219 345.390625 275.945312 L 345.578125 199.921875 C 345.671875 196.992188 344.160156 193.214844 340.753906 191.136719 Z M 340.753906 191.136719 "/>
<path style=" stroke:none;fill-rule:nonzero;fill:rgb(26.269531%,27.059937%,36.859131%);fill-opacity:1;" d="M 338.390625 194.160156 C 340.28125 195.199219 341.699219 197.84375 341.699219 199.921875 L 341.511719 274.054688 C 341.511719 276.132812 339.996094 276.984375 338.199219 275.945312 L 310.199219 259.796875 C 308.304688 258.757812 306.886719 256.113281 306.886719 254.035156 L 307.074219 179.898438 C 307.074219 177.820312 308.589844 176.878906 310.386719 178.011719 L 314.265625 180.277344 C 314.832031 180.5625 315.210938 181.316406 315.210938 181.882812 L 315.210938 182.734375 C 315.210938 183.960938 316.0625 185.378906 317.105469 186.039062 L 331.578125 194.347656 C 332.617188 194.914062 333.46875 194.445312 333.46875 193.214844 L 333.46875 192.367188 C 333.46875 191.800781 333.941406 191.515625 334.414062 191.800781 Z M 338.390625 194.160156 "/>
<path style=" stroke:none;fill-rule:nonzero;fill:rgb(26.269531%,27.059937%,36.859131%);fill-opacity:0.498;" d="M 329.117188 189.53125 C 329.402344 189.722656 329.6875 190.195312 329.6875 190.476562 C 329.6875 190.855469 329.402344 190.949219 329.117188 190.761719 L 319.46875 185.1875 C 319.183594 185 318.902344 184.527344 318.902344 184.242188 C 318.902344 183.867188 319.183594 183.773438 319.46875 183.960938 Z M 329.117188 189.53125 "/>
<path style=" stroke:none;fill-rule:nonzero;fill:rgb(99.609375%,78.819275%,71.759033%);fill-opacity:1;" d="M 318.902344 251.011719 L 318.902344 259.605469 L 308.496094 253.5625 L 308.496094 244.96875 Z M 318.902344 251.011719 "/>
<path style=" stroke:none;fill-rule:nonzero;fill:rgb(99.609375%,78.819275%,71.759033%);fill-opacity:1;" d="M 318.902344 239.773438 L 318.902344 248.367188 L 308.496094 242.324219 L 308.496094 233.730469 Z M 318.902344 239.773438 "/>
<path style=" stroke:none;fill-rule:nonzero;fill:rgb(89.408875%,88.238525%,97.648621%);fill-opacity:1;" d="M 335.457031 231.746094 L 335.457031 234.582031 L 312.375 221.265625 L 312.375 218.429688 Z M 335.457031 231.746094 "/>
<path style=" stroke:none;fill-rule:nonzero;fill:rgb(98.81897%,31.759644%,20.779419%);fill-opacity:1;" d="M 330.160156 234.484375 L 330.160156 240.058594 L 317.578125 232.878906 L 317.578125 227.214844 Z M 330.160156 234.484375 "/>
<path style=" stroke:none;fill-rule:nonzero;fill:rgb(89.408875%,88.238525%,97.648621%);fill-opacity:1;" d="M 337.917969 228.253906 L 337.917969 231.085938 L 309.914062 215.03125 L 309.914062 212.105469 Z M 337.917969 228.253906 "/>
<path style=" stroke:none;fill-rule:nonzero;fill:rgb(89.408875%,88.238525%,97.648621%);fill-opacity:1;" d="M 337.253906 218.714844 L 337.253906 220.792969 L 320.320312 210.96875 L 320.320312 208.988281 Z M 337.253906 218.714844 "/>
<path style=" stroke:none;fill-rule:nonzero;fill:rgb(89.408875%,88.238525%,97.648621%);fill-opacity:1;" d="M 335.550781 214.277344 L 335.550781 216.355469 L 320.320312 207.570312 L 320.320312 205.492188 Z M 335.550781 214.277344 "/>
<path style=" stroke:none;fill-rule:nonzero;fill:rgb(89.408875%,88.238525%,97.648621%);fill-opacity:1;" d="M 339.050781 212.859375 L 339.050781 214.9375 L 320.320312 204.078125 L 320.320312 202.09375 Z M 339.050781 212.859375 "/>
<path style=" stroke:none;fill-rule:nonzero;fill:rgb(89.408875%,88.238525%,97.648621%);fill-opacity:1;" d="M 322.023438 192.648438 L 322.023438 195.011719 L 308.402344 187.171875 L 308.402344 184.714844 Z M 322.023438 192.648438 "/>
<path style=" stroke:none;fill-rule:nonzero;fill:rgb(27.449036%,30.589294%,67.059326%);fill-opacity:1;" d="M 312.941406 197.085938 C 315.402344 198.503906 317.386719 202 317.386719 204.832031 C 317.386719 207.664062 315.402344 208.796875 312.847656 207.382812 C 310.386719 205.964844 308.402344 202.472656 308.402344 199.636719 C 308.402344 196.804688 310.386719 195.671875 312.941406 197.085938 Z M 312.941406 197.085938 "/>
<path style=" stroke:none;fill-rule:nonzero;fill:rgb(89.408875%,88.238525%,97.648621%);fill-opacity:1;" d="M 339.050781 204.171875 L 339.050781 205.113281 L 334.226562 202.375 L 334.320312 201.335938 Z M 339.050781 204.171875 "/>
<path style=" stroke:none;fill-rule:nonzero;fill:rgb(89.408875%,88.238525%,97.648621%);fill-opacity:1;" d="M 339.144531 202.09375 L 339.050781 203.132812 L 334.320312 200.394531 L 334.320312 199.355469 Z M 339.144531 202.09375 "/>
<path style=" stroke:none;fill-rule:nonzero;fill:rgb(89.408875%,88.238525%,97.648621%);fill-opacity:1;" d="M 331.957031 252.335938 L 331.957031 254.414062 L 320.414062 247.800781 L 320.414062 245.628906 Z M 331.957031 252.335938 "/>
<path style=" stroke:none;fill-rule:nonzero;fill:rgb(89.408875%,88.238525%,97.648621%);fill-opacity:1;" d="M 338.105469 252.242188 L 338.105469 254.414062 L 320.414062 244.214844 L 320.414062 242.042969 Z M 338.105469 252.242188 "/>
<path style=" stroke:none;fill-rule:nonzero;fill:rgb(89.408875%,88.238525%,97.648621%);fill-opacity:1;" d="M 333.660156 264.519531 L 333.660156 266.691406 L 320.414062 259.039062 L 320.414062 256.867188 Z M 333.660156 264.519531 "/>
<path style=" stroke:none;fill-rule:nonzero;fill:rgb(89.408875%,88.238525%,97.648621%);fill-opacity:1;" d="M 328.929688 258.191406 L 328.929688 260.269531 L 320.414062 255.355469 L 320.414062 253.28125 Z M 328.929688 258.191406 "/>
<path style=" stroke:none;fill-rule:nonzero;fill:rgb(26.269531%,27.059937%,36.859131%);fill-opacity:1;" d="M 280.492188 267.824219 L 273.019531 264.707031 L 264.503906 267.351562 L 264.503906 270.183594 L 273.304688 275.285156 C 274.4375 275.945312 276.234375 275.945312 277.371094 275.285156 L 281.816406 272.734375 C 282.386719 272.449219 282.667969 271.980469 282.667969 271.601562 L 282.667969 268.769531 C 282.667969 268.863281 282.667969 268.863281 282.667969 268.957031 C 282.667969 268.390625 281.15625 268.199219 280.492188 267.824219 Z M 280.492188 267.824219 "/>
<path style=" stroke:none;fill-rule:nonzero;fill:rgb(89.408875%,88.238525%,97.648621%);fill-opacity:1;" d="M 281.816406 267.539062 C 282.953125 268.199219 282.953125 269.238281 281.816406 269.902344 L 277.371094 272.449219 C 276.234375 273.113281 274.4375 273.113281 273.304688 272.449219 L 264.503906 267.351562 L 273.019531 262.441406 Z M 281.816406 267.539062 "/>
<path style=" stroke:none;fill-rule:nonzero;fill:rgb(27.449036%,30.589294%,67.059326%);fill-opacity:1;" d="M 338.199219 304.65625 C 335.078125 304.65625 331.957031 303.804688 329.117188 302.199219 L 279.453125 273.394531 C 279.074219 273.113281 278.886719 272.640625 279.167969 272.261719 C 279.453125 271.882812 279.925781 271.695312 280.304688 271.980469 L 329.96875 300.78125 C 334.984375 303.710938 341.320312 303.710938 346.335938 300.78125 L 352.199219 297.382812 C 357.214844 294.457031 360.335938 289.074219 360.335938 283.3125 L 360.335938 227.308594 C 360.335938 221.453125 357.214844 216.070312 352.199219 213.238281 L 343.78125 208.328125 C 343.402344 208.042969 343.214844 207.570312 343.496094 207.191406 C 343.78125 206.816406 344.253906 206.625 344.632812 206.910156 L 353.050781 211.820312 C 358.632812 215.03125 362.039062 220.980469 362.039062 227.402344 L 362.039062 283.40625 C 362.039062 289.828125 358.632812 295.777344 353.050781 298.988281 L 347.1875 302.386719 C 344.445312 303.804688 341.320312 304.65625 338.199219 304.65625 Z M 338.199219 304.65625 "/>
<path style=" stroke:none;fill-rule:nonzero;fill:rgb(26.269531%,27.059937%,36.859131%);fill-opacity:0.0471;" d="M 86.085938 161.011719 C 85.992188 160.824219 85.804688 160.726562 85.613281 160.726562 L 71.234375 163.46875 L 5.960938 196.617188 C 3.972656 197.558594 2.460938 199.542969 2.460938 201.902344 C 2.363281 205.210938 5.015625 207.949219 8.324219 208.042969 C 9.554688 208.042969 10.785156 207.757812 11.730469 207.097656 L 75.019531 170.359375 L 86.085938 161.578125 C 86.183594 161.296875 86.183594 161.105469 86.085938 161.011719 Z M 86.085938 161.011719 "/>
<path style=" stroke:none;fill-rule:nonzero;fill:rgb(89.408875%,88.238525%,97.648621%);fill-opacity:1;" d="M 83.816406 158.652344 C 83.722656 158.460938 83.53125 158.367188 83.34375 158.367188 L 68.871094 162.238281 L 3.59375 195.386719 C 1.609375 196.332031 0.09375 198.316406 0.09375 200.675781 C 0 203.980469 2.648438 206.722656 5.960938 206.816406 C 7.191406 206.816406 8.417969 206.53125 9.367188 205.871094 L 72.652344 169.132812 L 83.722656 159.121094 C 83.910156 159.027344 83.910156 158.839844 83.816406 158.652344 Z M 83.816406 158.652344 "/>
<path style=" stroke:none;fill-rule:nonzero;fill:rgb(99.609375%,78.819275%,71.759033%);fill-opacity:1;" d="M 83.816406 158.652344 C 83.722656 158.460938 83.53125 158.367188 83.34375 158.367188 L 82.113281 158.652344 C 82.207031 159.121094 82.492188 159.59375 82.871094 159.878906 L 83.722656 159.121094 C 83.910156 159.027344 83.910156 158.839844 83.816406 158.652344 Z M 83.816406 158.652344 "/>
<path style=" stroke:none;fill-rule:nonzero;fill:rgb(26.269531%,27.059937%,36.859131%);fill-opacity:1;" d="M 4.164062 193.78125 L 4.164062 194.914062 C 4.164062 195.292969 4.351562 195.578125 4.824219 195.859375 L 6.8125 197.085938 C 7.664062 197.65625 9.175781 197.65625 10.027344 197.183594 L 36.042969 183.015625 C 36.515625 182.734375 36.707031 182.449219 36.707031 182.070312 L 36.707031 180.9375 L 36.707031 181.03125 C 36.800781 180.65625 4.257812 193.40625 4.164062 193.78125 Z M 4.164062 193.78125 "/>
<path style=" stroke:none;fill-rule:nonzero;fill:rgb(27.449036%,30.589294%,67.059326%);fill-opacity:1;" d="M 36.136719 179.996094 C 36.988281 180.5625 36.988281 181.410156 36.136719 181.882812 L 10.121094 196.050781 C 9.269531 196.519531 7.757812 196.519531 6.90625 195.953125 L 4.917969 194.726562 C 4.066406 194.160156 4.066406 193.308594 4.917969 192.839844 L 30.933594 178.671875 C 31.785156 178.199219 33.300781 178.199219 34.152344 178.765625 Z M 36.136719 179.996094 "/>
<path style=" stroke:none;fill-rule:nonzero;fill:rgb(26.269531%,27.059937%,36.859131%);fill-opacity:0.0471;" d="M 241.800781 314.570312 C 237.261719 314.003906 234.988281 313.722656 232.8125 312.964844 C 232.4375 312.871094 229.503906 311.832031 225.53125 311.171875 C 223.921875 310.886719 222.976562 310.792969 222.03125 311.171875 C 219.855469 312.019531 218.246094 314.570312 218.90625 316.082031 C 219.191406 316.835938 219.949219 316.835938 223.355469 318.160156 C 224.867188 318.726562 226.476562 319.292969 227.800781 319.953125 C 229.691406 320.898438 230.636719 321.75 233.097656 323.828125 C 235.179688 325.527344 238.113281 327.980469 239.625 329.113281 C 242.179688 331.097656 244.449219 332.324219 248.992188 334.6875 C 256.371094 338.558594 260.058594 340.542969 263.277344 341.203125 C 269.140625 342.335938 275.953125 341.769531 276.710938 339.410156 C 277.183594 337.898438 274.722656 337.046875 274.34375 333.554688 C 274.15625 332.042969 274.628906 331.664062 274.910156 327.414062 C 275.007812 325.714844 275.007812 324.863281 274.910156 324.296875 C 274.4375 322.316406 273.019531 320.804688 270.84375 319.386719 C 265.640625 315.894531 259.679688 315.042969 258.449219 314.855469 C 251.070312 313.910156 250.597656 315.609375 241.800781 314.570312 Z M 241.800781 314.570312 "/>
<path style=" stroke:none;fill-rule:nonzero;fill:rgb(89.408875%,88.238525%,97.648621%);fill-opacity:1;" d="M 259.300781 232.21875 C 259.777344 232.503906 261.003906 233.257812 261.953125 234.675781 C 262.425781 235.429688 263.179688 236.65625 262.800781 237.695312 C 262.234375 239.207031 259.019531 239.207031 257.789062 239.207031 C 255.992188 239.207031 253.4375 239.207031 251.734375 237.320312 C 251.546875 237.035156 249.746094 235.242188 250.316406 233.636719 C 250.976562 231.273438 256.085938 230.519531 259.300781 232.21875 Z M 259.300781 232.21875 "/>
<path style=" stroke:none;fill-rule:nonzero;fill:rgb(89.408875%,88.238525%,97.648621%);fill-opacity:1;" d="M 261.003906 235.148438 C 260.910156 235.335938 260.722656 235.523438 260.53125 235.714844 C 260.25 235.902344 259.871094 235.902344 259.585938 236.089844 C 258.167969 236.65625 256.84375 236.46875 255.898438 236.28125 C 254.761719 236.089844 253.625 235.902344 252.585938 234.863281 C 252.300781 234.582031 251.640625 234.203125 251.449219 233.636719 C 251.449219 233.445312 251.355469 233.257812 251.449219 233.070312 C 251.449219 232.691406 251.640625 232.503906 251.921875 232.21875 C 252.207031 231.9375 252.492188 231.839844 252.679688 231.652344 C 254.574219 230.519531 257.789062 230.425781 259.777344 232.21875 C 259.777344 232.21875 260.25 232.691406 260.722656 233.257812 C 261.003906 233.824219 261.289062 234.582031 261.003906 235.148438 Z M 261.003906 235.148438 "/>
<path style=" stroke:none;fill-rule:nonzero;fill:rgb(26.269531%,27.059937%,36.859131%);fill-opacity:1;" d="M 274.058594 324.203125 C 273.964844 323.828125 273.777344 323.449219 273.585938 323.164062 C 273.113281 322.597656 272.546875 322.316406 272.359375 322.222656 C 271.507812 321.84375 270.65625 321.84375 270.085938 321.9375 C 267.628906 322.316406 265.640625 323.355469 264.601562 323.921875 C 259.113281 326.941406 257.976562 326.941406 257.410156 328.546875 C 257.222656 329.019531 257.222656 329.492188 257.222656 330.058594 C 257.222656 330.625 257.410156 331.191406 257.789062 331.664062 C 258.828125 333.082031 260.910156 332.988281 261.574219 332.988281 C 262.992188 332.890625 264.128906 332.324219 264.601562 332.042969 C 264.601562 331.664062 264.601562 331.382812 264.503906 331.003906 C 264.882812 331.003906 265.546875 330.910156 266.207031 330.816406 C 268.382812 330.53125 269.898438 330.34375 271.222656 329.210938 C 271.789062 328.738281 272.074219 328.265625 272.734375 327.320312 C 273.777344 325.902344 274.25 325.148438 274.058594 324.203125 Z M 274.058594 324.203125 "/>
<path style=" stroke:none;fill-rule:nonzero;fill:rgb(26.269531%,27.059937%,36.859131%);fill-opacity:1;" d="M 258.640625 314.761719 C 258.546875 314.382812 258.355469 314.003906 258.167969 313.722656 C 257.695312 313.15625 257.125 312.871094 256.9375 312.777344 C 256.085938 312.398438 255.234375 312.398438 254.667969 312.492188 C 252.207031 312.871094 250.222656 313.910156 249.179688 314.476562 C 243.691406 317.5 242.558594 317.5 241.992188 319.105469 C 241.800781 319.578125 241.800781 320.046875 241.800781 320.617188 C 241.800781 321.183594 241.992188 321.75 242.367188 322.222656 C 243.410156 323.636719 245.492188 323.542969 246.152344 323.542969 C 247.570312 323.449219 248.707031 322.882812 249.179688 322.597656 C 249.179688 322.222656 249.179688 321.9375 249.085938 321.558594 C 249.464844 321.558594 250.125 321.464844 250.789062 321.371094 C 252.964844 321.085938 254.476562 320.898438 255.800781 319.765625 C 256.371094 319.292969 256.652344 318.820312 257.316406 317.875 C 258.261719 316.460938 258.828125 315.703125 258.640625 314.761719 Z M 258.640625 314.761719 "/>
<path style=" stroke:none;fill-rule:nonzero;fill:rgb(27.449036%,30.589294%,67.059326%);fill-opacity:1;" d="M 245.019531 272.921875 C 245.300781 279.816406 244.640625 285.199219 243.976562 288.789062 C 243.125 293.132812 242.464844 294.265625 241.992188 298.609375 C 241.515625 302.765625 241.992188 303.238281 241.992188 311.359375 C 241.992188 318.820312 241.613281 321.085938 242.9375 321.75 C 245.019531 322.789062 249.179688 319.011719 249.652344 318.539062 C 250.503906 317.6875 251.261719 317.027344 251.734375 315.988281 C 252.871094 313.4375 251.734375 311.171875 251.261719 308.242188 C 250.882812 305.976562 251.261719 303.710938 252.019531 299.082031 C 253.34375 291.148438 255.519531 289.542969 256.75 283.40625 C 257.410156 280.195312 257.882812 275.566406 256.75 269.617188 C 254.476562 268.769531 252.113281 267.824219 249.84375 266.972656 C 248.140625 269.050781 246.625 270.941406 245.019531 272.921875 Z M 245.019531 272.921875 "/>
<path style=" stroke:none;fill-rule:nonzero;fill:rgb(27.449036%,30.589294%,67.059326%);fill-opacity:1;" d="M 251.921875 274.054688 C 252.585938 276.039062 253.53125 278.683594 254.382812 281.988281 C 256.371094 289.828125 256.558594 296.0625 256.652344 298.328125 C 256.75 302.386719 256.371094 302.386719 256.085938 309.378906 C 255.519531 320.519531 255.140625 329.871094 258.449219 331.097656 C 259.492188 331.476562 260.53125 330.910156 261.953125 330.25 C 264.03125 329.210938 266.398438 327.039062 266.777344 324.296875 C 267.058594 322.125 265.925781 321.9375 265.355469 318.539062 C 264.980469 316.367188 265.355469 315.328125 265.734375 311.171875 C 266.207031 306.734375 265.925781 306.449219 266.304688 302.957031 C 266.777344 297.476562 267.722656 294.644531 268.195312 291.527344 C 268.855469 287.5625 269.332031 281.707031 267.722656 273.960938 C 262.425781 273.867188 257.125 273.960938 251.921875 274.054688 Z M 251.921875 274.054688 "/>
<path style=" stroke:none;fill-rule:nonzero;fill:rgb(99.609375%,78.819275%,71.759033%);fill-opacity:1;" d="M 242.746094 259.417969 C 243.03125 262.25 247.289062 264.140625 249.179688 263.101562 C 250.03125 262.628906 250.222656 261.589844 250.316406 261.308594 C 250.695312 259.605469 249.273438 258.097656 248.519531 257.246094 C 247.570312 256.300781 246.71875 255.355469 245.585938 255.453125 C 243.976562 255.640625 242.652344 257.71875 242.746094 259.417969 Z M 242.746094 259.417969 "/>
<path style=" stroke:none;fill-rule:nonzero;fill:rgb(89.408875%,88.238525%,97.648621%);fill-opacity:1;" d="M 241.707031 259.136719 C 241.800781 259.605469 242.085938 260.078125 242.652344 260.269531 C 244.542969 261.023438 248.140625 257.339844 247.476562 255.925781 C 247.289062 255.453125 246.625 255.261719 246.4375 255.167969 C 244.261719 254.601562 241.234375 257.339844 241.707031 259.136719 Z M 241.707031 259.136719 "/>
<path style=" stroke:none;fill-rule:nonzero;fill:rgb(26.269531%,27.059937%,36.859131%);fill-opacity:1;" d="M 243.976562 249.785156 C 243.03125 248.464844 241.800781 246.480469 240.570312 243.835938 C 242.84375 242.796875 243.976562 242.136719 244.355469 241.851562 C 247.667969 238.453125 246.4375 232.597656 246.152344 231.464844 C 245.773438 231.464844 245.207031 231.371094 244.542969 231.464844 C 242.273438 231.839844 241.234375 233.542969 239.339844 235.335938 C 235.746094 238.925781 233.855469 238.453125 232.4375 241.285156 C 232.152344 241.945312 231.394531 243.457031 231.960938 245.15625 C 232.058594 245.441406 232.246094 245.820312 232.4375 246.007812 C 233.285156 247.328125 235.460938 249.3125 237.640625 253.65625 C 239.152344 256.679688 239.816406 259.230469 241.613281 259.417969 C 242.558594 259.511719 243.410156 259.039062 244.261719 258.472656 C 244.828125 258.097656 246.625 257.058594 247.003906 255.453125 C 247.289062 254.035156 245.964844 252.714844 243.976562 249.785156 Z M 243.976562 249.785156 "/>
<path style=" stroke:none;fill-rule:nonzero;fill:rgb(99.609375%,78.819275%,71.759033%);fill-opacity:1;" d="M 260.34375 234.203125 C 260.25 234.957031 260.4375 235.335938 260.625 235.714844 C 260.34375 235.902344 259.964844 236.089844 259.679688 236.1875 C 258.261719 236.753906 256.9375 236.5625 255.992188 236.375 C 254.855469 236.1875 253.625 235.996094 252.585938 234.957031 C 252.300781 234.675781 251.734375 234.203125 251.546875 233.542969 C 251.734375 233.445312 251.828125 233.257812 251.921875 233.070312 C 252.113281 232.785156 252.019531 232.410156 252.019531 232.125 C 251.921875 231.652344 251.546875 231.085938 251.640625 230.425781 C 251.921875 227.96875 256.75 225.042969 259.964844 226.742188 C 261.289062 227.402344 262.613281 229.101562 262.328125 230.519531 C 262.140625 231.652344 261.195312 232.03125 260.722656 233.070312 C 260.4375 233.542969 260.34375 233.824219 260.34375 234.203125 Z M 260.34375 234.203125 "/>
<path style=" stroke:none;fill-rule:nonzero;fill:rgb(26.269531%,27.059937%,36.859131%);fill-opacity:1;" d="M 267.34375 276.984375 C 265.355469 279.34375 261.855469 279.535156 258.828125 279.628906 C 257.125 279.722656 251.070312 279.910156 249.84375 277.078125 C 249.464844 276.324219 249.558594 275.285156 249.746094 273.113281 C 249.84375 271.789062 250.03125 270.65625 250.222656 269.804688 C 249.84375 270.277344 249.464844 271.035156 249.085938 271.882812 C 248.140625 274.054688 248.328125 275.472656 247.570312 275.660156 C 246.71875 275.945312 245.492188 274.339844 245.394531 274.152344 C 244.261719 272.640625 244.261719 271.035156 244.261719 270.183594 C 244.261719 266.5 244.921875 263.480469 245.113281 262.441406 C 246.4375 256.019531 245.207031 250.539062 244.828125 248.746094 C 244.167969 245.914062 243.789062 244.117188 242.746094 241.851562 C 242.085938 240.339844 241.613281 239.867188 241.421875 238.546875 C 241.328125 238.167969 240.855469 234.675781 243.125 232.597656 C 243.410156 232.3125 244.070312 231.746094 245.019531 231.464844 C 246.152344 231.085938 246.910156 231.371094 248.800781 231.464844 C 249.085938 231.464844 249.464844 231.558594 249.84375 231.558594 C 250.503906 231.558594 251.167969 231.652344 252.019531 231.558594 C 251.828125 231.652344 250.21875 232.503906 250.21875 233.542969 C 250.21875 234.296875 250.882812 234.769531 251.921875 235.429688 C 252.871094 235.996094 254.097656 236.941406 255.707031 237.320312 C 259.964844 238.359375 261.855469 236.1875 264.128906 237.695312 C 265.167969 238.453125 265.734375 239.679688 265.734375 239.773438 C 266.019531 240.246094 266.679688 240.90625 266.777344 241.757812 C 266.871094 242.136719 266.964844 242.609375 266.964844 243.078125 C 267.628906 248.652344 267.722656 262.0625 268.003906 268.484375 C 268.480469 273.113281 268.855469 275.09375 267.34375 276.984375 Z M 267.34375 276.984375 "/>
<path style=" stroke:none;fill-rule:nonzero;fill:rgb(99.609375%,78.819275%,71.759033%);fill-opacity:1;" d="M 265.828125 280.101562 C 265.640625 280.667969 265.546875 281.421875 265.453125 282.367188 C 265.453125 283.21875 265.546875 283.972656 265.640625 284.539062 C 265.453125 284.160156 265.167969 283.785156 265.074219 283.878906 C 264.789062 283.972656 264.601562 285.105469 264.980469 286.050781 C 265.640625 287.46875 267.628906 287.84375 269.140625 287.5625 C 269.425781 287.46875 270.84375 287.183594 271.222656 286.332031 C 271.316406 286.144531 271.316406 286.050781 271.316406 284.824219 C 271.316406 284.351562 271.316406 283.972656 271.316406 283.59375 C 271.507812 283.59375 271.695312 283.59375 271.882812 283.40625 C 271.980469 283.3125 272.167969 283.027344 272.074219 282.082031 C 271.980469 281.328125 271.882812 280.574219 271.410156 279.628906 C 271.128906 279.15625 270.9375 278.871094 270.65625 278.683594 C 269.046875 279.15625 267.4375 279.628906 265.828125 280.101562 Z M 265.828125 280.101562 "/>
<path style=" stroke:none;fill-rule:nonzero;fill:rgb(89.408875%,88.238525%,97.648621%);fill-opacity:1;" d="M 265.355469 278.777344 C 264.882812 279.25 264.980469 280.382812 265.453125 280.949219 C 266.585938 282.273438 270.558594 281.613281 271.507812 279.628906 C 271.789062 278.96875 271.882812 278.023438 271.507812 277.738281 C 271.03125 277.363281 270.277344 278.210938 268.574219 278.589844 C 266.777344 278.871094 265.925781 278.210938 265.355469 278.777344 Z M 265.355469 278.777344 "/>
<path style=" stroke:none;fill-rule:nonzero;fill:rgb(26.269531%,27.059937%,36.859131%);fill-opacity:1;" d="M 267.15625 244.023438 C 266.304688 244.308594 265.355469 244.6875 264.410156 245.15625 C 261.382812 246.761719 259.492188 249.125 258.546875 250.636719 C 259.398438 252.429688 260.53125 255.355469 261.574219 259.039062 C 264.789062 271.128906 262.328125 279.15625 265.828125 280.761719 C 267.628906 281.613281 270.371094 280.382812 271.410156 278.777344 C 272.261719 277.457031 271.882812 276.039062 271.507812 273.488281 C 270.75 268.769531 271.601562 270.375 270.75 264.519531 C 269.898438 258.664062 269.234375 257.339844 268.101562 250.636719 C 267.628906 247.800781 267.34375 245.441406 267.15625 244.023438 Z M 267.15625 244.023438 "/>
<path style=" stroke:none;fill-rule:nonzero;fill:rgb(26.269531%,27.059937%,36.859131%);fill-opacity:1;" d="M 267.15625 243.269531 C 266.777344 242.703125 266.679688 241.097656 265.355469 240.246094 C 264.503906 239.679688 263.652344 239.773438 263.085938 239.871094 C 262.046875 239.964844 254.855469 240.246094 250.882812 237.226562 C 250.597656 237.035156 248.042969 235.050781 248.519531 233.257812 C 248.613281 232.976562 248.800781 232.3125 249.9375 231.652344 C 250.597656 231.652344 251.261719 231.746094 252.113281 231.652344 C 251.921875 231.746094 250.597656 232.503906 250.597656 233.542969 C 250.597656 233.824219 250.695312 234.484375 252.492188 235.621094 C 253.625 236.375 254.382812 236.847656 255.898438 237.226562 C 260.34375 238.359375 262.519531 235.996094 264.695312 237.601562 C 265.167969 237.980469 266.019531 238.832031 266.492188 239.964844 C 266.777344 240.625 266.964844 241.378906 267.058594 241.851562 C 267.058594 242.417969 267.058594 242.890625 267.15625 243.269531 Z M 267.15625 243.269531 "/>
<path style=" stroke:none;fill-rule:nonzero;fill:rgb(99.609375%,78.819275%,71.759033%);fill-opacity:1;" d="M 262.425781 221.171875 C 262.800781 221.546875 263.84375 222.304688 264.222656 223.71875 C 264.410156 224.476562 264.222656 224.664062 264.316406 226.175781 C 264.410156 228.441406 264.789062 228.441406 264.601562 229.386719 C 264.316406 230.707031 263.371094 231.839844 262.140625 232.503906 C 261.101562 232.976562 260.25 232.878906 259.777344 232.878906 C 256.652344 232.691406 254.667969 229.859375 254.382812 229.480469 C 253.152344 227.6875 251.355469 223.53125 253.625 220.980469 C 255.898438 218.527344 260.34375 219.46875 262.425781 221.171875 Z M 262.425781 221.171875 "/>
<path style=" stroke:none;fill-rule:nonzero;fill:rgb(98.81897%,31.759644%,20.779419%);fill-opacity:1;" d="M 263.652344 221.359375 C 263.652344 221.925781 263.277344 222.019531 262.613281 223.71875 C 262.328125 224.382812 262.234375 224.757812 262.140625 225.136719 C 261.953125 226.269531 262.328125 226.554688 262.140625 227.875 C 262.140625 228.0625 261.953125 229.574219 261.476562 229.667969 C 261.101562 229.667969 261.003906 229.007812 260.4375 228.914062 C 260.34375 228.914062 259.964844 228.914062 259.019531 230.046875 C 258.167969 231.179688 258.261719 231.464844 257.695312 231.9375 C 257.222656 232.410156 256.558594 232.503906 255.421875 232.691406 C 254.289062 232.878906 253.53125 232.976562 252.679688 232.691406 C 251.734375 232.410156 251.070312 231.746094 250.882812 231.464844 C 250.03125 230.613281 249.84375 229.667969 249.464844 228.0625 C 249.085938 226.363281 249.085938 225.042969 249.085938 224.191406 C 249.085938 223.4375 249.179688 222.871094 249.371094 222.113281 C 249.558594 221.546875 249.9375 220.320312 250.976562 219.46875 C 251.734375 218.902344 252.492188 218.714844 254.097656 218.335938 C 254.382812 218.242188 254.289062 218.335938 256.75 217.863281 C 258.355469 217.582031 258.355469 217.582031 258.546875 217.582031 C 260.152344 217.582031 261.382812 218.429688 261.667969 218.621094 C 262.425781 218.996094 263.75 220.035156 263.652344 221.359375 Z M 263.652344 221.359375 "/>
<path style=" stroke:none;fill-rule:nonzero;fill:rgb(26.269531%,27.059937%,36.859131%);fill-opacity:0.0471;" d="M 196.203125 312.589844 C 196.109375 313.722656 195.824219 314.664062 195.445312 315.515625 L 185.230469 321.464844 C 182.109375 323.257812 177 323.257812 173.78125 321.464844 L 157.605469 312.117188 C 158.269531 309.753906 158.835938 307.488281 159.496094 305.128906 C 168.863281 295.210938 181.445312 292.945312 187.878906 297.289062 C 190.433594 299.082031 193.742188 302.957031 195.351562 307.582031 C 196.390625 310.414062 196.296875 312.019531 196.203125 312.589844 Z M 196.203125 312.589844 "/>
<path style=" stroke:none;fill-rule:nonzero;fill:rgb(26.269531%,27.059937%,36.859131%);fill-opacity:1;" d="M 150.984375 334.6875 C 150.699219 333.742188 150.132812 332.890625 149.753906 332.421875 C 147.292969 332.324219 144.738281 332.136719 142.28125 332.042969 C 141.808594 333.269531 141.335938 334.214844 140.957031 334.78125 C 139.726562 336.765625 138.496094 337.425781 138.210938 339.21875 L 138.210938 339.316406 C 138.117188 339.785156 138.117188 340.257812 138.308594 340.730469 C 138.96875 341.863281 141.050781 341.957031 142.28125 341.769531 C 144.738281 341.390625 144.644531 339.976562 148.902344 337.710938 C 149.753906 337.238281 150.320312 336.953125 150.699219 336.480469 C 150.792969 336.386719 150.792969 336.292969 150.890625 336.105469 C 151.171875 335.726562 151.171875 335.253906 150.984375 334.6875 Z M 150.984375 334.6875 "/>
<path style=" stroke:none;fill-rule:nonzero;fill:rgb(26.269531%,27.059937%,36.859131%);fill-opacity:1;" d="M 189.011719 339.125 C 188.917969 338.464844 188.730469 337.425781 188.730469 336.199219 C 186.742188 335.914062 184.757812 335.726562 182.769531 335.441406 C 182.675781 336.105469 182.484375 337.046875 182.582031 338.277344 C 182.675781 339.410156 182.863281 339.597656 182.960938 340.730469 C 183.054688 341.675781 182.960938 342.242188 182.863281 342.621094 C 182.863281 342.902344 182.769531 343.09375 182.769531 343.28125 C 182.769531 343.46875 182.863281 343.660156 182.960938 343.941406 C 183.527344 344.980469 184.660156 345.359375 185.039062 345.453125 C 186.082031 345.738281 187.6875 345.738281 188.636719 344.699219 C 189.203125 344.035156 189.390625 343.28125 189.488281 342.621094 C 189.488281 342.527344 189.488281 342.335938 189.488281 342.242188 C 189.582031 341.109375 189.296875 340.636719 189.011719 339.125 Z M 189.011719 339.125 "/>
<path style=" stroke:none;fill-rule:nonzero;fill:rgb(27.449036%,30.589294%,67.059326%);fill-opacity:1;" d="M 141.429688 332.136719 C 142.1875 332.703125 143.226562 333.175781 144.363281 333.648438 C 147.390625 334.78125 150.132812 334.496094 151.644531 334.214844 C 151.457031 330.4375 152.117188 327.605469 152.6875 325.714844 C 153.820312 322.222656 155.144531 320.710938 156.945312 316.367188 C 158.171875 313.34375 158.835938 310.792969 159.214844 309.09375 C 160.917969 308.714844 162.714844 308.339844 164.605469 307.867188 C 169.148438 306.636719 173.121094 305.03125 176.429688 303.425781 C 175.203125 302.484375 173.6875 301.253906 172.269531 299.554688 C 169.902344 296.816406 168.675781 294.078125 168.011719 292.1875 C 166.214844 293.039062 163.660156 294.359375 160.445312 296.0625 C 155.621094 298.609375 153.253906 299.933594 152.402344 300.6875 C 149.566406 303.425781 148.429688 307.867188 146.347656 316.648438 C 145.589844 319.671875 145.402344 320.992188 144.457031 324.015625 C 143.511719 327.507812 142.28125 330.34375 141.429688 332.136719 Z M 141.429688 332.136719 "/>
<path style=" stroke:none;fill-rule:nonzero;fill:rgb(27.449036%,30.589294%,67.059326%);fill-opacity:1;" d="M 169.050781 289.828125 C 168.105469 291.90625 168.105469 293.605469 168.203125 294.550781 C 168.863281 300.78125 176.621094 303.710938 176.90625 303.804688 C 177.660156 304.089844 178.324219 304.277344 178.890625 304.371094 C 179.175781 305.128906 179.554688 306.261719 179.933594 307.675781 C 180.972656 311.644531 180.972656 314.761719 181.066406 316.082031 C 181.160156 320.332031 181.539062 327.320312 182.203125 336.671875 C 183.621094 337.046875 185.511719 337.332031 187.6875 337.238281 C 188.824219 337.238281 189.769531 337.046875 190.621094 336.859375 C 190.621094 334.875 190.621094 331.757812 190.621094 327.980469 C 190.621094 320.238281 190.714844 320.425781 190.714844 317.40625 C 190.527344 310.226562 190.054688 309.945312 190.242188 305.222656 C 190.433594 301.253906 190.8125 300.6875 190.527344 298.609375 C 189.960938 294.550781 187.6875 291.527344 185.796875 289.449219 C 180.214844 289.640625 174.632812 289.734375 169.050781 289.828125 Z M 169.050781 289.828125 "/>
<path style=" stroke:none;fill-rule:nonzero;fill:rgb(99.609375%,78.819275%,71.759033%);fill-opacity:1;" d="M 173.40625 266.5 C 171.230469 266.59375 170.1875 266.691406 169.527344 267.351562 C 167.726562 269.144531 169.050781 275 172.835938 277.078125 C 175.675781 278.683594 178.796875 277.457031 179.363281 277.265625 C 180.027344 276.984375 183.335938 275.660156 184.1875 272.355469 C 184.285156 271.882812 184.851562 269.617188 183.621094 268.199219 C 183.148438 267.632812 182.582031 267.539062 177.945312 266.878906 C 175.105469 266.5 174.445312 266.40625 173.40625 266.5 Z M 173.40625 266.5 "/>
<path style=" stroke:none;fill-rule:nonzero;fill:rgb(26.269531%,27.059937%,36.859131%);fill-opacity:0.0471;" d="M 173.40625 266.5 C 171.230469 266.59375 170.1875 266.691406 169.527344 267.351562 C 167.726562 269.144531 169.050781 275 172.835938 277.078125 C 175.675781 278.683594 178.796875 277.457031 179.363281 277.265625 C 180.027344 276.984375 183.335938 275.660156 184.1875 272.355469 C 184.285156 271.882812 184.851562 269.617188 183.621094 268.199219 C 183.148438 267.632812 182.582031 267.539062 177.945312 266.878906 C 175.105469 266.5 174.445312 266.40625 173.40625 266.5 Z M 173.40625 266.5 "/>
<path style=" stroke:none;fill-rule:nonzero;fill:rgb(99.609375%,78.819275%,71.759033%);fill-opacity:1;" d="M 157.417969 278.871094 C 153.726562 281.234375 153.632812 282.933594 153.632812 283.59375 C 153.820312 286.429688 159.402344 289.542969 160.253906 290.015625 C 161.105469 290.488281 162.242188 290.960938 162.902344 292.1875 C 163.566406 293.320312 163.28125 293.984375 164.039062 295.023438 C 164.226562 295.210938 164.984375 296.25 166.308594 296.722656 C 168.105469 297.289062 170.566406 296.722656 170.945312 295.496094 C 171.417969 293.984375 168.675781 291.8125 167.539062 291.054688 C 166.59375 290.394531 166.5 290.582031 165.550781 289.921875 C 164.417969 289.074219 163.851562 288.316406 162.429688 286.429688 C 161.863281 285.765625 161.105469 284.726562 160.066406 283.40625 C 160.445312 282.933594 160.917969 282.460938 161.296875 281.988281 C 160.066406 280.855469 158.742188 279.910156 157.417969 278.871094 Z M 157.417969 278.871094 "/>
<path style=" stroke:none;fill-rule:nonzero;fill:rgb(98.81897%,31.759644%,20.779419%);fill-opacity:1;" d="M 189.296875 278.683594 C 190.8125 276.417969 192.703125 275.660156 192.515625 273.773438 C 192.324219 270.84375 187.3125 268.296875 184.09375 267.730469 C 183.714844 267.632812 182.960938 267.539062 181.445312 267.351562 C 179.457031 267.066406 177.851562 266.878906 177 266.785156 C 174.351562 266.3125 172.835938 265.933594 170.378906 266.21875 C 168.863281 266.3125 167.726562 266.691406 166.875 266.878906 C 166.78125 266.878906 166.59375 266.972656 166.308594 267.066406 C 163.660156 268.011719 162.242188 270.089844 160.066406 273.300781 C 158.363281 275.851562 156.945312 277.929688 156.1875 279.15625 C 156.847656 279.910156 157.699219 280.761719 158.835938 281.613281 C 159.78125 282.273438 160.632812 282.746094 161.390625 283.027344 C 162.335938 282.273438 163.753906 281.234375 165.550781 279.910156 C 166.59375 279.15625 166.972656 278.96875 167.253906 278.777344 C 168.105469 281.234375 168.769531 284.632812 168.203125 289.355469 C 168.390625 290.109375 168.769531 290.679688 169.148438 291.148438 C 173.6875 297.476562 188.539062 293.320312 189.769531 292.945312 C 186.835938 285.199219 187.785156 281.046875 189.296875 278.683594 Z M 179.269531 276.230469 C 179.082031 276.324219 176.335938 277.363281 173.878906 275.945312 C 171.890625 274.71875 171.324219 272.546875 171.132812 271.695312 C 170.851562 270.5625 170.566406 269.144531 171.230469 268.011719 C 172.648438 265.933594 176.714844 266.785156 179.835938 267.445312 C 182.390625 267.917969 182.769531 268.484375 182.960938 268.671875 C 184.1875 270.46875 182.484375 274.8125 179.269531 276.230469 Z M 179.269531 276.230469 "/>
<path style=" stroke:none;fill-rule:nonzero;fill:rgb(99.609375%,78.819275%,71.759033%);fill-opacity:1;" d="M 170.753906 265.746094 C 170.1875 266.785156 170.378906 267.917969 170.945312 270.089844 C 171.417969 272.167969 171.796875 273.679688 173.027344 274.8125 C 173.40625 275.09375 174.351562 275.945312 175.582031 275.757812 C 175.769531 275.757812 175.957031 275.660156 176.148438 275.566406 C 178.039062 274.71875 179.269531 272.167969 179.269531 271.980469 C 179.742188 270.84375 180.308594 269.050781 181.066406 268.671875 C 181.160156 268.671875 181.351562 268.578125 181.445312 268.296875 C 181.632812 268.011719 181.539062 267.824219 181.632812 267.445312 C 181.730469 266.785156 182.011719 266.785156 182.203125 266.027344 C 182.296875 265.652344 182.296875 265.367188 182.203125 265.179688 C 181.917969 264.988281 181.257812 265.367188 180.972656 265.460938 C 178.984375 266.40625 176.90625 263.480469 173.972656 263.761719 C 172.835938 263.953125 171.417969 264.613281 170.753906 265.746094 Z M 170.753906 265.746094 "/>
<path style=" stroke:none;fill-rule:nonzero;fill:rgb(26.269531%,27.059937%,36.859131%);fill-opacity:1;" d="M 176.621094 257.433594 C 173.59375 257.152344 171.605469 259.796875 171.324219 260.171875 C 169.148438 263.101562 170.378906 266.59375 170.472656 266.878906 C 170.660156 266.785156 170.945312 266.59375 171.324219 266.59375 C 171.890625 266.691406 172.078125 267.257812 172.457031 267.632812 C 173.78125 268.769531 177.1875 266.21875 178.230469 267.351562 C 178.417969 267.539062 178.417969 267.824219 178.890625 268.203125 C 178.984375 268.296875 179.742188 268.863281 180.121094 268.578125 C 180.785156 268.296875 180.121094 266.785156 180.972656 265.746094 C 181.257812 265.460938 181.351562 265.460938 181.539062 265.179688 C 181.632812 264.988281 182.011719 264.421875 181.824219 263.101562 C 181.730469 262.628906 181.539062 261.589844 180.785156 260.457031 C 180.5 259.796875 179.082031 257.71875 176.621094 257.433594 Z M 176.621094 257.433594 "/>
<path style=" stroke:none;fill-rule:nonzero;fill:rgb(26.269531%,27.059937%,36.859131%);fill-opacity:1;" d="M 191.664062 294.457031 L 191.945312 295.496094 L 188.539062 309.660156 L 187.40625 309.847656 Z M 191.664062 294.457031 "/>
<path style=" stroke:none;fill-rule:nonzero;fill:rgb(89.408875%,88.238525%,97.648621%);fill-opacity:1;" d="M 188.066406 309 L 191.664062 294.457031 L 163.375 289.734375 L 157.226562 301.632812 Z M 188.066406 309 "/>
<path style=" stroke:none;fill-rule:nonzero;fill:rgb(99.609375%,78.819275%,71.759033%);fill-opacity:1;" d="M 167.445312 290.960938 C 166.5 290.300781 166.402344 290.488281 165.457031 289.828125 C 164.796875 289.355469 164.417969 288.882812 163.851562 288.316406 L 157.511719 288.316406 C 158.742188 289.167969 159.78125 289.734375 160.160156 289.921875 C 161.011719 290.394531 162.148438 290.867188 162.808594 292.09375 C 163.472656 293.226562 163.1875 293.890625 163.945312 294.925781 C 164.132812 295.117188 164.890625 296.15625 166.214844 296.628906 C 168.011719 297.195312 170.472656 296.628906 170.851562 295.398438 C 171.417969 293.890625 168.578125 291.714844 167.445312 290.960938 Z M 167.445312 290.960938 "/>
<path style=" stroke:none;fill-rule:nonzero;fill:rgb(99.609375%,78.819275%,71.759033%);fill-opacity:1;" d="M 187.878906 286.144531 C 188.257812 287.5625 188.539062 288.976562 188.917969 290.394531 C 187.785156 291.621094 186.835938 292.753906 186.269531 293.511719 C 185.417969 294.644531 185.136719 295.117188 184.285156 295.496094 C 183.335938 295.964844 182.863281 295.589844 181.824219 296.0625 C 180.59375 296.53125 179.742188 297.570312 179.835938 297.761719 C 180.027344 298.042969 181.539062 297.289062 181.632812 297.476562 C 181.730469 297.667969 179.648438 298.421875 179.457031 299.648438 C 179.269531 300.6875 180.59375 302.199219 181.824219 302.386719 C 183.433594 302.578125 184.09375 300.59375 187.121094 297.667969 C 191.1875 293.792969 194.5 293.320312 194.59375 290.867188 C 194.59375 290.300781 194.5 288.976562 194.121094 287.75 C 193.933594 286.898438 193.648438 286.238281 193.460938 285.765625 C 191.566406 285.957031 189.769531 286.050781 187.878906 286.144531 Z M 187.878906 286.144531 "/>
<path style=" stroke:none;fill-rule:nonzero;fill:rgb(98.81897%,31.759644%,20.779419%);fill-opacity:1;" d="M 190.714844 271.035156 C 189.863281 271.035156 189.582031 272.167969 187.121094 276.039062 C 186.363281 277.265625 186.082031 277.644531 185.796875 278.496094 C 185.511719 279.535156 185.609375 280.382812 185.890625 282.082031 C 186.175781 283.5 186.554688 285.199219 187.121094 287.277344 C 187.878906 287.5625 189.203125 287.84375 190.8125 287.75 C 192.230469 287.65625 193.367188 287.183594 194.121094 286.804688 C 194.121094 285.765625 194.027344 284.257812 194.027344 282.460938 C 193.933594 280.101562 193.839844 278.777344 193.648438 277.171875 C 193.367188 274.90625 192.988281 273.773438 192.324219 272.734375 C 191.851562 271.882812 191.378906 271.128906 190.714844 271.035156 Z M 190.714844 271.035156 "/>
<path style=" stroke:none;fill-rule:nonzero;fill:rgb(27.449036%,30.589294%,67.059326%);fill-opacity:1;" d="M 164.984375 300.972656 L 154.957031 290.582031 L 155.714844 289.734375 L 187.027344 294.925781 L 188.066406 309 L 187.40625 309.847656 Z M 164.984375 300.972656 "/>
<path style=" stroke:none;fill-rule:nonzero;fill:rgb(26.269531%,27.059937%,36.859131%);fill-opacity:1;" d="M 154.957031 290.582031 C 155.335938 295.210938 155.714844 299.839844 156.09375 304.464844 C 166.5 306.261719 176.90625 308.054688 187.3125 309.847656 C 186.933594 305.128906 186.648438 300.3125 186.269531 295.589844 C 175.863281 293.890625 165.457031 292.285156 154.957031 290.582031 Z M 154.957031 290.582031 "/>
</g>
</svg>
