<?xml version="1.0" encoding="UTF-8"?>
<svg xmlns="http://www.w3.org/2000/svg" xmlns:xlink="http://www.w3.org/1999/xlink" width="375pt" height="374.999991pt" viewBox="0 0 375 374.999991" version="1.2">
<defs>
<clipPath id="clip1">
  <path d="M 137 294 L 197 294 L 197 351.984375 L 137 351.984375 Z M 137 294 "/>
</clipPath>
<filter id="alpha" filterUnits="objectBoundingBox" x="0%" y="0%" width="100%" height="100%">
  <feColorMatrix type="matrix" in="SourceGraphic" values="0 0 0 0 1 0 0 0 0 1 0 0 0 0 1 0 0 0 1 0"/>
</filter>
<mask id="mask0">
  <g filter="url(#alpha)">
<rect x="0" y="0" width="375" height="374.999991" style="fill:rgb(0%,0%,0%);fill-opacity:0.0471;stroke:none;"/>
  </g>
</mask>
<clipPath id="clip3">
  <path d="M 1 1 L 59.800781 1 L 59.800781 57.984375 L 1 57.984375 Z M 1 1 "/>
</clipPath>
<clipPath id="clip2">
  <rect x="0" y="0" width="60" height="58"/>
</clipPath>
<g id="surface5" clip-path="url(#clip2)">
<g clip-path="url(#clip3)" clip-rule="nonzero">
<path style=" stroke:none;fill-rule:nonzero;fill:rgb(34.899902%,13.729858%,4.708862%);fill-opacity:1;" d="M 50.878906 3.523438 C 53.433594 5.320312 56.742188 9.195312 58.351562 13.824219 C 59.296875 16.566406 59.296875 18.269531 59.203125 18.835938 C 59.015625 21.953125 57.40625 23.089844 55.890625 26.113281 C 54.472656 28.949219 54.851562 29.988281 54.566406 33.390625 C 54.378906 35.1875 54.1875 36.511719 53.621094 39.0625 C 52.863281 42.277344 52.296875 42.9375 50.878906 47.757812 C 50.5 48.988281 50.214844 50.027344 50.121094 50.59375 C 49.742188 52.957031 49.269531 55.414062 48.890625 57.777344 C 38.390625 56.078125 27.890625 54.28125 17.390625 52.578125 C 18.523438 47.570312 19.753906 42.558594 20.890625 37.550781 C 18.523438 40.007812 16.445312 41.992188 14.835938 43.410156 C 9.160156 48.515625 6.984375 49.269531 4.902344 49.269531 C 4.144531 49.269531 1.96875 49.269531 1.496094 48.230469 C 0.738281 46.4375 6.890625 43.503906 14.078125 35.566406 C 17.292969 31.972656 18.242188 30.179688 18.808594 29.042969 C 20.699219 24.886719 20.699219 21.007812 20.511719 18.457031 C 21.171875 16.09375 21.742188 13.730469 22.402344 11.367188 C 31.957031 1.445312 44.539062 -0.824219 50.878906 3.523438 Z M 50.878906 3.523438 "/>
</g>
</g>
<mask id="mask1">
  <g filter="url(#alpha)">
<rect x="0" y="0" width="375" height="374.999991" style="fill:rgb(0%,0%,0%);fill-opacity:0.0471;stroke:none;"/>
  </g>
</mask>
<clipPath id="clip5">
  <path d="M 0.121094 0.0390625 L 365 0.0390625 L 365 204 L 0.121094 204 Z M 0.121094 0.0390625 "/>
</clipPath>
<clipPath id="clip4">
  <rect x="0" y="0" width="366" height="205"/>
</clipPath>
<g id="surface8" clip-path="url(#clip4)">
<g clip-path="url(#clip5)" clip-rule="nonzero">
<path style=" stroke:none;fill-rule:nonzero;fill:rgb(34.899902%,13.729858%,4.708862%);fill-opacity:1;" d="M 362.214844 100.449219 L 186.636719 0.636719 L 133.847656 56.96875 L 114.265625 45.628906 C 111.144531 43.832031 106.035156 43.832031 102.820312 45.628906 L 3.769531 103.191406 C 3.582031 103.285156 3.394531 103.472656 3.203125 103.566406 L 0.554688 104.511719 L 1.59375 107.160156 C 1.691406 107.347656 1.691406 107.632812 1.878906 107.820312 C 2.257812 108.578125 2.917969 109.238281 3.867188 109.808594 L 164.878906 202.625 C 168 204.421875 173.109375 204.421875 176.324219 202.625 L 275.371094 145.0625 C 276.789062 144.210938 277.546875 143.171875 277.738281 142.132812 L 361.554688 109.710938 C 365.527344 108.199219 366 102.625 362.214844 100.449219 Z M 362.214844 100.449219 "/>
</g>
</g>
<mask id="mask2">
  <g filter="url(#alpha)">
<rect x="0" y="0" width="375" height="374.999991" style="fill:rgb(0%,0%,0%);fill-opacity:0.8;stroke:none;"/>
  </g>
</mask>
<clipPath id="clip6">
  <rect x="0" y="0" width="215" height="124"/>
</clipPath>
<g id="surface11" clip-path="url(#clip6)">
<path style=" stroke:none;fill-rule:nonzero;fill:rgb(34.899902%,13.729858%,4.708862%);fill-opacity:1;" d="M 209.167969 91.328125 C 208.503906 91.328125 207.9375 91.234375 207.558594 90.949219 L 57.804688 4.558594 C 57.425781 4.367188 57.238281 4.085938 57.238281 3.800781 C 57.238281 3.515625 57.425781 3.234375 57.804688 3.046875 L 60.265625 1.628906 C 60.738281 1.34375 61.304688 1.25 61.875 1.25 C 62.535156 1.25 63.101562 1.34375 63.480469 1.628906 L 213.234375 88.019531 C 213.613281 88.207031 213.804688 88.492188 213.804688 88.773438 C 213.804688 89.058594 213.613281 89.34375 213.234375 89.53125 L 210.777344 90.949219 C 210.398438 91.136719 209.828125 91.328125 209.167969 91.328125 Z M 209.167969 91.328125 "/>
<path style=" stroke:none;fill-rule:nonzero;fill:rgb(34.899902%,13.729858%,4.708862%);fill-opacity:1;" d="M 137.648438 114.203125 C 136.988281 114.203125 136.417969 114.105469 136.039062 113.824219 L 127.433594 108.90625 C 127.054688 108.71875 126.863281 108.433594 126.863281 108.152344 C 126.863281 107.867188 127.054688 107.585938 127.433594 107.394531 L 128.851562 106.546875 C 129.324219 106.261719 129.890625 106.167969 130.460938 106.167969 C 131.121094 106.167969 131.6875 106.261719 132.066406 106.546875 L 140.675781 111.460938 C 141.054688 111.648438 141.242188 111.933594 141.242188 112.214844 C 141.242188 112.5 141.054688 112.785156 140.675781 112.972656 L 139.257812 113.824219 C 138.878906 114.105469 138.3125 114.203125 137.648438 114.203125 Z M 137.648438 114.203125 "/>
<path style=" stroke:none;fill-rule:nonzero;fill:rgb(34.899902%,13.729858%,4.708862%);fill-opacity:1;" d="M 152.3125 122.707031 C 151.648438 122.707031 151.082031 122.613281 150.703125 122.328125 L 142.09375 117.414062 C 141.71875 117.226562 141.527344 116.941406 141.527344 116.660156 C 141.527344 116.375 141.71875 116.089844 142.09375 115.902344 L 150.609375 110.988281 C 151.082031 110.703125 151.648438 110.609375 152.21875 110.609375 C 152.878906 110.609375 153.449219 110.703125 153.824219 110.988281 L 162.433594 115.902344 C 162.8125 116.089844 163.003906 116.375 163.003906 116.660156 C 163.003906 116.941406 162.8125 117.226562 162.433594 117.414062 L 153.921875 122.328125 C 153.542969 122.519531 152.972656 122.707031 152.3125 122.707031 Z M 152.3125 122.707031 "/>
<path style=" stroke:none;fill-rule:nonzero;fill:rgb(34.899902%,13.729858%,4.708862%);fill-opacity:1;" d="M 144.746094 110.042969 C 144.082031 110.042969 143.515625 109.949219 143.136719 109.664062 L 134.527344 104.75 C 134.148438 104.558594 133.960938 104.277344 133.960938 103.992188 C 133.960938 103.710938 134.148438 103.425781 134.527344 103.238281 L 135.945312 102.386719 C 136.417969 102.101562 136.988281 102.007812 137.554688 102.007812 C 138.214844 102.007812 138.785156 102.101562 139.164062 102.386719 L 147.769531 107.300781 C 148.148438 107.492188 148.339844 107.773438 148.339844 108.058594 C 148.339844 108.339844 148.148438 108.625 147.769531 108.8125 L 146.351562 109.664062 C 145.972656 109.949219 145.40625 110.042969 144.746094 110.042969 Z M 144.746094 110.042969 "/>
<path style=" stroke:none;fill-rule:nonzero;fill:rgb(34.899902%,13.729858%,4.708862%);fill-opacity:1;" d="M 122.984375 105.789062 C 122.324219 105.789062 121.757812 105.695312 121.378906 105.410156 L 112.769531 100.496094 C 112.390625 100.308594 112.203125 100.023438 112.203125 99.738281 C 112.203125 99.457031 112.390625 99.171875 112.769531 98.984375 L 121.28125 94.066406 C 121.757812 93.785156 122.324219 93.691406 122.890625 93.691406 C 123.554688 93.691406 124.121094 93.785156 124.5 94.066406 L 133.109375 98.984375 C 133.488281 99.171875 133.675781 99.457031 133.675781 99.738281 C 133.675781 100.023438 133.488281 100.308594 133.109375 100.496094 L 124.59375 105.410156 C 124.214844 105.601562 123.554688 105.789062 122.984375 105.789062 Z M 122.984375 105.789062 "/>
<path style=" stroke:none;fill-rule:nonzero;fill:rgb(34.899902%,13.729858%,4.708862%);fill-opacity:1;" d="M 108.324219 97.28125 C 107.660156 97.28125 107.09375 97.1875 106.714844 96.902344 L 39.359375 58.054688 C 38.980469 57.867188 38.789062 57.582031 38.789062 57.300781 C 38.789062 57.015625 38.980469 56.734375 39.359375 56.542969 L 47.871094 51.628906 C 48.34375 51.34375 48.914062 51.25 49.480469 51.25 C 50.144531 51.25 50.710938 51.34375 51.089844 51.628906 L 118.351562 90.476562 C 118.730469 90.664062 118.917969 90.949219 118.917969 91.234375 C 118.917969 91.515625 118.730469 91.800781 118.351562 91.988281 L 109.835938 96.902344 C 109.457031 97.1875 108.890625 97.28125 108.324219 97.28125 Z M 108.324219 97.28125 "/>
<path style=" stroke:none;fill-rule:nonzero;fill:rgb(34.899902%,13.729858%,4.708862%);fill-opacity:1;" d="M 34.910156 54.9375 C 34.25 54.9375 33.683594 54.84375 33.304688 54.558594 L 24.695312 49.644531 C 24.316406 49.453125 24.128906 49.171875 24.128906 48.886719 C 24.128906 48.605469 24.316406 48.320312 24.695312 48.132812 L 33.210938 43.214844 C 33.683594 42.933594 34.25 42.839844 34.816406 42.839844 C 35.480469 42.839844 36.046875 42.933594 36.425781 43.214844 L 45.035156 48.132812 C 45.414062 48.320312 45.601562 48.605469 45.601562 48.886719 C 45.601562 49.171875 45.414062 49.453125 45.035156 49.644531 L 36.519531 54.558594 C 36.140625 54.84375 35.574219 54.9375 34.910156 54.9375 Z M 34.910156 54.9375 "/>
<path style=" stroke:none;fill-rule:nonzero;fill:rgb(34.899902%,13.729858%,4.708862%);fill-opacity:1;" d="M 20.628906 46.714844 C 19.964844 46.714844 19.398438 46.617188 19.019531 46.335938 L 1.800781 36.410156 C 1.421875 36.222656 1.234375 35.9375 1.234375 35.65625 C 1.234375 35.371094 1.421875 35.085938 1.800781 34.898438 L 10.316406 29.984375 C 10.789062 29.699219 11.355469 29.605469 11.921875 29.605469 C 12.585938 29.605469 13.152344 29.699219 13.53125 29.984375 L 30.75 39.90625 C 31.128906 40.097656 31.316406 40.378906 31.316406 40.664062 C 31.316406 40.949219 31.128906 41.230469 30.75 41.421875 L 22.234375 46.335938 C 21.855469 46.523438 21.195312 46.714844 20.628906 46.714844 Z M 20.628906 46.714844 "/>
<path style=" stroke:none;fill-rule:nonzero;fill:rgb(34.899902%,13.729858%,4.708862%);fill-opacity:1;" d="M 55.628906 50.398438 C 54.96875 50.398438 54.398438 50.304688 54.019531 50.023438 L 45.414062 45.105469 C 45.035156 44.917969 44.84375 44.632812 44.84375 44.351562 C 44.84375 44.066406 45.035156 43.785156 45.414062 43.59375 L 53.925781 38.679688 C 54.398438 38.394531 54.96875 38.300781 55.535156 38.300781 C 56.195312 38.300781 56.765625 38.394531 57.144531 38.679688 L 65.753906 43.59375 C 66.128906 43.785156 66.320312 44.066406 66.320312 44.351562 C 66.320312 44.632812 66.128906 44.917969 65.753906 45.105469 L 57.238281 50.023438 C 56.765625 50.304688 56.199219 50.398438 55.628906 50.398438 Z M 55.628906 50.398438 "/>
<path style=" stroke:none;fill-rule:nonzero;fill:rgb(34.899902%,13.729858%,4.708862%);fill-opacity:1;" d="M 70.292969 58.90625 C 69.628906 58.90625 69.0625 58.8125 68.683594 58.527344 L 60.074219 53.613281 C 59.699219 53.425781 59.507812 53.140625 59.507812 52.855469 C 59.507812 52.574219 59.699219 52.289062 60.074219 52.101562 L 68.589844 47.1875 C 69.0625 46.902344 69.628906 46.808594 70.199219 46.808594 C 70.859375 46.808594 71.429688 46.902344 71.804688 47.1875 L 80.414062 52.101562 C 80.792969 52.289062 80.984375 52.574219 80.984375 52.855469 C 80.984375 53.140625 80.792969 53.425781 80.414062 53.613281 L 71.902344 58.527344 C 71.429688 58.71875 70.859375 58.90625 70.292969 58.90625 Z M 70.292969 58.90625 "/>
<path style=" stroke:none;fill-rule:nonzero;fill:rgb(34.899902%,13.729858%,4.708862%);fill-opacity:1;" d="M 84.957031 67.320312 C 84.292969 67.320312 83.726562 67.222656 83.347656 66.941406 L 74.738281 62.027344 C 74.359375 61.835938 74.171875 61.554688 74.171875 61.269531 C 74.171875 60.984375 74.359375 60.703125 74.738281 60.511719 L 83.253906 55.597656 C 83.726562 55.316406 84.292969 55.21875 84.863281 55.21875 C 85.523438 55.21875 86.089844 55.316406 86.46875 55.597656 L 95.078125 60.511719 C 95.457031 60.703125 95.644531 60.984375 95.644531 61.269531 C 95.644531 61.554688 95.457031 61.835938 95.078125 62.027344 L 86.5625 66.941406 C 86.1875 67.222656 85.523438 67.320312 84.957031 67.320312 Z M 84.957031 67.320312 "/>
<path style=" stroke:none;fill-rule:nonzero;fill:rgb(34.899902%,13.729858%,4.708862%);fill-opacity:1;" d="M 99.621094 75.824219 C 98.957031 75.824219 98.390625 75.730469 98.011719 75.449219 L 89.402344 70.53125 C 89.023438 70.34375 88.835938 70.058594 88.835938 69.777344 C 88.835938 69.492188 89.023438 69.210938 89.402344 69.019531 L 97.917969 64.105469 C 98.390625 63.820312 98.957031 63.726562 99.523438 63.726562 C 100.1875 63.726562 100.753906 63.820312 101.132812 64.105469 L 109.742188 69.019531 C 110.121094 69.210938 110.308594 69.492188 110.308594 69.777344 C 110.308594 70.058594 110.121094 70.34375 109.742188 70.53125 L 101.226562 75.449219 C 100.847656 75.636719 100.28125 75.824219 99.621094 75.824219 Z M 99.621094 75.824219 "/>
<path style=" stroke:none;fill-rule:nonzero;fill:rgb(34.899902%,13.729858%,4.708862%);fill-opacity:1;" d="M 114.28125 84.238281 C 113.621094 84.238281 113.050781 84.144531 112.675781 83.859375 L 104.066406 78.945312 C 103.6875 78.757812 103.496094 78.472656 103.496094 78.1875 C 103.496094 77.90625 103.6875 77.621094 104.066406 77.433594 L 112.578125 72.519531 C 113.050781 72.234375 113.621094 72.140625 114.1875 72.140625 C 114.851562 72.140625 115.417969 72.234375 115.796875 72.519531 L 124.40625 77.433594 C 124.785156 77.621094 124.972656 77.90625 124.972656 78.1875 C 124.972656 78.472656 124.785156 78.757812 124.40625 78.945312 L 115.890625 83.859375 C 115.511719 84.144531 114.945312 84.238281 114.28125 84.238281 Z M 114.28125 84.238281 "/>
<path style=" stroke:none;fill-rule:nonzero;fill:rgb(34.899902%,13.729858%,4.708862%);fill-opacity:1;" d="M 128.945312 92.746094 C 128.285156 92.746094 127.714844 92.652344 127.335938 92.367188 L 118.730469 87.453125 C 118.351562 87.261719 118.160156 86.980469 118.160156 86.695312 C 118.160156 86.414062 118.351562 86.128906 118.730469 85.941406 L 127.242188 81.023438 C 127.714844 80.742188 128.285156 80.644531 128.851562 80.644531 C 129.511719 80.644531 130.082031 80.742188 130.460938 81.023438 L 139.066406 85.941406 C 139.445312 86.128906 139.636719 86.414062 139.636719 86.695312 C 139.636719 86.980469 139.445312 87.261719 139.066406 87.453125 L 130.554688 92.367188 C 130.175781 92.652344 129.609375 92.746094 128.945312 92.746094 Z M 128.945312 92.746094 "/>
<path style=" stroke:none;fill-rule:nonzero;fill:rgb(34.899902%,13.729858%,4.708862%);fill-opacity:1;" d="M 143.609375 101.25 C 142.945312 101.25 142.378906 101.15625 142 100.875 L 133.390625 95.957031 C 133.011719 95.769531 132.824219 95.484375 132.824219 95.203125 C 132.824219 94.917969 133.011719 94.636719 133.390625 94.445312 L 141.90625 89.53125 C 142.378906 89.246094 142.945312 89.152344 143.515625 89.152344 C 144.175781 89.152344 144.746094 89.246094 145.121094 89.53125 L 153.730469 94.445312 C 154.109375 94.636719 154.300781 94.917969 154.300781 95.203125 C 154.300781 95.484375 154.109375 95.769531 153.730469 95.957031 L 145.21875 100.875 C 144.839844 101.0625 144.269531 101.25 143.609375 101.25 Z M 143.609375 101.25 "/>
<path style=" stroke:none;fill-rule:nonzero;fill:rgb(34.899902%,13.729858%,4.708862%);fill-opacity:1;" d="M 63.386719 38.488281 C 62.726562 38.488281 62.15625 38.394531 61.777344 38.113281 L 53.171875 33.195312 C 52.792969 33.007812 52.601562 32.722656 52.601562 32.441406 C 52.601562 32.15625 52.792969 31.875 53.171875 31.683594 L 61.683594 26.769531 C 62.15625 26.484375 62.726562 26.390625 63.292969 26.390625 C 63.953125 26.390625 64.523438 26.484375 64.902344 26.769531 L 73.507812 31.683594 C 73.886719 31.875 74.078125 32.15625 74.078125 32.441406 C 74.078125 32.722656 73.886719 33.007812 73.507812 33.195312 L 64.996094 38.113281 C 64.617188 38.300781 63.953125 38.488281 63.386719 38.488281 Z M 63.386719 38.488281 "/>
<path style=" stroke:none;fill-rule:nonzero;fill:rgb(34.899902%,13.729858%,4.708862%);fill-opacity:1;" d="M 78.050781 46.902344 C 77.386719 46.902344 76.820312 46.808594 76.441406 46.523438 L 67.832031 41.609375 C 67.453125 41.421875 67.265625 41.136719 67.265625 40.851562 C 67.265625 40.570312 67.453125 40.285156 67.832031 40.097656 L 76.347656 35.183594 C 76.820312 34.898438 77.386719 34.804688 77.957031 34.804688 C 78.617188 34.804688 79.183594 34.898438 79.5625 35.183594 L 88.171875 40.097656 C 88.550781 40.285156 88.738281 40.570312 88.738281 40.851562 C 88.738281 41.136719 88.550781 41.421875 88.171875 41.609375 L 79.660156 46.523438 C 79.28125 46.808594 78.710938 46.902344 78.050781 46.902344 Z M 78.050781 46.902344 "/>
<path style=" stroke:none;fill-rule:nonzero;fill:rgb(34.899902%,13.729858%,4.708862%);fill-opacity:1;" d="M 92.714844 55.410156 C 92.050781 55.410156 91.484375 55.316406 91.105469 55.03125 L 82.496094 50.117188 C 82.117188 49.925781 81.929688 49.644531 81.929688 49.359375 C 81.929688 49.078125 82.117188 48.792969 82.496094 48.605469 L 91.011719 43.6875 C 91.484375 43.40625 92.050781 43.3125 92.617188 43.3125 C 93.28125 43.3125 93.847656 43.40625 94.226562 43.6875 L 102.835938 48.605469 C 103.214844 48.792969 103.402344 49.078125 103.402344 49.359375 C 103.402344 49.644531 103.214844 49.925781 102.835938 50.117188 L 94.320312 55.03125 C 93.941406 55.21875 93.375 55.410156 92.714844 55.410156 Z M 92.714844 55.410156 "/>
<path style=" stroke:none;fill-rule:nonzero;fill:rgb(34.899902%,13.729858%,4.708862%);fill-opacity:1;" d="M 107.375 63.820312 C 106.714844 63.820312 106.148438 63.726562 105.769531 63.445312 L 97.160156 58.527344 C 96.78125 58.339844 96.59375 58.054688 96.59375 57.773438 C 96.59375 57.488281 96.78125 57.207031 97.160156 57.015625 L 105.671875 52.101562 C 106.148438 51.816406 106.714844 51.722656 107.28125 51.722656 C 107.945312 51.722656 108.511719 51.816406 108.890625 52.101562 L 117.5 57.015625 C 117.878906 57.207031 118.066406 57.488281 118.066406 57.773438 C 118.066406 58.054688 117.878906 58.339844 117.5 58.527344 L 108.984375 63.445312 C 108.605469 63.726562 108.039062 63.820312 107.375 63.820312 Z M 107.375 63.820312 "/>
<path style=" stroke:none;fill-rule:nonzero;fill:rgb(34.899902%,13.729858%,4.708862%);fill-opacity:1;" d="M 122.039062 72.328125 C 121.378906 72.328125 120.808594 72.234375 120.429688 71.949219 L 111.824219 67.035156 C 111.445312 66.847656 111.253906 66.5625 111.253906 66.277344 C 111.253906 65.996094 111.445312 65.710938 111.824219 65.523438 L 120.335938 60.609375 C 120.808594 60.324219 121.378906 60.230469 121.945312 60.230469 C 122.609375 60.230469 123.175781 60.324219 123.554688 60.609375 L 132.164062 65.523438 C 132.539062 65.710938 132.730469 65.996094 132.730469 66.277344 C 132.730469 66.5625 132.539062 66.847656 132.164062 67.035156 L 123.648438 71.949219 C 123.269531 72.140625 122.703125 72.328125 122.039062 72.328125 Z M 122.039062 72.328125 "/>
<path style=" stroke:none;fill-rule:nonzero;fill:rgb(34.899902%,13.729858%,4.708862%);fill-opacity:1;" d="M 136.703125 80.742188 C 136.039062 80.742188 135.472656 80.644531 135.09375 80.363281 L 126.484375 75.449219 C 126.109375 75.257812 125.917969 74.976562 125.917969 74.691406 C 125.917969 74.40625 126.109375 74.125 126.484375 73.933594 L 135 69.019531 C 135.472656 68.738281 136.039062 68.640625 136.609375 68.640625 C 137.269531 68.640625 137.839844 68.738281 138.214844 69.019531 L 146.824219 73.933594 C 147.203125 74.125 147.394531 74.40625 147.394531 74.691406 C 147.394531 74.976562 147.203125 75.257812 146.824219 75.449219 L 138.3125 80.363281 C 137.933594 80.644531 137.367188 80.742188 136.703125 80.742188 Z M 136.703125 80.742188 "/>
<path style=" stroke:none;fill-rule:nonzero;fill:rgb(34.899902%,13.729858%,4.708862%);fill-opacity:1;" d="M 151.367188 89.246094 C 150.703125 89.246094 150.136719 89.152344 149.757812 88.871094 L 141.148438 83.953125 C 140.769531 83.765625 140.582031 83.480469 140.582031 83.199219 C 140.582031 82.914062 140.769531 82.632812 141.148438 82.441406 L 149.664062 77.527344 C 150.136719 77.242188 150.703125 77.148438 151.273438 77.148438 C 151.933594 77.148438 152.5 77.242188 152.878906 77.527344 L 161.488281 82.441406 C 161.867188 82.632812 162.054688 82.914062 162.054688 83.199219 C 162.054688 83.480469 161.867188 83.765625 161.488281 83.953125 L 152.972656 88.871094 C 152.597656 89.058594 152.027344 89.246094 151.367188 89.246094 Z M 151.367188 89.246094 "/>
<path style=" stroke:none;fill-rule:nonzero;fill:rgb(34.899902%,13.729858%,4.708862%);fill-opacity:1;" d="M 54.683594 16.941406 C 54.019531 16.941406 53.453125 16.84375 53.074219 16.5625 L 44.464844 11.644531 C 44.089844 11.457031 43.898438 11.171875 43.898438 10.890625 C 43.898438 10.605469 44.089844 10.324219 44.464844 10.132812 L 52.980469 5.21875 C 53.453125 4.933594 54.019531 4.839844 54.589844 4.839844 C 55.25 4.839844 55.820312 4.933594 56.195312 5.21875 L 64.804688 10.132812 C 65.183594 10.324219 65.375 10.605469 65.375 10.890625 C 65.375 11.171875 65.183594 11.457031 64.804688 11.644531 L 56.292969 16.5625 C 55.914062 16.84375 55.347656 16.941406 54.683594 16.941406 Z M 54.683594 16.941406 "/>
<path style=" stroke:none;fill-rule:nonzero;fill:rgb(34.899902%,13.729858%,4.708862%);fill-opacity:1;" d="M 69.347656 25.445312 C 68.683594 25.445312 68.117188 25.351562 67.738281 25.066406 L 59.128906 20.152344 C 58.75 19.964844 58.5625 19.679688 58.5625 19.398438 C 58.5625 19.113281 58.75 18.828125 59.128906 18.640625 L 67.644531 13.726562 C 68.117188 13.441406 68.683594 13.347656 69.253906 13.347656 C 69.914062 13.347656 70.480469 13.441406 70.859375 13.726562 L 79.46875 18.640625 C 79.847656 18.828125 80.035156 19.113281 80.035156 19.398438 C 80.035156 19.679688 79.847656 19.964844 79.46875 20.152344 L 70.957031 25.066406 C 70.578125 25.257812 70.007812 25.445312 69.347656 25.445312 Z M 69.347656 25.445312 "/>
<path style=" stroke:none;fill-rule:nonzero;fill:rgb(34.899902%,13.729858%,4.708862%);fill-opacity:1;" d="M 84.011719 33.859375 C 83.347656 33.859375 82.78125 33.765625 82.402344 33.480469 L 73.792969 28.566406 C 73.414062 28.375 73.226562 28.09375 73.226562 27.808594 C 73.226562 27.527344 73.414062 27.242188 73.792969 27.054688 L 82.308594 22.136719 C 82.78125 21.855469 83.347656 21.761719 83.914062 21.761719 C 84.578125 21.761719 85.144531 21.855469 85.523438 22.136719 L 94.132812 27.054688 C 94.511719 27.242188 94.699219 27.527344 94.699219 27.808594 C 94.699219 28.09375 94.511719 28.375 94.132812 28.566406 L 85.617188 33.480469 C 85.238281 33.765625 84.671875 33.859375 84.011719 33.859375 Z M 84.011719 33.859375 "/>
<path style=" stroke:none;fill-rule:nonzero;fill:rgb(34.899902%,13.729858%,4.708862%);fill-opacity:1;" d="M 98.671875 42.367188 C 98.011719 42.367188 97.445312 42.269531 97.066406 41.988281 L 88.457031 37.074219 C 88.078125 36.882812 87.890625 36.601562 87.890625 36.316406 C 87.890625 36.03125 88.078125 35.75 88.457031 35.558594 L 96.96875 30.644531 C 97.445312 30.363281 98.011719 30.265625 98.578125 30.265625 C 99.242188 30.265625 99.808594 30.363281 100.1875 30.644531 L 108.796875 35.558594 C 109.175781 35.75 109.363281 36.03125 109.363281 36.316406 C 109.363281 36.601562 109.175781 36.882812 108.796875 37.074219 L 100.28125 41.988281 C 99.902344 42.269531 99.335938 42.367188 98.671875 42.367188 Z M 98.671875 42.367188 "/>
<path style=" stroke:none;fill-rule:nonzero;fill:rgb(34.899902%,13.729858%,4.708862%);fill-opacity:1;" d="M 113.335938 50.871094 C 112.675781 50.871094 112.105469 50.777344 111.726562 50.496094 L 103.121094 45.578125 C 102.742188 45.390625 102.550781 45.105469 102.550781 44.824219 C 102.550781 44.539062 102.742188 44.257812 103.121094 44.066406 L 111.632812 39.152344 C 112.105469 38.867188 112.675781 38.773438 113.242188 38.773438 C 113.902344 38.773438 114.472656 38.867188 114.851562 39.152344 L 123.457031 44.066406 C 123.835938 44.257812 124.027344 44.539062 124.027344 44.824219 C 124.027344 45.105469 123.835938 45.390625 123.457031 45.578125 L 114.945312 50.496094 C 114.566406 50.683594 114 50.871094 113.335938 50.871094 Z M 113.335938 50.871094 "/>
<path style=" stroke:none;fill-rule:nonzero;fill:rgb(34.899902%,13.729858%,4.708862%);fill-opacity:1;" d="M 128.09375 59.285156 C 127.433594 59.285156 126.863281 59.191406 126.484375 58.90625 L 117.878906 53.992188 C 117.5 53.800781 117.308594 53.519531 117.308594 53.234375 C 117.308594 52.953125 117.5 52.667969 117.878906 52.480469 L 126.390625 47.5625 C 126.863281 47.28125 127.433594 47.1875 128 47.1875 C 128.660156 47.1875 129.230469 47.28125 129.609375 47.5625 L 138.214844 52.480469 C 138.59375 52.667969 138.785156 52.953125 138.785156 53.234375 C 138.785156 53.519531 138.59375 53.800781 138.214844 53.992188 L 129.703125 58.90625 C 129.230469 59.191406 128.660156 59.285156 128.09375 59.285156 Z M 128.09375 59.285156 "/>
<path style=" stroke:none;fill-rule:nonzero;fill:rgb(34.899902%,13.729858%,4.708862%);fill-opacity:1;" d="M 142.757812 67.792969 C 142.09375 67.792969 141.527344 67.695312 141.148438 67.414062 L 132.539062 62.5 C 132.164062 62.308594 131.972656 62.027344 131.972656 61.742188 C 131.972656 61.457031 132.164062 61.175781 132.539062 60.984375 L 141.054688 56.070312 C 141.527344 55.789062 142.09375 55.691406 142.664062 55.691406 C 143.324219 55.691406 143.894531 55.789062 144.269531 56.070312 L 152.878906 60.984375 C 153.257812 61.175781 153.449219 61.457031 153.449219 61.742188 C 153.449219 62.027344 153.257812 62.308594 152.878906 62.5 L 144.367188 67.414062 C 143.988281 67.601562 143.324219 67.792969 142.757812 67.792969 Z M 142.757812 67.792969 "/>
<path style=" stroke:none;fill-rule:nonzero;fill:rgb(34.899902%,13.729858%,4.708862%);fill-opacity:1;" d="M 157.421875 76.203125 C 156.757812 76.203125 156.191406 76.109375 155.8125 75.824219 L 147.203125 70.910156 C 146.824219 70.722656 146.636719 70.4375 146.636719 70.15625 C 146.636719 69.871094 146.824219 69.585938 147.203125 69.398438 L 155.71875 64.484375 C 156.191406 64.199219 156.757812 64.105469 157.328125 64.105469 C 157.988281 64.105469 158.554688 64.199219 158.933594 64.484375 L 167.542969 69.398438 C 167.921875 69.585938 168.109375 69.871094 168.109375 70.15625 C 168.109375 70.4375 167.921875 70.722656 167.542969 70.910156 L 159.027344 75.824219 C 158.652344 76.109375 157.988281 76.203125 157.421875 76.203125 Z M 157.421875 76.203125 "/>
<path style=" stroke:none;fill-rule:nonzero;fill:rgb(34.899902%,13.729858%,4.708862%);fill-opacity:1;" d="M 172.085938 84.710938 C 171.421875 84.710938 170.855469 84.617188 170.476562 84.332031 L 161.867188 79.417969 C 161.488281 79.230469 161.300781 78.945312 161.300781 78.660156 C 161.300781 78.378906 161.488281 78.09375 161.867188 77.90625 L 170.382812 72.992188 C 170.855469 72.707031 171.421875 72.613281 171.988281 72.613281 C 172.652344 72.613281 173.21875 72.707031 173.597656 72.992188 L 182.207031 77.90625 C 182.585938 78.09375 182.773438 78.378906 182.773438 78.660156 C 182.773438 78.945312 182.585938 79.230469 182.207031 79.417969 L 173.691406 84.332031 C 173.3125 84.523438 172.746094 84.710938 172.085938 84.710938 Z M 172.085938 84.710938 "/>
<path style=" stroke:none;fill-rule:nonzero;fill:rgb(34.899902%,13.729858%,4.708862%);fill-opacity:1;" d="M 40.964844 41.988281 C 40.304688 41.988281 39.738281 41.894531 39.359375 41.609375 L 16.085938 28.1875 C 15.707031 28 15.519531 27.714844 15.519531 27.429688 C 15.519531 27.148438 15.707031 26.863281 16.085938 26.675781 L 24.601562 21.761719 C 25.074219 21.476562 25.640625 21.382812 26.207031 21.382812 C 26.871094 21.382812 27.4375 21.476562 27.816406 21.761719 L 51.089844 35.183594 C 51.46875 35.371094 51.65625 35.65625 51.65625 35.9375 C 51.65625 36.222656 51.46875 36.503906 51.089844 36.695312 L 42.574219 41.609375 C 42.101562 41.796875 41.535156 41.988281 40.964844 41.988281 Z M 40.964844 41.988281 "/>
<path style=" stroke:none;fill-rule:nonzero;fill:rgb(34.899902%,13.729858%,4.708862%);fill-opacity:1;" d="M 49.007812 30.171875 C 48.34375 30.171875 47.777344 30.078125 47.398438 29.792969 L 30.183594 19.871094 C 29.804688 19.679688 29.613281 19.398438 29.613281 19.113281 C 29.613281 18.828125 29.804688 18.546875 30.183594 18.355469 L 38.695312 13.441406 C 39.167969 13.160156 39.738281 13.0625 40.304688 13.0625 C 40.964844 13.0625 41.535156 13.160156 41.914062 13.441406 L 59.128906 23.367188 C 59.507812 23.554688 59.699219 23.839844 59.699219 24.125 C 59.699219 24.40625 59.507812 24.691406 59.128906 24.878906 L 50.617188 29.792969 C 50.238281 30.078125 49.667969 30.171875 49.007812 30.171875 Z M 49.007812 30.171875 "/>
<path style=" stroke:none;fill-rule:nonzero;fill:rgb(34.899902%,13.729858%,4.708862%);fill-opacity:1;" d="M 166.503906 114.675781 C 165.839844 114.675781 165.273438 114.578125 164.894531 114.296875 L 147.675781 104.371094 C 147.296875 104.183594 147.109375 103.898438 147.109375 103.613281 C 147.109375 103.332031 147.296875 103.046875 147.675781 102.859375 L 156.191406 97.945312 C 156.664062 97.660156 157.230469 97.566406 157.800781 97.566406 C 158.460938 97.566406 159.027344 97.660156 159.40625 97.945312 L 176.625 107.867188 C 177.003906 108.058594 177.191406 108.339844 177.191406 108.625 C 177.191406 108.90625 177.003906 109.191406 176.625 109.378906 L 168.109375 114.296875 C 167.730469 114.484375 167.164062 114.675781 166.503906 114.675781 Z M 166.503906 114.675781 "/>
<path style=" stroke:none;fill-rule:nonzero;fill:rgb(34.899902%,13.729858%,4.708862%);fill-opacity:1;" d="M 180.789062 106.167969 C 180.125 106.167969 179.558594 106.074219 179.179688 105.789062 L 155.90625 92.367188 C 155.527344 92.179688 155.339844 91.894531 155.339844 91.609375 C 155.339844 91.328125 155.527344 91.042969 155.90625 90.855469 L 164.421875 85.941406 C 164.894531 85.65625 165.460938 85.5625 166.03125 85.5625 C 166.691406 85.5625 167.257812 85.65625 167.636719 85.941406 L 190.910156 99.363281 C 191.289062 99.550781 191.476562 99.835938 191.476562 100.117188 C 191.476562 100.402344 191.289062 100.683594 190.910156 100.875 L 182.394531 105.789062 C 181.921875 105.976562 181.355469 106.167969 180.789062 106.167969 Z M 180.789062 106.167969 "/>
<path style=" stroke:none;fill-rule:nonzero;fill:rgb(34.899902%,13.729858%,4.708862%);fill-opacity:1;" d="M 195.355469 98.132812 C 194.695312 98.132812 194.125 98.039062 193.746094 97.753906 L 176.53125 87.828125 C 176.152344 87.640625 175.960938 87.355469 175.960938 87.074219 C 175.960938 86.789062 176.152344 86.507812 176.53125 86.316406 L 185.042969 81.402344 C 185.515625 81.117188 186.085938 81.023438 186.652344 81.023438 C 187.316406 81.023438 187.882812 81.117188 188.261719 81.402344 L 205.476562 91.328125 C 205.855469 91.515625 206.046875 91.800781 206.046875 92.082031 C 206.046875 92.367188 205.855469 92.652344 205.476562 92.839844 L 196.964844 97.753906 C 196.585938 97.945312 195.921875 98.132812 195.355469 98.132812 Z M 195.355469 98.132812 "/>
</g>
<mask id="mask3">
  <g filter="url(#alpha)">
<rect x="0" y="0" width="375" height="374.999991" style="fill:rgb(0%,0%,0%);fill-opacity:0.2;stroke:none;"/>
  </g>
</mask>
<clipPath id="clip8">
  <path d="M 1 1 L 208.960938 1 L 208.960938 120.839844 L 1 120.839844 Z M 1 1 "/>
</clipPath>
<clipPath id="clip7">
  <rect x="0" y="0" width="209" height="121"/>
</clipPath>
<g id="surface14" clip-path="url(#clip7)">
<g clip-path="url(#clip8)" clip-rule="nonzero">
<path style=" stroke:none;fill-rule:nonzero;fill:rgb(34.899902%,13.729858%,4.708862%);fill-opacity:1;" d="M 208.160156 1.550781 L 166.15625 120.363281 L 1.078125 25.085938 Z M 208.160156 1.550781 "/>
</g>
</g>
<mask id="mask4">
  <g filter="url(#alpha)">
<rect x="0" y="0" width="375" height="374.999991" style="fill:rgb(0%,0%,0%);fill-opacity:0.098;stroke:none;"/>
  </g>
</mask>
<clipPath id="clip10">
  <path d="M 36 0.078125 L 43 0.078125 L 43 9 L 36 9 Z M 36 0.078125 "/>
</clipPath>
<clipPath id="clip9">
  <rect x="0" y="0" width="104" height="136"/>
</clipPath>
<g id="surface17" clip-path="url(#clip9)">
<path style=" stroke:none;fill-rule:nonzero;fill:rgb(74.119568%,62.348938%,61.569214%);fill-opacity:1;" d="M 31.824219 33.894531 L 29.839844 39.472656 L 25.582031 36.921875 L 27.570312 31.4375 Z M 31.824219 33.894531 "/>
<path style=" stroke:none;fill-rule:nonzero;fill:rgb(74.119568%,62.348938%,61.569214%);fill-opacity:1;" d="M 34.570312 26.238281 L 32.582031 31.722656 L 28.324219 29.265625 L 30.21875 23.78125 Z M 34.570312 26.238281 "/>
<path style=" stroke:none;fill-rule:nonzero;fill:rgb(74.119568%,62.348938%,61.569214%);fill-opacity:1;" d="M 37.21875 18.488281 L 35.324219 24.066406 L 30.972656 21.609375 L 32.960938 16.03125 Z M 37.21875 18.488281 "/>
<path style=" stroke:none;fill-rule:nonzero;fill:rgb(74.119568%,62.348938%,61.569214%);fill-opacity:1;" d="M 39.960938 10.832031 L 37.972656 16.410156 L 33.71875 13.855469 L 35.703125 8.375 Z M 39.960938 10.832031 "/>
<g clip-path="url(#clip10)" clip-rule="nonzero">
<path style=" stroke:none;fill-rule:nonzero;fill:rgb(74.119568%,62.348938%,61.569214%);fill-opacity:1;" d="M 42.703125 3.175781 L 40.71875 8.660156 L 36.460938 6.199219 L 38.351562 0.625 Z M 42.703125 3.175781 "/>
</g>
<path style=" stroke:none;fill-rule:nonzero;fill:rgb(74.119568%,62.348938%,61.569214%);fill-opacity:1;" d="M 29.082031 41.550781 L 27.191406 47.128906 L 22.839844 44.671875 L 24.824219 39.09375 Z M 29.082031 41.550781 "/>
<path style=" stroke:none;fill-rule:nonzero;fill:rgb(74.119568%,62.348938%,61.569214%);fill-opacity:1;" d="M 20.945312 64.613281 L 18.960938 70.191406 L 14.703125 67.734375 L 16.6875 62.15625 Z M 20.945312 64.613281 "/>
<path style=" stroke:none;fill-rule:nonzero;fill:rgb(74.119568%,62.348938%,61.569214%);fill-opacity:1;" d="M 23.691406 56.957031 L 21.703125 62.535156 L 17.445312 59.984375 L 19.339844 54.5 Z M 23.691406 56.957031 "/>
<path style=" stroke:none;fill-rule:nonzero;fill:rgb(74.119568%,62.348938%,61.569214%);fill-opacity:1;" d="M 26.433594 49.300781 L 24.445312 54.785156 L 20.09375 52.328125 L 22.082031 46.84375 Z M 26.433594 49.300781 "/>
<path style=" stroke:none;fill-rule:nonzero;fill:rgb(74.119568%,62.348938%,61.569214%);fill-opacity:1;" d="M 12.808594 87.679688 L 10.824219 93.253906 L 6.566406 90.796875 L 8.554688 85.21875 Z M 12.808594 87.679688 "/>
<path style=" stroke:none;fill-rule:nonzero;fill:rgb(74.119568%,62.348938%,61.569214%);fill-opacity:1;" d="M 15.554688 80.023438 L 13.566406 85.597656 L 9.308594 83.046875 L 11.203125 77.5625 Z M 15.554688 80.023438 "/>
<path style=" stroke:none;fill-rule:nonzero;fill:rgb(74.119568%,62.348938%,61.569214%);fill-opacity:1;" d="M 18.203125 72.367188 L 16.3125 77.847656 L 11.960938 75.390625 L 13.945312 69.90625 Z M 18.203125 72.367188 "/>
<path style=" stroke:none;fill-rule:nonzero;fill:rgb(74.119568%,62.348938%,61.569214%);fill-opacity:1;" d="M 7.417969 103.085938 L 5.429688 108.660156 L 1.078125 106.109375 L 3.066406 100.628906 Z M 7.417969 103.085938 "/>
<path style=" stroke:none;fill-rule:nonzero;fill:rgb(74.119568%,62.348938%,61.569214%);fill-opacity:1;" d="M 10.066406 95.429688 L 8.175781 100.910156 L 3.824219 98.453125 L 5.808594 92.972656 Z M 10.066406 95.429688 "/>
<path style=" stroke:none;fill-rule:nonzero;fill:rgb(74.119568%,62.348938%,61.569214%);fill-opacity:1;" d="M 89.4375 40.039062 L 87.449219 45.523438 L 42.988281 19.90625 L 44.976562 14.328125 Z M 89.4375 40.039062 "/>
<path style=" stroke:none;fill-rule:nonzero;fill:rgb(74.119568%,62.348938%,61.569214%);fill-opacity:1;" d="M 50.839844 26.996094 L 48.855469 32.570312 L 40.246094 27.5625 L 42.230469 22.082031 Z M 50.839844 26.996094 "/>
<path style=" stroke:none;fill-rule:nonzero;fill:rgb(74.119568%,62.348938%,61.569214%);fill-opacity:1;" d="M 83.476562 27.375 L 81.585938 32.855469 L 45.730469 12.25 L 47.625 6.671875 Z M 83.476562 27.375 "/>
<path style=" stroke:none;fill-rule:nonzero;fill:rgb(74.119568%,62.348938%,61.569214%);fill-opacity:1;" d="M 88.300781 57.902344 L 86.316406 63.386719 L 41.851562 37.769531 L 43.839844 32.195312 Z M 88.300781 57.902344 "/>
<path style=" stroke:none;fill-rule:nonzero;fill:rgb(74.119568%,62.348938%,61.569214%);fill-opacity:1;" d="M 39.960938 57.808594 L 37.972656 63.292969 L 29.367188 58.375 L 31.351562 52.800781 Z M 39.960938 57.808594 "/>
<path style=" stroke:none;fill-rule:nonzero;fill:rgb(74.119568%,62.348938%,61.569214%);fill-opacity:1;" d="M 60.207031 78.699219 L 58.21875 84.273438 L 26.71875 66.03125 L 28.609375 60.457031 Z M 60.207031 78.699219 "/>
<path style=" stroke:none;fill-rule:nonzero;fill:rgb(74.119568%,62.348938%,61.569214%);fill-opacity:1;" d="M 95.777344 80.683594 L 93.789062 86.261719 L 36.460938 53.179688 L 38.351562 47.601562 Z M 95.777344 80.683594 "/>
<path style=" stroke:none;fill-rule:nonzero;fill:rgb(74.119568%,62.348938%,61.569214%);fill-opacity:1;" d="M 102.777344 75.484375 L 100.789062 81.0625 L 39.109375 45.425781 L 41.097656 39.945312 Z M 102.777344 75.484375 "/>
<path style=" stroke:none;fill-rule:nonzero;fill:rgb(74.119568%,62.348938%,61.569214%);fill-opacity:1;" d="M 53.679688 111.96875 L 51.691406 117.453125 L 24.445312 101.761719 L 26.339844 96.183594 Z M 53.679688 111.96875 "/>
<path style=" stroke:none;fill-rule:nonzero;fill:rgb(74.119568%,62.348938%,61.569214%);fill-opacity:1;" d="M 63.800781 127.09375 L 61.910156 132.574219 L 21.703125 109.417969 L 23.691406 103.933594 Z M 63.800781 127.09375 "/>
<path style=" stroke:none;fill-rule:nonzero;fill:rgb(74.119568%,62.348938%,61.569214%);fill-opacity:1;" d="M 87.640625 103.746094 L 85.652344 109.324219 L 28.230469 76.242188 L 30.21875 70.664062 Z M 87.640625 103.746094 "/>
<path style=" stroke:none;fill-rule:nonzero;fill:rgb(74.119568%,62.348938%,61.569214%);fill-opacity:1;" d="M 89.152344 113.953125 L 87.261719 119.4375 L 25.582031 83.898438 L 27.472656 78.320312 Z M 89.152344 113.953125 "/>
<path style=" stroke:none;fill-rule:nonzero;fill:rgb(74.119568%,62.348938%,61.569214%);fill-opacity:1;" d="M 99.371094 129.078125 L 97.382812 134.558594 L 22.839844 91.554688 L 24.824219 86.070312 Z M 99.371094 129.078125 "/>
<path style=" stroke:none;fill-rule:nonzero;fill:rgb(74.119568%,62.348938%,61.569214%);fill-opacity:1;" d="M 25.296875 114.050781 L 23.3125 119.625 L 14.703125 114.617188 L 16.6875 109.132812 Z M 25.296875 114.050781 "/>
</g>
<mask id="mask5">
  <g filter="url(#alpha)">
<rect x="0" y="0" width="375" height="374.999991" style="fill:rgb(0%,0%,0%);fill-opacity:0.0471;stroke:none;"/>
  </g>
</mask>
<clipPath id="clip11">
  <rect x="0" y="0" width="94" height="48"/>
</clipPath>
<g id="surface20" clip-path="url(#clip11)">
<path style=" stroke:none;fill-rule:nonzero;fill:rgb(34.899902%,13.729858%,4.708862%);fill-opacity:1;" d="M 89.351562 30.308594 L 84.808594 27.664062 C 85.1875 27.570312 85.566406 27.472656 85.945312 27.285156 C 87.171875 26.527344 87.171875 25.394531 85.945312 24.734375 L 46.402344 1.574219 C 45.550781 1.101562 44.320312 0.914062 43.183594 1.101562 L 43.089844 1.101562 C 42.996094 1.101562 42.898438 1.101562 42.804688 1.195312 L 40.722656 1.667969 L 40.535156 1.667969 C 40.25 1.765625 39.875 1.859375 39.683594 2.046875 C 38.453125 2.804688 38.453125 3.9375 39.683594 4.601562 L 79.226562 27.664062 C 80.078125 28.136719 81.402344 28.324219 82.445312 28.136719 L 88.5 31.632812 C 90.011719 32.484375 90.863281 34.089844 90.957031 35.792969 C 90.957031 37.492188 90.105469 39.101562 88.6875 40.046875 L 84.996094 42.3125 C 79.890625 45.527344 73.457031 45.621094 68.160156 42.597656 L 17.261719 13.203125 L 18.683594 12.351562 C 19.816406 11.6875 19.816406 10.648438 18.683594 9.988281 L 9.882812 4.882812 L 1.371094 9.796875 L 10.167969 14.902344 C 11.304688 15.5625 13.101562 15.5625 14.234375 14.902344 L 15.464844 14.144531 L 67.214844 44.109375 C 70.050781 45.714844 73.171875 46.566406 76.292969 46.566406 C 79.605469 46.566406 82.917969 45.621094 85.847656 43.824219 L 89.539062 41.558594 C 91.527344 40.328125 92.660156 38.15625 92.660156 35.886719 C 92.566406 33.523438 91.335938 31.445312 89.351562 30.308594 Z M 89.351562 30.308594 "/>
</g>
<mask id="mask6">
  <g filter="url(#alpha)">
<rect x="0" y="0" width="375" height="374.999991" style="fill:rgb(0%,0%,0%);fill-opacity:0.498;stroke:none;"/>
  </g>
</mask>
<clipPath id="clip13">
  <path d="M 0.480469 1 L 12 1 L 12 8 L 0.480469 8 Z M 0.480469 1 "/>
</clipPath>
<clipPath id="clip12">
  <rect x="0" y="0" width="12" height="9"/>
</clipPath>
<g id="surface23" clip-path="url(#clip12)">
<g clip-path="url(#clip13)" clip-rule="nonzero">
<path style=" stroke:none;fill-rule:nonzero;fill:rgb(34.899902%,13.729858%,4.708862%);fill-opacity:1;" d="M 11.117188 6.675781 C 11.402344 6.863281 11.6875 7.335938 11.6875 7.621094 C 11.6875 8 11.402344 8.09375 11.117188 7.902344 L 1.46875 2.328125 C 1.183594 2.136719 0.902344 1.664062 0.902344 1.382812 C 0.902344 1.003906 1.183594 0.910156 1.46875 1.097656 Z M 11.117188 6.675781 "/>
</g>
</g>
<mask id="mask7">
  <g filter="url(#alpha)">
<rect x="0" y="0" width="375" height="374.999991" style="fill:rgb(0%,0%,0%);fill-opacity:0.0471;stroke:none;"/>
  </g>
</mask>
<clipPath id="clip15">
  <path d="M 1 0.558594 L 85.878906 0.558594 L 85.878906 49 L 1 49 Z M 1 0.558594 "/>
</clipPath>
<clipPath id="clip14">
  <rect x="0" y="0" width="86" height="50"/>
</clipPath>
<g id="surface26" clip-path="url(#clip14)">
<g clip-path="url(#clip15)" clip-rule="nonzero">
<path style=" stroke:none;fill-rule:nonzero;fill:rgb(34.899902%,13.729858%,4.708862%);fill-opacity:1;" d="M 85.085938 1.128906 C 84.992188 0.941406 84.804688 0.847656 84.613281 0.847656 L 70.234375 3.585938 L 4.960938 36.765625 C 2.972656 37.710938 1.460938 39.695312 1.460938 42.058594 C 1.363281 45.367188 4.015625 48.105469 7.324219 48.199219 C 8.554688 48.199219 9.785156 47.917969 10.730469 47.257812 L 74.019531 10.488281 L 85.085938 1.695312 C 85.183594 1.414062 85.183594 1.222656 85.085938 1.128906 Z M 85.085938 1.128906 "/>
</g>
</g>
<mask id="mask8">
  <g filter="url(#alpha)">
<rect x="0" y="0" width="375" height="374.999991" style="fill:rgb(0%,0%,0%);fill-opacity:0.0471;stroke:none;"/>
  </g>
</mask>
<clipPath id="clip17">
  <path d="M 0.160156 1 L 59 1 L 59 32.238281 L 0.160156 32.238281 Z M 0.160156 1 "/>
</clipPath>
<clipPath id="clip16">
  <rect x="0" y="0" width="60" height="33"/>
</clipPath>
<g id="surface29" clip-path="url(#clip16)">
<g clip-path="url(#clip17)" clip-rule="nonzero">
<path style=" stroke:none;fill-rule:nonzero;fill:rgb(34.899902%,13.729858%,4.708862%);fill-opacity:1;" d="M 23.800781 4.820312 C 19.261719 4.253906 16.988281 3.96875 14.8125 3.214844 C 14.4375 3.117188 11.503906 2.078125 7.53125 1.417969 C 5.921875 1.132812 4.976562 1.039062 4.03125 1.417969 C 1.855469 2.269531 0.246094 4.820312 0.90625 6.332031 C 1.191406 7.089844 1.949219 7.089844 5.355469 8.414062 C 6.867188 8.980469 8.476562 9.546875 9.800781 10.207031 C 11.691406 11.152344 12.636719 12.003906 15.097656 14.082031 C 17.179688 15.785156 20.113281 18.242188 21.625 19.375 C 24.179688 21.363281 26.449219 22.589844 30.992188 24.953125 C 38.371094 28.828125 42.058594 30.8125 45.277344 31.476562 C 51.140625 32.609375 57.953125 32.042969 58.710938 29.679688 C 59.183594 28.167969 56.722656 27.316406 56.34375 23.820312 C 56.15625 22.308594 56.628906 21.929688 56.910156 17.675781 C 57.007812 15.972656 57.007812 15.125 56.910156 14.554688 C 56.4375 12.570312 55.019531 11.058594 52.84375 9.640625 C 47.640625 6.144531 41.679688 5.292969 40.449219 5.105469 C 33.070312 4.160156 32.597656 5.859375 23.800781 4.820312 Z M 23.800781 4.820312 "/>
</g>
</g>
<mask id="mask9">
  <g filter="url(#alpha)">
<rect x="0" y="0" width="375" height="374.999991" style="fill:rgb(0%,0%,0%);fill-opacity:0.0471;stroke:none;"/>
  </g>
</mask>
<clipPath id="clip19">
  <path d="M 1 1 L 40.800781 1 L 40.800781 29.28125 L 1 29.28125 Z M 1 1 "/>
</clipPath>
<clipPath id="clip18">
  <rect x="0" y="0" width="41" height="30"/>
</clipPath>
<g id="surface32" clip-path="url(#clip18)">
<g clip-path="url(#clip19)" clip-rule="nonzero">
<path style=" stroke:none;fill-rule:nonzero;fill:rgb(34.899902%,13.729858%,4.708862%);fill-opacity:1;" d="M 40.203125 18.835938 C 40.109375 19.96875 39.824219 20.914062 39.445312 21.765625 L 29.230469 27.71875 C 26.109375 29.515625 21 29.515625 17.78125 27.71875 L 1.605469 18.363281 C 2.269531 16 2.835938 13.730469 3.496094 11.367188 C 12.863281 1.445312 25.445312 -0.824219 31.878906 3.523438 C 34.433594 5.320312 37.742188 9.195312 39.351562 13.824219 C 40.390625 16.660156 40.296875 18.269531 40.203125 18.835938 Z M 40.203125 18.835938 "/>
</g>
</g>
<mask id="mask10">
  <g filter="url(#alpha)">
<rect x="0" y="0" width="375" height="374.999991" style="fill:rgb(0%,0%,0%);fill-opacity:0.0471;stroke:none;"/>
  </g>
</mask>
<clipPath id="clip21">
  <path d="M 0 0.398438 L 17 0.398438 L 17 12.878906 L 0 12.878906 Z M 0 0.398438 "/>
</clipPath>
<clipPath id="clip20">
  <rect x="0" y="0" width="18" height="13"/>
</clipPath>
<g id="surface35" clip-path="url(#clip20)">
<g clip-path="url(#clip21)" clip-rule="nonzero">
<path style=" stroke:none;fill-rule:nonzero;fill:rgb(34.899902%,13.729858%,4.708862%);fill-opacity:1;" d="M 5.40625 0.710938 C 3.230469 0.804688 2.1875 0.898438 1.527344 1.558594 C -0.273438 3.355469 1.050781 9.214844 4.835938 11.296875 C 7.675781 12.902344 10.796875 11.675781 11.363281 11.484375 C 12.027344 11.203125 15.335938 9.878906 16.1875 6.570312 C 16.285156 6.097656 16.851562 3.828125 15.621094 2.410156 C 15.148438 1.84375 14.582031 1.75 9.945312 1.085938 C 7.105469 0.710938 6.445312 0.613281 5.40625 0.710938 Z M 5.40625 0.710938 "/>
</g>
</g>
</defs>
<g id="surface1">
<g clip-path="url(#clip1)" clip-rule="nonzero">
<use xlink:href="#surface5" transform="matrix(1,0,0,1,137,294)" mask="url(#mask0)"/>
</g>
<use xlink:href="#surface8" transform="matrix(1,0,0,1,9,119)" mask="url(#mask1)"/>
<path style=" stroke:none;fill-rule:nonzero;fill:rgb(34.899902%,13.729858%,4.708862%);fill-opacity:1;" d="M 285.507812 253.097656 C 285.601562 251.773438 9.269531 216.234375 9.269531 217.464844 L 9.269531 222.378906 C 9.269531 223.609375 10.027344 224.742188 11.636719 225.6875 L 172.648438 318.601562 C 175.769531 320.398438 180.878906 320.398438 184.09375 318.601562 L 283.140625 261.039062 C 284.75 260.09375 285.507812 258.957031 285.507812 257.730469 L 285.507812 252.816406 C 285.601562 252.910156 285.507812 253.003906 285.507812 253.097656 Z M 285.507812 253.097656 "/>
<path style=" stroke:none;fill-rule:nonzero;fill:rgb(74.119568%,62.348938%,61.569214%);fill-opacity:1;" d="M 283.140625 249.507812 C 286.265625 251.300781 286.359375 254.328125 283.140625 256.125 L 184.09375 313.6875 C 180.972656 315.480469 175.863281 315.480469 172.648438 313.6875 L 11.636719 220.773438 C 8.515625 218.976562 8.417969 215.953125 11.636719 214.15625 L 110.683594 156.59375 C 113.804688 154.796875 118.914062 154.796875 122.128906 156.59375 Z M 283.140625 249.507812 "/>
<path style=" stroke:none;fill-rule:nonzero;fill:rgb(65.879822%,41.178894%,19.999695%);fill-opacity:1;" d="M 154.769531 259.808594 C 156.753906 260.945312 156.753906 262.835938 154.769531 263.96875 L 128.65625 279.089844 C 126.671875 280.226562 123.453125 280.226562 121.5625 279.089844 L 64.707031 246.292969 C 62.722656 245.160156 62.722656 243.269531 64.707031 242.132812 L 90.816406 227.011719 C 92.804688 225.875 96.019531 225.875 97.914062 227.011719 Z M 154.769531 259.808594 "/>
<use xlink:href="#surface11" transform="matrix(1,0,0,1,56,163)" mask="url(#mask2)"/>
<path style=" stroke:none;fill-rule:nonzero;fill:rgb(74.119568%,62.348938%,61.569214%);fill-opacity:1;" d="M 332.808594 117.648438 L 171.703125 24.738281 C 170.851562 24.265625 170 24.074219 169.148438 23.980469 L 166.59375 23.980469 C 164.132812 23.980469 162.429688 26.25 161.296875 29.273438 L 283.332031 249.789062 C 284.277344 250.355469 285.316406 250.546875 286.359375 250.453125 C 286.167969 250.453125 286.074219 250.453125 285.886719 250.453125 L 288.441406 250.453125 C 290.898438 250.453125 293.167969 248.65625 294.210938 245.726562 L 335.742188 128.238281 C 337.347656 124.265625 335.929688 119.445312 332.808594 117.648438 Z M 332.808594 117.648438 "/>
<path style=" stroke:none;fill-rule:nonzero;fill:rgb(34.899902%,13.729858%,4.708862%);fill-opacity:1;" d="M 330.253906 117.648438 C 333.375 119.445312 334.792969 124.265625 333.375 128.332031 L 291.84375 245.820312 C 290.425781 249.886719 286.640625 251.679688 283.519531 249.886719 L 122.507812 156.972656 C 119.386719 155.175781 117.96875 150.355469 119.386719 146.289062 L 160.917969 28.800781 C 162.335938 24.738281 166.121094 22.941406 169.242188 24.738281 Z M 330.253906 117.648438 "/>
<path style=" stroke:none;fill-rule:nonzero;fill:rgb(65.879822%,41.178894%,19.999695%);fill-opacity:1;" d="M 325.808594 125.023438 L 285.601562 238.824219 L 127.429688 147.613281 L 167.632812 33.714844 Z M 325.808594 125.023438 "/>
<use xlink:href="#surface14" transform="matrix(1,0,0,1,122,123)" mask="url(#mask3)"/>
<use xlink:href="#surface17" transform="matrix(1,0,0,1,171,64)" mask="url(#mask4)"/>
<path style=" stroke:none;fill-rule:nonzero;fill:rgb(74.119568%,62.348938%,61.569214%);fill-opacity:1;" d="M 169.714844 65.097656 L 169.621094 70.011719 L 165.363281 67.554688 L 165.363281 62.640625 Z M 169.714844 65.097656 "/>
<path style=" stroke:none;fill-rule:nonzero;fill:rgb(74.119568%,62.348938%,61.569214%);fill-opacity:1;" d="M 169.621094 78.800781 L 169.621094 83.8125 L 165.363281 81.261719 L 165.363281 76.34375 Z M 169.621094 78.800781 "/>
<path style=" stroke:none;fill-rule:nonzero;fill:rgb(74.119568%,62.348938%,61.569214%);fill-opacity:1;" d="M 169.621094 71.996094 L 169.621094 76.910156 L 165.363281 74.453125 L 165.363281 69.445312 Z M 169.621094 71.996094 "/>
<path style=" stroke:none;fill-rule:nonzero;fill:rgb(74.119568%,62.348938%,61.569214%);fill-opacity:1;" d="M 169.527344 106.308594 L 169.527344 111.222656 L 165.269531 108.765625 L 165.269531 103.851562 Z M 169.527344 106.308594 "/>
<path style=" stroke:none;fill-rule:nonzero;fill:rgb(74.119568%,62.348938%,61.569214%);fill-opacity:1;" d="M 169.621094 99.40625 L 169.527344 104.417969 L 165.269531 101.867188 L 165.269531 96.949219 Z M 169.621094 99.40625 "/>
<path style=" stroke:none;fill-rule:nonzero;fill:rgb(74.119568%,62.348938%,61.569214%);fill-opacity:1;" d="M 169.621094 92.601562 L 169.621094 97.515625 L 165.269531 95.058594 L 165.269531 90.144531 Z M 169.621094 92.601562 "/>
<path style=" stroke:none;fill-rule:nonzero;fill:rgb(74.119568%,62.348938%,61.569214%);fill-opacity:1;" d="M 169.621094 85.703125 L 169.621094 90.617188 L 165.269531 88.160156 L 165.363281 83.246094 Z M 169.621094 85.703125 "/>
<path style=" stroke:none;fill-rule:nonzero;fill:rgb(74.119568%,62.348938%,61.569214%);fill-opacity:1;" d="M 169.527344 113.207031 L 169.527344 118.121094 L 165.269531 115.664062 L 165.269531 110.75 Z M 169.527344 113.207031 "/>
<path style=" stroke:none;fill-rule:nonzero;fill:rgb(74.119568%,62.348938%,61.569214%);fill-opacity:1;" d="M 169.429688 147.519531 L 169.429688 152.433594 L 165.175781 149.976562 L 165.175781 145.0625 Z M 169.429688 147.519531 "/>
<path style=" stroke:none;fill-rule:nonzero;fill:rgb(74.119568%,62.348938%,61.569214%);fill-opacity:1;" d="M 169.429688 140.714844 L 169.429688 145.628906 L 165.175781 143.171875 L 165.175781 138.160156 Z M 169.429688 140.714844 "/>
<path style=" stroke:none;fill-rule:nonzero;fill:rgb(74.119568%,62.348938%,61.569214%);fill-opacity:1;" d="M 169.527344 133.8125 L 169.429688 138.726562 L 165.175781 136.269531 L 165.175781 131.355469 Z M 169.527344 133.8125 "/>
<path style=" stroke:none;fill-rule:nonzero;fill:rgb(74.119568%,62.348938%,61.569214%);fill-opacity:1;" d="M 169.527344 126.914062 L 169.527344 131.828125 L 165.175781 129.371094 L 165.175781 124.457031 Z M 169.527344 126.914062 "/>
<path style=" stroke:none;fill-rule:nonzero;fill:rgb(74.119568%,62.348938%,61.569214%);fill-opacity:1;" d="M 169.527344 120.011719 L 169.527344 125.023438 L 165.175781 122.472656 L 165.269531 117.554688 Z M 169.527344 120.011719 "/>
<path style=" stroke:none;fill-rule:nonzero;fill:rgb(74.119568%,62.348938%,61.569214%);fill-opacity:1;" d="M 169.429688 154.417969 L 169.429688 159.335938 L 165.078125 156.875 L 165.175781 151.960938 Z M 169.429688 154.417969 "/>
<path style=" stroke:none;fill-rule:nonzero;fill:rgb(99.609375%,78.819275%,71.759033%);fill-opacity:1;" d="M 183.433594 87.308594 L 183.433594 92.222656 L 174.824219 87.214844 L 174.824219 82.300781 Z M 183.433594 87.308594 "/>
<path style=" stroke:none;fill-rule:nonzero;fill:rgb(99.609375%,78.819275%,71.759033%);fill-opacity:1;" d="M 187.5 165.289062 L 187.5 170.296875 L 178.890625 165.289062 L 178.890625 160.375 Z M 187.5 165.289062 "/>
<path style=" stroke:none;fill-rule:nonzero;fill:rgb(99.609375%,78.819275%,71.759033%);fill-opacity:1;" d="M 210.488281 164.816406 L 210.488281 169.730469 L 183.242188 154.039062 L 183.242188 149.125 Z M 210.488281 164.816406 "/>
<path style=" stroke:none;fill-rule:nonzero;fill:rgb(99.609375%,78.819275%,71.759033%);fill-opacity:1;" d="M 183.335938 114.71875 L 183.335938 119.730469 L 174.730469 114.71875 L 174.730469 109.804688 Z M 183.335938 114.71875 "/>
<path style=" stroke:none;fill-rule:nonzero;fill:rgb(74.119568%,62.348938%,61.569214%);fill-opacity:1;" d="M 223.355469 179.183594 L 223.355469 184.097656 L 183.242188 160.941406 L 183.242188 155.929688 Z M 223.355469 179.183594 "/>
<path style=" stroke:none;fill-rule:nonzero;fill:rgb(99.609375%,78.819275%,71.759033%);fill-opacity:1;" d="M 206.230469 134.851562 L 206.230469 139.769531 L 174.730469 121.621094 L 174.730469 116.707031 Z M 206.230469 134.851562 "/>
<path style=" stroke:none;fill-rule:nonzero;fill:rgb(99.609375%,78.819275%,71.759033%);fill-opacity:1;" d="M 240.664062 168.503906 L 240.664062 173.417969 L 178.984375 137.785156 L 178.984375 132.867188 Z M 240.664062 168.503906 "/>
<path style=" stroke:none;fill-rule:nonzero;fill:rgb(74.119568%,62.348938%,61.569214%);fill-opacity:1;" d="M 236.410156 159.144531 L 236.3125 164.058594 L 178.984375 130.976562 L 178.984375 125.96875 Z M 236.410156 159.144531 "/>
<path style=" stroke:none;fill-rule:nonzero;fill:rgb(74.119568%,62.348938%,61.569214%);fill-opacity:1;" d="M 253.53125 182.773438 L 253.53125 187.691406 L 178.890625 144.683594 L 178.984375 139.769531 Z M 253.53125 182.773438 "/>
<path style=" stroke:none;fill-rule:nonzero;fill:rgb(99.609375%,78.819275%,71.759033%);fill-opacity:1;" d="M 223.542969 117.273438 L 223.542969 122.28125 L 179.082031 96.570312 L 179.082031 91.65625 Z M 223.542969 117.273438 "/>
<path style=" stroke:none;fill-rule:nonzero;fill:rgb(99.609375%,78.819275%,71.759033%);fill-opacity:1;" d="M 236.410156 138.539062 L 236.410156 143.453125 L 179.082031 110.371094 L 179.082031 105.363281 Z M 236.410156 138.539062 "/>
<path style=" stroke:none;fill-rule:nonzero;fill:rgb(74.119568%,62.348938%,61.569214%);fill-opacity:1;" d="M 240.761719 134.097656 L 240.761719 139.011719 L 179.082031 103.472656 L 179.082031 98.558594 Z M 240.761719 134.097656 "/>
<path style=" stroke:none;fill-rule:nonzero;fill:rgb(74.119568%,62.348938%,61.569214%);fill-opacity:1;" d="M 219.285156 101.109375 L 219.285156 106.023438 L 174.824219 80.410156 L 174.824219 75.398438 Z M 219.285156 101.109375 "/>
<path style=" stroke:none;fill-rule:nonzero;fill:rgb(99.609375%,78.819275%,71.759033%);fill-opacity:1;" d="M 210.675781 89.292969 L 210.675781 94.210938 L 174.824219 73.507812 L 174.824219 68.59375 Z M 210.675781 89.292969 "/>
<use xlink:href="#surface20" transform="matrix(1,0,0,1,262,264)" mask="url(#mask5)"/>
<path style=" stroke:none;fill-rule:nonzero;fill:rgb(74.119568%,62.348938%,61.569214%);fill-opacity:1;" d="M 340.753906 191.28125 L 312.753906 175.117188 C 311.710938 174.550781 310.859375 174.363281 310.101562 174.363281 C 309.253906 174.363281 308.683594 174.644531 308.304688 174.835938 L 308.023438 175.023438 C 307.925781 175.117188 307.832031 175.117188 307.832031 175.214844 C 306.226562 176.347656 306.226562 178.238281 306.128906 178.996094 L 305.941406 255.082031 C 305.941406 256.40625 306.320312 258.011719 307.171875 259.621094 C 308.023438 261.132812 309.253906 262.644531 310.953125 263.683594 L 338.957031 279.847656 C 341.320312 281.171875 342.835938 280.414062 343.308594 280.226562 L 343.402344 280.132812 L 343.59375 280.035156 C 343.6875 279.941406 343.78125 279.847656 343.875 279.847656 C 345.296875 278.714844 345.390625 276.917969 345.390625 276.160156 L 345.578125 200.074219 C 345.671875 197.140625 344.160156 193.363281 340.753906 191.28125 Z M 340.753906 191.28125 "/>
<path style=" stroke:none;fill-rule:nonzero;fill:rgb(34.899902%,13.729858%,4.708862%);fill-opacity:1;" d="M 338.390625 194.304688 C 340.28125 195.347656 341.699219 197.992188 341.699219 200.074219 L 341.511719 274.269531 C 341.511719 276.351562 339.996094 277.203125 338.199219 276.160156 L 310.199219 260 C 308.304688 258.957031 306.886719 256.3125 306.886719 254.234375 L 307.074219 180.035156 C 307.074219 177.953125 308.589844 177.007812 310.386719 178.144531 L 314.265625 180.410156 C 314.832031 180.695312 315.210938 181.453125 315.210938 182.019531 L 315.210938 182.871094 C 315.210938 184.097656 316.0625 185.515625 317.105469 186.179688 L 331.578125 194.496094 C 332.617188 195.0625 333.46875 194.589844 333.46875 193.363281 L 333.46875 192.511719 C 333.46875 191.945312 333.941406 191.660156 334.414062 191.945312 Z M 338.390625 194.304688 "/>
<use xlink:href="#surface23" transform="matrix(1,0,0,1,318,183)" mask="url(#mask6)"/>
<path style=" stroke:none;fill-rule:nonzero;fill:rgb(99.609375%,78.819275%,71.759033%);fill-opacity:1;" d="M 318.902344 251.207031 L 318.902344 259.808594 L 308.496094 253.761719 L 308.496094 245.160156 Z M 318.902344 251.207031 "/>
<path style=" stroke:none;fill-rule:nonzero;fill:rgb(99.609375%,78.819275%,71.759033%);fill-opacity:1;" d="M 318.902344 239.960938 L 318.902344 248.5625 L 308.496094 242.511719 L 308.496094 233.910156 Z M 318.902344 239.960938 "/>
<path style=" stroke:none;fill-rule:nonzero;fill:rgb(74.119568%,62.348938%,61.569214%);fill-opacity:1;" d="M 335.457031 231.925781 L 335.457031 234.761719 L 312.375 221.433594 L 312.375 218.597656 Z M 335.457031 231.925781 "/>
<path style=" stroke:none;fill-rule:nonzero;fill:rgb(90.979004%,18.429565%,18.429565%);fill-opacity:1;" d="M 330.160156 234.667969 L 330.160156 240.242188 L 317.578125 233.058594 L 317.578125 227.390625 Z M 330.160156 234.667969 "/>
<path style=" stroke:none;fill-rule:nonzero;fill:rgb(74.119568%,62.348938%,61.569214%);fill-opacity:1;" d="M 337.917969 228.429688 L 337.917969 231.265625 L 309.914062 215.195312 L 309.914062 212.265625 Z M 337.917969 228.429688 "/>
<path style=" stroke:none;fill-rule:nonzero;fill:rgb(74.119568%,62.348938%,61.569214%);fill-opacity:1;" d="M 337.253906 218.882812 L 337.253906 220.960938 L 320.320312 211.132812 L 320.320312 209.144531 Z M 337.253906 218.882812 "/>
<path style=" stroke:none;fill-rule:nonzero;fill:rgb(74.119568%,62.348938%,61.569214%);fill-opacity:1;" d="M 335.550781 214.441406 L 335.550781 216.519531 L 320.320312 207.730469 L 320.320312 205.648438 Z M 335.550781 214.441406 "/>
<path style=" stroke:none;fill-rule:nonzero;fill:rgb(74.119568%,62.348938%,61.569214%);fill-opacity:1;" d="M 339.050781 213.023438 L 339.050781 215.101562 L 320.320312 204.230469 L 320.320312 202.246094 Z M 339.050781 213.023438 "/>
<path style=" stroke:none;fill-rule:nonzero;fill:rgb(74.119568%,62.348938%,61.569214%);fill-opacity:1;" d="M 322.023438 192.792969 L 322.023438 195.15625 L 308.402344 187.3125 L 308.402344 184.855469 Z M 322.023438 192.792969 "/>
<path style=" stroke:none;fill-rule:nonzero;fill:rgb(65.879822%,41.178894%,19.999695%);fill-opacity:1;" d="M 312.941406 197.238281 C 315.402344 198.65625 317.386719 202.152344 317.386719 204.988281 C 317.386719 207.824219 315.402344 208.957031 312.847656 207.539062 C 310.386719 206.121094 308.402344 202.625 308.402344 199.789062 C 308.402344 196.953125 310.386719 195.820312 312.941406 197.238281 Z M 312.941406 197.238281 "/>
<path style=" stroke:none;fill-rule:nonzero;fill:rgb(74.119568%,62.348938%,61.569214%);fill-opacity:1;" d="M 339.050781 204.324219 L 339.050781 205.269531 L 334.226562 202.53125 L 334.320312 201.488281 Z M 339.050781 204.324219 "/>
<path style=" stroke:none;fill-rule:nonzero;fill:rgb(74.119568%,62.348938%,61.569214%);fill-opacity:1;" d="M 339.144531 202.246094 L 339.050781 203.285156 L 334.320312 200.546875 L 334.320312 199.503906 Z M 339.144531 202.246094 "/>
<path style=" stroke:none;fill-rule:nonzero;fill:rgb(74.119568%,62.348938%,61.569214%);fill-opacity:1;" d="M 331.957031 252.53125 L 331.957031 254.609375 L 320.414062 247.996094 L 320.414062 245.820312 Z M 331.957031 252.53125 "/>
<path style=" stroke:none;fill-rule:nonzero;fill:rgb(74.119568%,62.348938%,61.569214%);fill-opacity:1;" d="M 338.105469 252.4375 L 338.105469 254.609375 L 320.414062 244.402344 L 320.414062 242.230469 Z M 338.105469 252.4375 "/>
<path style=" stroke:none;fill-rule:nonzero;fill:rgb(74.119568%,62.348938%,61.569214%);fill-opacity:1;" d="M 333.660156 264.722656 L 333.660156 266.898438 L 320.414062 259.242188 L 320.414062 257.066406 Z M 333.660156 264.722656 "/>
<path style=" stroke:none;fill-rule:nonzero;fill:rgb(74.119568%,62.348938%,61.569214%);fill-opacity:1;" d="M 328.929688 258.390625 L 328.929688 260.472656 L 320.414062 255.554688 L 320.414062 253.476562 Z M 328.929688 258.390625 "/>
<path style=" stroke:none;fill-rule:nonzero;fill:rgb(34.899902%,13.729858%,4.708862%);fill-opacity:1;" d="M 280.492188 268.03125 L 273.019531 264.914062 L 264.503906 267.558594 L 264.503906 270.394531 L 273.304688 275.5 C 274.4375 276.160156 276.234375 276.160156 277.371094 275.5 L 281.816406 272.949219 C 282.386719 272.664062 282.667969 272.191406 282.667969 271.8125 L 282.667969 268.976562 C 282.667969 269.074219 282.667969 269.074219 282.667969 269.167969 C 282.667969 268.601562 281.15625 268.410156 280.492188 268.03125 Z M 280.492188 268.03125 "/>
<path style=" stroke:none;fill-rule:nonzero;fill:rgb(74.119568%,62.348938%,61.569214%);fill-opacity:1;" d="M 281.816406 267.75 C 282.953125 268.410156 282.953125 269.449219 281.816406 270.113281 L 277.371094 272.664062 C 276.234375 273.324219 274.4375 273.324219 273.304688 272.664062 L 264.503906 267.558594 L 273.019531 262.644531 Z M 281.816406 267.75 "/>
<path style=" stroke:none;fill-rule:nonzero;fill:rgb(65.879822%,41.178894%,19.999695%);fill-opacity:1;" d="M 338.199219 304.894531 C 335.078125 304.894531 331.957031 304.046875 329.117188 302.4375 L 279.453125 273.609375 C 279.074219 273.324219 278.886719 272.851562 279.167969 272.476562 C 279.453125 272.097656 279.925781 271.90625 280.304688 272.191406 L 329.96875 301.019531 C 334.984375 303.949219 341.320312 303.949219 346.335938 301.019531 L 352.199219 297.617188 C 357.214844 294.6875 360.335938 289.300781 360.335938 283.535156 L 360.335938 227.484375 C 360.335938 221.625 357.214844 216.234375 352.199219 213.398438 L 343.78125 208.484375 C 343.402344 208.199219 343.214844 207.730469 343.496094 207.351562 C 343.78125 206.972656 344.253906 206.785156 344.632812 207.066406 L 353.050781 211.980469 C 358.632812 215.195312 362.039062 221.152344 362.039062 227.578125 L 362.039062 283.628906 C 362.039062 290.054688 358.632812 296.011719 353.050781 299.222656 L 347.1875 302.628906 C 344.445312 304.046875 341.320312 304.894531 338.199219 304.894531 Z M 338.199219 304.894531 "/>
<use xlink:href="#surface26" transform="matrix(1,0,0,1,1,160)" mask="url(#mask7)"/>
<path style=" stroke:none;fill-rule:nonzero;fill:rgb(74.119568%,62.348938%,61.569214%);fill-opacity:1;" d="M 83.816406 158.765625 C 83.722656 158.578125 83.53125 158.484375 83.34375 158.484375 L 68.871094 162.359375 L 3.59375 195.535156 C 1.609375 196.480469 0.09375 198.464844 0.09375 200.828125 C 0 204.136719 2.648438 206.878906 5.960938 206.972656 C 7.191406 206.972656 8.417969 206.6875 9.367188 206.027344 L 72.652344 169.257812 L 83.722656 159.238281 C 83.910156 159.144531 83.910156 158.957031 83.816406 158.765625 Z M 83.816406 158.765625 "/>
<path style=" stroke:none;fill-rule:nonzero;fill:rgb(99.609375%,78.819275%,71.759033%);fill-opacity:1;" d="M 83.816406 158.765625 C 83.722656 158.578125 83.53125 158.484375 83.34375 158.484375 L 82.113281 158.765625 C 82.207031 159.238281 82.492188 159.710938 82.871094 159.996094 L 83.722656 159.238281 C 83.910156 159.144531 83.910156 158.957031 83.816406 158.765625 Z M 83.816406 158.765625 "/>
<path style=" stroke:none;fill-rule:nonzero;fill:rgb(34.899902%,13.729858%,4.708862%);fill-opacity:1;" d="M 4.164062 193.929688 L 4.164062 195.0625 C 4.164062 195.441406 4.351562 195.722656 4.824219 196.007812 L 6.8125 197.238281 C 7.664062 197.804688 9.175781 197.804688 10.027344 197.332031 L 36.042969 183.152344 C 36.515625 182.871094 36.707031 182.585938 36.707031 182.207031 L 36.707031 181.074219 L 36.707031 181.167969 C 36.800781 180.789062 4.257812 193.550781 4.164062 193.929688 Z M 4.164062 193.929688 "/>
<path style=" stroke:none;fill-rule:nonzero;fill:rgb(65.879822%,41.178894%,19.999695%);fill-opacity:1;" d="M 36.136719 180.128906 C 36.988281 180.695312 36.988281 181.546875 36.136719 182.019531 L 10.121094 196.195312 C 9.269531 196.667969 7.757812 196.667969 6.90625 196.101562 L 4.917969 194.875 C 4.066406 194.304688 4.066406 193.457031 4.917969 192.984375 L 30.933594 178.804688 C 31.785156 178.332031 33.300781 178.332031 34.152344 178.898438 Z M 36.136719 180.128906 "/>
<use xlink:href="#surface29" transform="matrix(1,0,0,1,218,310)" mask="url(#mask8)"/>
<path style=" stroke:none;fill-rule:nonzero;fill:rgb(74.119568%,62.348938%,61.569214%);fill-opacity:1;" d="M 259.300781 232.398438 C 259.777344 232.683594 261.003906 233.4375 261.953125 234.855469 C 262.425781 235.613281 263.179688 236.839844 262.800781 237.878906 C 262.234375 239.394531 259.019531 239.394531 257.789062 239.394531 C 255.992188 239.394531 253.4375 239.394531 251.734375 237.503906 C 251.546875 237.21875 249.746094 235.421875 250.316406 233.816406 C 250.976562 231.453125 256.085938 230.695312 259.300781 232.398438 Z M 259.300781 232.398438 "/>
<path style=" stroke:none;fill-rule:nonzero;fill:rgb(74.119568%,62.348938%,61.569214%);fill-opacity:1;" d="M 261.003906 235.328125 C 260.910156 235.519531 260.722656 235.707031 260.53125 235.894531 C 260.25 236.085938 259.871094 236.085938 259.585938 236.273438 C 258.167969 236.839844 256.84375 236.652344 255.898438 236.460938 C 254.761719 236.273438 253.625 236.085938 252.585938 235.046875 C 252.300781 234.761719 251.640625 234.382812 251.449219 233.816406 C 251.449219 233.628906 251.355469 233.4375 251.449219 233.25 C 251.449219 232.871094 251.640625 232.683594 251.921875 232.398438 C 252.207031 232.113281 252.492188 232.019531 252.679688 231.832031 C 254.574219 230.695312 257.789062 230.601562 259.777344 232.398438 C 259.777344 232.398438 260.25 232.871094 260.722656 233.4375 C 261.003906 234.003906 261.289062 234.761719 261.003906 235.328125 Z M 261.003906 235.328125 "/>
<path style=" stroke:none;fill-rule:nonzero;fill:rgb(34.899902%,13.729858%,4.708862%);fill-opacity:1;" d="M 274.058594 324.460938 C 273.964844 324.082031 273.777344 323.707031 273.585938 323.421875 C 273.113281 322.855469 272.546875 322.570312 272.359375 322.476562 C 271.507812 322.097656 270.65625 322.097656 270.085938 322.191406 C 267.628906 322.570312 265.640625 323.609375 264.601562 324.179688 C 259.113281 327.203125 257.976562 327.203125 257.410156 328.808594 C 257.222656 329.28125 257.222656 329.753906 257.222656 330.320312 C 257.222656 330.890625 257.410156 331.457031 257.789062 331.929688 C 258.828125 333.347656 260.910156 333.253906 261.574219 333.253906 C 262.992188 333.15625 264.128906 332.589844 264.601562 332.308594 C 264.601562 331.929688 264.601562 331.644531 264.503906 331.265625 C 264.882812 331.265625 265.546875 331.171875 266.207031 331.078125 C 268.382812 330.792969 269.898438 330.605469 271.222656 329.472656 C 271.789062 329 272.074219 328.527344 272.734375 327.582031 C 273.777344 326.164062 274.25 325.40625 274.058594 324.460938 Z M 274.058594 324.460938 "/>
<path style=" stroke:none;fill-rule:nonzero;fill:rgb(34.899902%,13.729858%,4.708862%);fill-opacity:1;" d="M 258.640625 315.007812 C 258.546875 314.632812 258.355469 314.253906 258.167969 313.96875 C 257.695312 313.402344 257.125 313.117188 256.9375 313.023438 C 256.085938 312.648438 255.234375 312.648438 254.667969 312.742188 C 252.207031 313.117188 250.222656 314.160156 249.179688 314.726562 C 243.691406 317.75 242.558594 317.75 241.992188 319.359375 C 241.800781 319.828125 241.800781 320.300781 241.800781 320.871094 C 241.800781 321.4375 241.992188 322.003906 242.367188 322.476562 C 243.410156 323.894531 245.492188 323.800781 246.152344 323.800781 C 247.570312 323.707031 248.707031 323.136719 249.179688 322.855469 C 249.179688 322.476562 249.179688 322.191406 249.085938 321.816406 C 249.464844 321.816406 250.125 321.71875 250.789062 321.625 C 252.964844 321.34375 254.476562 321.152344 255.800781 320.019531 C 256.371094 319.546875 256.652344 319.074219 257.316406 318.128906 C 258.261719 316.710938 258.828125 315.953125 258.640625 315.007812 Z M 258.640625 315.007812 "/>
<path style=" stroke:none;fill-rule:nonzero;fill:rgb(65.879822%,41.178894%,19.999695%);fill-opacity:1;" d="M 245.019531 273.136719 C 245.300781 280.035156 244.640625 285.425781 243.976562 289.015625 C 243.125 293.363281 242.464844 294.5 241.992188 298.847656 C 241.515625 303.003906 241.992188 303.476562 241.992188 311.605469 C 241.992188 319.074219 241.613281 321.34375 242.9375 322.003906 C 245.019531 323.042969 249.179688 319.261719 249.652344 318.789062 C 250.503906 317.941406 251.261719 317.277344 251.734375 316.238281 C 252.871094 313.6875 251.734375 311.417969 251.261719 308.488281 C 250.882812 306.21875 251.261719 303.949219 252.019531 299.320312 C 253.34375 291.378906 255.519531 289.773438 256.75 283.628906 C 257.410156 280.414062 257.882812 275.785156 256.75 269.828125 C 254.476562 268.976562 252.113281 268.03125 249.84375 267.183594 C 248.140625 269.261719 246.625 271.152344 245.019531 273.136719 Z M 245.019531 273.136719 "/>
<path style=" stroke:none;fill-rule:nonzero;fill:rgb(65.879822%,41.178894%,19.999695%);fill-opacity:1;" d="M 251.921875 274.269531 C 252.585938 276.257812 253.53125 278.902344 254.382812 282.210938 C 256.371094 290.054688 256.558594 296.292969 256.652344 298.5625 C 256.75 302.628906 256.371094 302.628906 256.085938 309.621094 C 255.519531 320.773438 255.140625 330.132812 258.449219 331.363281 C 259.492188 331.738281 260.53125 331.171875 261.953125 330.511719 C 264.03125 329.472656 266.398438 327.296875 266.777344 324.554688 C 267.058594 322.382812 265.925781 322.191406 265.355469 318.789062 C 264.980469 316.617188 265.355469 315.578125 265.734375 311.417969 C 266.207031 306.976562 265.925781 306.691406 266.304688 303.195312 C 266.777344 297.710938 267.722656 294.875 268.195312 291.757812 C 268.855469 287.789062 269.332031 281.925781 267.722656 274.175781 C 262.425781 274.082031 257.125 274.175781 251.921875 274.269531 Z M 251.921875 274.269531 "/>
<path style=" stroke:none;fill-rule:nonzero;fill:rgb(99.609375%,78.819275%,71.759033%);fill-opacity:1;" d="M 242.746094 259.621094 C 243.03125 262.457031 247.289062 264.347656 249.179688 263.308594 C 250.03125 262.835938 250.222656 261.792969 250.316406 261.511719 C 250.695312 259.808594 249.273438 258.296875 248.519531 257.445312 C 247.570312 256.5 246.71875 255.554688 245.585938 255.652344 C 243.976562 255.839844 242.652344 257.917969 242.746094 259.621094 Z M 242.746094 259.621094 "/>
<path style=" stroke:none;fill-rule:nonzero;fill:rgb(74.119568%,62.348938%,61.569214%);fill-opacity:1;" d="M 241.707031 259.335938 C 241.800781 259.808594 242.085938 260.28125 242.652344 260.472656 C 244.542969 261.226562 248.140625 257.539062 247.476562 256.125 C 247.289062 255.652344 246.625 255.460938 246.4375 255.367188 C 244.261719 254.800781 241.234375 257.539062 241.707031 259.335938 Z M 241.707031 259.335938 "/>
<path style=" stroke:none;fill-rule:nonzero;fill:rgb(34.899902%,13.729858%,4.708862%);fill-opacity:1;" d="M 243.976562 249.980469 C 243.03125 248.65625 241.800781 246.671875 240.570312 244.023438 C 242.84375 242.984375 243.976562 242.324219 244.355469 242.039062 C 247.667969 238.636719 246.4375 232.777344 246.152344 231.640625 C 245.773438 231.640625 245.207031 231.546875 244.542969 231.640625 C 242.273438 232.019531 241.234375 233.722656 239.339844 235.519531 C 235.746094 239.109375 233.855469 238.636719 232.4375 241.472656 C 232.152344 242.132812 231.394531 243.644531 231.960938 245.347656 C 232.058594 245.632812 232.246094 246.007812 232.4375 246.199219 C 233.285156 247.523438 235.460938 249.507812 237.640625 253.855469 C 239.152344 256.878906 239.816406 259.429688 241.613281 259.621094 C 242.558594 259.714844 243.410156 259.242188 244.261719 258.675781 C 244.828125 258.296875 246.625 257.257812 247.003906 255.652344 C 247.289062 254.234375 245.964844 252.910156 243.976562 249.980469 Z M 243.976562 249.980469 "/>
<path style=" stroke:none;fill-rule:nonzero;fill:rgb(99.609375%,78.819275%,71.759033%);fill-opacity:1;" d="M 260.34375 234.382812 C 260.25 235.140625 260.4375 235.519531 260.625 235.894531 C 260.34375 236.085938 259.964844 236.273438 259.679688 236.367188 C 258.261719 236.933594 256.9375 236.746094 255.992188 236.558594 C 254.855469 236.367188 253.625 236.179688 252.585938 235.140625 C 252.300781 234.855469 251.734375 234.382812 251.546875 233.722656 C 251.734375 233.628906 251.828125 233.4375 251.921875 233.25 C 252.113281 232.964844 252.019531 232.585938 252.019531 232.304688 C 251.921875 231.832031 251.546875 231.265625 251.640625 230.601562 C 251.921875 228.144531 256.75 225.214844 259.964844 226.917969 C 261.289062 227.578125 262.613281 229.277344 262.328125 230.695312 C 262.140625 231.832031 261.195312 232.210938 260.722656 233.25 C 260.4375 233.722656 260.34375 234.003906 260.34375 234.382812 Z M 260.34375 234.382812 "/>
<path style=" stroke:none;fill-rule:nonzero;fill:rgb(34.899902%,13.729858%,4.708862%);fill-opacity:1;" d="M 267.34375 277.203125 C 265.355469 279.5625 261.855469 279.753906 258.828125 279.847656 C 257.125 279.941406 251.070312 280.132812 249.84375 277.296875 C 249.464844 276.539062 249.558594 275.5 249.746094 273.324219 C 249.84375 272.003906 250.03125 270.867188 250.222656 270.019531 C 249.84375 270.488281 249.464844 271.246094 249.085938 272.097656 C 248.140625 274.269531 248.328125 275.6875 247.570312 275.878906 C 246.71875 276.160156 245.492188 274.554688 245.394531 274.367188 C 244.261719 272.851562 244.261719 271.246094 244.261719 270.394531 C 244.261719 266.710938 244.921875 263.683594 245.113281 262.644531 C 246.4375 256.21875 245.207031 250.734375 244.828125 248.941406 C 244.167969 246.105469 243.789062 244.308594 242.746094 242.039062 C 242.085938 240.527344 241.613281 240.054688 241.421875 238.730469 C 241.328125 238.351562 240.855469 234.855469 243.125 232.777344 C 243.410156 232.492188 244.070312 231.925781 245.019531 231.640625 C 246.152344 231.265625 246.910156 231.546875 248.800781 231.640625 C 249.085938 231.640625 249.464844 231.738281 249.84375 231.738281 C 250.503906 231.738281 251.167969 231.832031 252.019531 231.738281 C 251.828125 231.832031 250.21875 232.683594 250.21875 233.722656 C 250.21875 234.476562 250.882812 234.949219 251.921875 235.613281 C 252.871094 236.179688 254.097656 237.125 255.707031 237.503906 C 259.964844 238.542969 261.855469 236.367188 264.128906 237.878906 C 265.167969 238.636719 265.734375 239.867188 265.734375 239.960938 C 266.019531 240.433594 266.679688 241.09375 266.777344 241.945312 C 266.871094 242.324219 266.964844 242.796875 266.964844 243.269531 C 267.628906 248.84375 267.722656 262.265625 268.003906 268.695312 C 268.480469 273.324219 268.855469 275.3125 267.34375 277.203125 Z M 267.34375 277.203125 "/>
<path style=" stroke:none;fill-rule:nonzero;fill:rgb(99.609375%,78.819275%,71.759033%);fill-opacity:1;" d="M 265.828125 280.320312 C 265.640625 280.886719 265.546875 281.644531 265.453125 282.589844 C 265.453125 283.441406 265.546875 284.195312 265.640625 284.761719 C 265.453125 284.386719 265.167969 284.007812 265.074219 284.101562 C 264.789062 284.195312 264.601562 285.328125 264.980469 286.273438 C 265.640625 287.691406 267.628906 288.070312 269.140625 287.789062 C 269.425781 287.691406 270.84375 287.410156 271.222656 286.558594 C 271.316406 286.371094 271.316406 286.273438 271.316406 285.046875 C 271.316406 284.574219 271.316406 284.195312 271.316406 283.816406 C 271.507812 283.816406 271.695312 283.816406 271.882812 283.628906 C 271.980469 283.535156 272.167969 283.25 272.074219 282.304688 C 271.980469 281.550781 271.882812 280.792969 271.410156 279.847656 C 271.128906 279.375 270.9375 279.089844 270.65625 278.902344 C 269.046875 279.375 267.4375 279.847656 265.828125 280.320312 Z M 265.828125 280.320312 "/>
<path style=" stroke:none;fill-rule:nonzero;fill:rgb(74.119568%,62.348938%,61.569214%);fill-opacity:1;" d="M 265.355469 278.996094 C 264.882812 279.46875 264.980469 280.605469 265.453125 281.171875 C 266.585938 282.496094 270.558594 281.832031 271.507812 279.847656 C 271.789062 279.1875 271.882812 278.242188 271.507812 277.957031 C 271.03125 277.578125 270.277344 278.429688 268.574219 278.808594 C 266.777344 279.089844 265.925781 278.429688 265.355469 278.996094 Z M 265.355469 278.996094 "/>
<path style=" stroke:none;fill-rule:nonzero;fill:rgb(34.899902%,13.729858%,4.708862%);fill-opacity:1;" d="M 267.15625 244.214844 C 266.304688 244.496094 265.355469 244.875 264.410156 245.347656 C 261.382812 246.953125 259.492188 249.316406 258.546875 250.828125 C 259.398438 252.625 260.53125 255.554688 261.574219 259.242188 C 264.789062 271.339844 262.328125 279.375 265.828125 280.980469 C 267.628906 281.832031 270.371094 280.605469 271.410156 278.996094 C 272.261719 277.675781 271.882812 276.257812 271.507812 273.703125 C 270.75 268.976562 271.601562 270.585938 270.75 264.722656 C 269.898438 258.863281 269.234375 257.539062 268.101562 250.828125 C 267.628906 247.996094 267.34375 245.632812 267.15625 244.214844 Z M 267.15625 244.214844 "/>
<path style=" stroke:none;fill-rule:nonzero;fill:rgb(34.899902%,13.729858%,4.708862%);fill-opacity:1;" d="M 267.15625 243.457031 C 266.777344 242.890625 266.679688 241.285156 265.355469 240.433594 C 264.503906 239.867188 263.652344 239.960938 263.085938 240.054688 C 262.046875 240.148438 254.855469 240.433594 250.882812 237.40625 C 250.597656 237.21875 248.042969 235.234375 248.519531 233.4375 C 248.613281 233.15625 248.800781 232.492188 249.9375 231.832031 C 250.597656 231.832031 251.261719 231.925781 252.113281 231.832031 C 251.921875 231.925781 250.597656 232.683594 250.597656 233.722656 C 250.597656 234.003906 250.695312 234.667969 252.492188 235.800781 C 253.625 236.558594 254.382812 237.03125 255.898438 237.40625 C 260.34375 238.542969 262.519531 236.179688 264.695312 237.785156 C 265.167969 238.164062 266.019531 239.015625 266.492188 240.148438 C 266.777344 240.8125 266.964844 241.566406 267.058594 242.039062 C 267.058594 242.605469 267.058594 243.078125 267.15625 243.457031 Z M 267.15625 243.457031 "/>
<path style=" stroke:none;fill-rule:nonzero;fill:rgb(99.609375%,78.819275%,71.759033%);fill-opacity:1;" d="M 262.425781 221.339844 C 262.800781 221.71875 263.84375 222.472656 264.222656 223.890625 C 264.410156 224.648438 264.222656 224.835938 264.316406 226.347656 C 264.410156 228.617188 264.789062 228.617188 264.601562 229.5625 C 264.316406 230.886719 263.371094 232.019531 262.140625 232.683594 C 261.101562 233.15625 260.25 233.058594 259.777344 233.058594 C 256.652344 232.871094 254.667969 230.035156 254.382812 229.65625 C 253.152344 227.863281 251.355469 223.703125 253.625 221.152344 C 255.898438 218.691406 260.34375 219.636719 262.425781 221.339844 Z M 262.425781 221.339844 "/>
<path style=" stroke:none;fill-rule:nonzero;fill:rgb(90.979004%,18.429565%,18.429565%);fill-opacity:1;" d="M 263.652344 221.527344 C 263.652344 222.09375 263.277344 222.191406 262.613281 223.890625 C 262.328125 224.554688 262.234375 224.929688 262.140625 225.308594 C 261.953125 226.445312 262.328125 226.726562 262.140625 228.050781 C 262.140625 228.238281 261.953125 229.75 261.476562 229.847656 C 261.101562 229.847656 261.003906 229.183594 260.4375 229.089844 C 260.34375 229.089844 259.964844 229.089844 259.019531 230.222656 C 258.167969 231.359375 258.261719 231.640625 257.695312 232.113281 C 257.222656 232.585938 256.558594 232.683594 255.421875 232.871094 C 254.289062 233.058594 253.53125 233.15625 252.679688 232.871094 C 251.734375 232.585938 251.070312 231.925781 250.882812 231.640625 C 250.03125 230.792969 249.84375 229.847656 249.464844 228.238281 C 249.085938 226.539062 249.085938 225.214844 249.085938 224.363281 C 249.085938 223.609375 249.179688 223.039062 249.371094 222.285156 C 249.558594 221.71875 249.9375 220.488281 250.976562 219.636719 C 251.734375 219.070312 252.492188 218.882812 254.097656 218.503906 C 254.382812 218.410156 254.289062 218.503906 256.75 218.03125 C 258.355469 217.746094 258.355469 217.746094 258.546875 217.746094 C 260.152344 217.746094 261.382812 218.597656 261.667969 218.789062 C 262.425781 219.164062 263.75 220.207031 263.652344 221.527344 Z M 263.652344 221.527344 "/>
<use xlink:href="#surface32" transform="matrix(1,0,0,1,156,294)" mask="url(#mask9)"/>
<path style=" stroke:none;fill-rule:nonzero;fill:rgb(34.899902%,13.729858%,4.708862%);fill-opacity:1;" d="M 150.984375 334.953125 C 150.699219 334.007812 150.132812 333.15625 149.753906 332.683594 C 147.292969 332.589844 144.738281 332.402344 142.28125 332.308594 C 141.808594 333.535156 141.335938 334.480469 140.957031 335.046875 C 139.726562 337.03125 138.496094 337.695312 138.210938 339.492188 L 138.210938 339.585938 C 138.117188 340.058594 138.117188 340.53125 138.308594 341.003906 C 138.96875 342.136719 141.050781 342.230469 142.28125 342.042969 C 144.738281 341.664062 144.644531 340.246094 148.902344 337.976562 C 149.753906 337.503906 150.320312 337.222656 150.699219 336.75 C 150.792969 336.65625 150.792969 336.558594 150.890625 336.371094 C 151.171875 335.992188 151.171875 335.519531 150.984375 334.953125 Z M 150.984375 334.953125 "/>
<path style=" stroke:none;fill-rule:nonzero;fill:rgb(34.899902%,13.729858%,4.708862%);fill-opacity:1;" d="M 189.011719 339.394531 C 188.917969 338.734375 188.730469 337.695312 188.730469 336.464844 C 186.742188 336.183594 184.757812 335.992188 182.769531 335.710938 C 182.675781 336.371094 182.484375 337.316406 182.582031 338.546875 C 182.675781 339.679688 182.863281 339.867188 182.960938 341.003906 C 183.054688 341.949219 182.960938 342.515625 182.863281 342.894531 C 182.863281 343.175781 182.769531 343.367188 182.769531 343.554688 C 182.769531 343.742188 182.863281 343.933594 182.960938 344.214844 C 183.527344 345.257812 184.660156 345.632812 185.039062 345.730469 C 186.082031 346.011719 187.6875 346.011719 188.636719 344.972656 C 189.203125 344.3125 189.390625 343.554688 189.488281 342.894531 C 189.488281 342.796875 189.488281 342.609375 189.488281 342.515625 C 189.582031 341.378906 189.296875 340.90625 189.011719 339.394531 Z M 189.011719 339.394531 "/>
<path style=" stroke:none;fill-rule:nonzero;fill:rgb(65.879822%,41.178894%,19.999695%);fill-opacity:1;" d="M 141.429688 332.402344 C 142.1875 332.96875 143.226562 333.441406 144.363281 333.914062 C 147.390625 335.046875 150.132812 334.765625 151.644531 334.480469 C 151.457031 330.699219 152.117188 327.863281 152.6875 325.972656 C 153.820312 322.476562 155.144531 320.964844 156.945312 316.617188 C 158.171875 313.589844 158.835938 311.039062 159.214844 309.339844 C 160.917969 308.960938 162.714844 308.582031 164.605469 308.109375 C 169.148438 306.878906 173.121094 305.273438 176.429688 303.667969 C 175.203125 302.722656 173.6875 301.492188 172.269531 299.792969 C 169.902344 297.050781 168.675781 294.308594 168.011719 292.417969 C 166.214844 293.269531 163.660156 294.59375 160.445312 296.292969 C 155.621094 298.847656 153.253906 300.167969 152.402344 300.925781 C 149.566406 303.667969 148.429688 308.109375 146.347656 316.898438 C 145.589844 319.925781 145.402344 321.246094 144.457031 324.273438 C 143.511719 327.769531 142.28125 330.605469 141.429688 332.402344 Z M 141.429688 332.402344 "/>
<path style=" stroke:none;fill-rule:nonzero;fill:rgb(65.879822%,41.178894%,19.999695%);fill-opacity:1;" d="M 169.050781 290.054688 C 168.105469 292.136719 168.105469 293.835938 168.203125 294.78125 C 168.863281 301.019531 176.621094 303.949219 176.90625 304.046875 C 177.660156 304.328125 178.324219 304.519531 178.890625 304.613281 C 179.175781 305.367188 179.554688 306.503906 179.933594 307.921875 C 180.972656 311.890625 180.972656 315.007812 181.066406 316.332031 C 181.160156 320.585938 181.539062 327.582031 182.203125 336.9375 C 183.621094 337.316406 185.511719 337.601562 187.6875 337.503906 C 188.824219 337.503906 189.769531 337.316406 190.621094 337.128906 C 190.621094 335.140625 190.621094 332.023438 190.621094 328.242188 C 190.621094 320.492188 190.714844 320.679688 190.714844 317.65625 C 190.527344 310.472656 190.054688 310.1875 190.242188 305.464844 C 190.433594 301.492188 190.8125 300.925781 190.527344 298.847656 C 189.960938 294.78125 187.6875 291.757812 185.796875 289.679688 C 180.214844 289.867188 174.632812 289.960938 169.050781 290.054688 Z M 169.050781 290.054688 "/>
<path style=" stroke:none;fill-rule:nonzero;fill:rgb(99.609375%,78.819275%,71.759033%);fill-opacity:1;" d="M 173.40625 266.710938 C 171.230469 266.804688 170.1875 266.898438 169.527344 267.558594 C 167.726562 269.355469 169.050781 275.214844 172.835938 277.296875 C 175.675781 278.902344 178.796875 277.675781 179.363281 277.484375 C 180.027344 277.203125 183.335938 275.878906 184.1875 272.570312 C 184.285156 272.097656 184.851562 269.828125 183.621094 268.410156 C 183.148438 267.84375 182.582031 267.75 177.945312 267.085938 C 175.105469 266.710938 174.445312 266.613281 173.40625 266.710938 Z M 173.40625 266.710938 "/>
<use xlink:href="#surface35" transform="matrix(1,0,0,1,168,266)" mask="url(#mask10)"/>
<path style=" stroke:none;fill-rule:nonzero;fill:rgb(99.609375%,78.819275%,71.759033%);fill-opacity:1;" d="M 157.417969 279.089844 C 153.726562 281.453125 153.632812 283.15625 153.632812 283.816406 C 153.820312 286.652344 159.402344 289.773438 160.253906 290.246094 C 161.105469 290.71875 162.242188 291.191406 162.902344 292.417969 C 163.566406 293.554688 163.28125 294.214844 164.039062 295.253906 C 164.226562 295.445312 164.984375 296.484375 166.308594 296.957031 C 168.105469 297.523438 170.566406 296.957031 170.945312 295.726562 C 171.417969 294.214844 168.675781 292.039062 167.539062 291.285156 C 166.59375 290.625 166.5 290.8125 165.550781 290.152344 C 164.417969 289.300781 163.851562 288.542969 162.429688 286.652344 C 161.863281 285.992188 161.105469 284.953125 160.066406 283.628906 C 160.445312 283.15625 160.917969 282.683594 161.296875 282.210938 C 160.066406 281.078125 158.742188 280.132812 157.417969 279.089844 Z M 157.417969 279.089844 "/>
<path style=" stroke:none;fill-rule:nonzero;fill:rgb(90.979004%,18.429565%,18.429565%);fill-opacity:1;" d="M 189.296875 278.902344 C 190.8125 276.632812 192.703125 275.878906 192.515625 273.988281 C 192.324219 271.058594 187.3125 268.503906 184.09375 267.9375 C 183.714844 267.84375 182.960938 267.75 181.445312 267.558594 C 179.457031 267.277344 177.851562 267.085938 177 266.992188 C 174.351562 266.519531 172.835938 266.140625 170.378906 266.425781 C 168.863281 266.519531 167.726562 266.898438 166.875 267.085938 C 166.78125 267.085938 166.59375 267.183594 166.308594 267.277344 C 163.660156 268.222656 162.242188 270.300781 160.066406 273.515625 C 158.363281 276.066406 156.945312 278.144531 156.1875 279.375 C 156.847656 280.132812 157.699219 280.980469 158.835938 281.832031 C 159.78125 282.496094 160.632812 282.96875 161.390625 283.25 C 162.335938 282.496094 163.753906 281.453125 165.550781 280.132812 C 166.59375 279.375 166.972656 279.1875 167.253906 278.996094 C 168.105469 281.453125 168.769531 284.859375 168.203125 289.582031 C 168.390625 290.339844 168.769531 290.90625 169.148438 291.378906 C 173.6875 297.710938 188.539062 293.554688 189.769531 293.175781 C 186.835938 285.425781 187.785156 281.265625 189.296875 278.902344 Z M 179.269531 276.445312 C 179.082031 276.539062 176.335938 277.578125 173.878906 276.160156 C 171.890625 274.933594 171.324219 272.757812 171.132812 271.90625 C 170.851562 270.773438 170.566406 269.355469 171.230469 268.222656 C 172.648438 266.140625 176.714844 266.992188 179.835938 267.65625 C 182.390625 268.128906 182.769531 268.695312 182.960938 268.882812 C 184.1875 270.679688 182.484375 275.027344 179.269531 276.445312 Z M 179.269531 276.445312 "/>
<path style=" stroke:none;fill-rule:nonzero;fill:rgb(99.609375%,78.819275%,71.759033%);fill-opacity:1;" d="M 170.753906 265.953125 C 170.1875 266.992188 170.378906 268.128906 170.945312 270.300781 C 171.417969 272.378906 171.796875 273.894531 173.027344 275.027344 C 173.40625 275.3125 174.351562 276.160156 175.582031 275.972656 C 175.769531 275.972656 175.957031 275.878906 176.148438 275.785156 C 178.039062 274.933594 179.269531 272.378906 179.269531 272.191406 C 179.742188 271.058594 180.308594 269.261719 181.066406 268.882812 C 181.160156 268.882812 181.351562 268.789062 181.445312 268.503906 C 181.632812 268.222656 181.539062 268.03125 181.632812 267.65625 C 181.730469 266.992188 182.011719 266.992188 182.203125 266.238281 C 182.296875 265.859375 182.296875 265.574219 182.203125 265.386719 C 181.917969 265.195312 181.257812 265.574219 180.972656 265.667969 C 178.984375 266.613281 176.90625 263.683594 173.972656 263.96875 C 172.835938 264.15625 171.417969 264.820312 170.753906 265.953125 Z M 170.753906 265.953125 "/>
<path style=" stroke:none;fill-rule:nonzero;fill:rgb(34.899902%,13.729858%,4.708862%);fill-opacity:1;" d="M 176.621094 257.636719 C 173.59375 257.351562 171.605469 260 171.324219 260.375 C 169.148438 263.308594 170.378906 266.804688 170.472656 267.085938 C 170.660156 266.992188 170.945312 266.804688 171.324219 266.804688 C 171.890625 266.898438 172.078125 267.464844 172.457031 267.84375 C 173.78125 268.976562 177.1875 266.425781 178.230469 267.558594 C 178.417969 267.75 178.417969 268.03125 178.890625 268.410156 C 178.984375 268.503906 179.742188 269.074219 180.121094 268.789062 C 180.785156 268.503906 180.121094 266.992188 180.972656 265.953125 C 181.257812 265.667969 181.351562 265.667969 181.539062 265.386719 C 181.632812 265.195312 182.011719 264.628906 181.824219 263.308594 C 181.730469 262.835938 181.539062 261.792969 180.785156 260.660156 C 180.5 260 179.082031 257.917969 176.621094 257.636719 Z M 176.621094 257.636719 "/>
<path style=" stroke:none;fill-rule:nonzero;fill:rgb(34.899902%,13.729858%,4.708862%);fill-opacity:1;" d="M 191.664062 294.6875 L 191.945312 295.726562 L 188.539062 309.90625 L 187.40625 310.09375 Z M 191.664062 294.6875 "/>
<path style=" stroke:none;fill-rule:nonzero;fill:rgb(74.119568%,62.348938%,61.569214%);fill-opacity:1;" d="M 188.066406 309.242188 L 191.664062 294.6875 L 163.375 289.960938 L 157.226562 301.871094 Z M 188.066406 309.242188 "/>
<path style=" stroke:none;fill-rule:nonzero;fill:rgb(99.609375%,78.819275%,71.759033%);fill-opacity:1;" d="M 167.445312 291.191406 C 166.5 290.527344 166.402344 290.71875 165.457031 290.054688 C 164.796875 289.582031 164.417969 289.109375 163.851562 288.542969 L 157.511719 288.542969 C 158.742188 289.394531 159.78125 289.960938 160.160156 290.152344 C 161.011719 290.625 162.148438 291.097656 162.808594 292.324219 C 163.472656 293.457031 163.1875 294.121094 163.945312 295.160156 C 164.132812 295.347656 164.890625 296.390625 166.214844 296.863281 C 168.011719 297.429688 170.472656 296.863281 170.851562 295.632812 C 171.417969 294.121094 168.578125 291.945312 167.445312 291.191406 Z M 167.445312 291.191406 "/>
<path style=" stroke:none;fill-rule:nonzero;fill:rgb(99.609375%,78.819275%,71.759033%);fill-opacity:1;" d="M 187.878906 286.371094 C 188.257812 287.789062 188.539062 289.207031 188.917969 290.625 C 187.785156 291.851562 186.835938 292.984375 186.269531 293.742188 C 185.417969 294.875 185.136719 295.347656 184.285156 295.726562 C 183.335938 296.199219 182.863281 295.820312 181.824219 296.292969 C 180.59375 296.765625 179.742188 297.808594 179.835938 297.996094 C 180.027344 298.28125 181.539062 297.523438 181.632812 297.710938 C 181.730469 297.902344 179.648438 298.65625 179.457031 299.886719 C 179.269531 300.925781 180.59375 302.4375 181.824219 302.628906 C 183.433594 302.816406 184.09375 300.832031 187.121094 297.902344 C 191.1875 294.027344 194.5 293.554688 194.59375 291.097656 C 194.59375 290.527344 194.5 289.207031 194.121094 287.976562 C 193.933594 287.125 193.648438 286.464844 193.460938 285.992188 C 191.566406 286.179688 189.769531 286.273438 187.878906 286.371094 Z M 187.878906 286.371094 "/>
<path style=" stroke:none;fill-rule:nonzero;fill:rgb(90.979004%,18.429565%,18.429565%);fill-opacity:1;" d="M 190.714844 271.246094 C 189.863281 271.246094 189.582031 272.378906 187.121094 276.257812 C 186.363281 277.484375 186.082031 277.863281 185.796875 278.714844 C 185.511719 279.753906 185.609375 280.605469 185.890625 282.304688 C 186.175781 283.722656 186.554688 285.425781 187.121094 287.503906 C 187.878906 287.789062 189.203125 288.070312 190.8125 287.976562 C 192.230469 287.882812 193.367188 287.410156 194.121094 287.03125 C 194.121094 285.992188 194.027344 284.480469 194.027344 282.683594 C 193.933594 280.320312 193.839844 278.996094 193.648438 277.390625 C 193.367188 275.121094 192.988281 273.988281 192.324219 272.949219 C 191.851562 272.097656 191.378906 271.339844 190.714844 271.246094 Z M 190.714844 271.246094 "/>
<path style=" stroke:none;fill-rule:nonzero;fill:rgb(65.879822%,41.178894%,19.999695%);fill-opacity:1;" d="M 164.984375 301.210938 L 154.957031 290.8125 L 155.714844 289.960938 L 187.027344 295.160156 L 188.066406 309.242188 L 187.40625 310.09375 Z M 164.984375 301.210938 "/>
<path style=" stroke:none;fill-rule:nonzero;fill:rgb(34.899902%,13.729858%,4.708862%);fill-opacity:1;" d="M 154.957031 290.8125 C 155.335938 295.445312 155.714844 300.074219 156.09375 304.707031 C 166.5 306.503906 176.90625 308.296875 187.3125 310.09375 C 186.933594 305.367188 186.648438 300.546875 186.269531 295.820312 C 175.863281 294.121094 165.457031 292.511719 154.957031 290.8125 Z M 154.957031 290.8125 "/>
</g>
</svg>
